<?xml version="1.0" encoding="UTF-8" standalone="no"?>
<!-- Created with Inkscape (http://www.inkscape.org/) -->

<svg
   width="512"
   height="512"
   viewBox="0 0 512 512"
   version="1.1"
   id="svg1"
   inkscape:version="1.4 (e7c3feb1, 2024-10-09)"
   sodipodi:docname="LibConfigLogo2.svg"
   inkscape:export-filename="../Programming/4DSTAR/fourdst/libconfig/assets/logo/logo.png"
   inkscape:export-xdpi="96"
   inkscape:export-ydpi="96"
   xmlns:inkscape="http://www.inkscape.org/namespaces/inkscape"
   xmlns:sodipodi="http://sodipodi.sourceforge.net/DTD/sodipodi-0.dtd"
   xmlns:xlink="http://www.w3.org/1999/xlink"
   xmlns="http://www.w3.org/2000/svg"
   xmlns:svg="http://www.w3.org/2000/svg">
  <sodipodi:namedview
     id="namedview1"
     pagecolor="#ffffff"
     bordercolor="#000000"
     borderopacity="0.25"
     inkscape:showpageshadow="2"
     inkscape:pageopacity="0.0"
     inkscape:pagecheckerboard="0"
     inkscape:deskcolor="#d1d1d1"
     inkscape:document-units="px"
     inkscape:zoom="1.4287316"
     inkscape:cx="390.90617"
     inkscape:cy="466.14773"
     inkscape:window-width="3008"
     inkscape:window-height="1533"
     inkscape:window-x="3008"
     inkscape:window-y="31"
     inkscape:window-maximized="0"
     inkscape:current-layer="svg1">
    <inkscape:page
       x="0"
       y="0"
       width="512"
       height="512"
       id="page2"
       margin="0"
       bleed="0" />
  </sodipodi:namedview>
  <defs
     id="defs1">
    <linearGradient
       id="linearGradient31"
       inkscape:collect="always">
      <stop
         style="stop-color:#000000;stop-opacity:1;"
         offset="0"
         id="stop31" />
      <stop
         style="stop-color:#000000;stop-opacity:0;"
         offset="1"
         id="stop32" />
    </linearGradient>
    <linearGradient
       id="linearGradient27"
       inkscape:collect="always">
      <stop
         style="stop-color:#000000;stop-opacity:1;"
         offset="0"
         id="stop27" />
      <stop
         style="stop-color:#000000;stop-opacity:0;"
         offset="1"
         id="stop28" />
    </linearGradient>
    <linearGradient
       id="linearGradient26"
       inkscape:collect="always">
      <stop
         style="stop-color:#6262f7;stop-opacity:1;"
         offset="0"
         id="stop25" />
      <stop
         style="stop-color:#929292;stop-opacity:0;"
         offset="1"
         id="stop26" />
    </linearGradient>
    <linearGradient
       id="linearGradient19"
       inkscape:collect="always">
      <stop
         style="stop-color:#6262f7;stop-opacity:1;"
         offset="0"
         id="stop19" />
      <stop
         style="stop-color:#929292;stop-opacity:1;"
         offset="1"
         id="stop20" />
    </linearGradient>
    <linearGradient
       inkscape:collect="always"
       xlink:href="#linearGradient19"
       id="linearGradient21"
       gradientUnits="userSpaceOnUse"
       x1="82.922607"
       y1="82.420158"
       x2="428.34048"
       y2="430.13019"
       gradientTransform="translate(0.42927212,-5.5805314)" />
    <linearGradient
       inkscape:collect="always"
       xlink:href="#linearGradient26"
       id="linearGradient22"
       gradientUnits="userSpaceOnUse"
       gradientTransform="matrix(1,0,0,-1,-1.828276e-5,517.05794)"
       x1="121.75275"
       y1="236.35393"
       x2="456.76968"
       y2="-11.562665" />
    <filter
       inkscape:label="Ripple"
       inkscape:menu="Distort"
       inkscape:menu-tooltip="Horizontal rippling of edges"
       style="color-interpolation-filters:sRGB"
       id="filter25"
       x="-0.002022157"
       y="-0.0040060718"
       width="1.0040443"
       height="1.0080121">
      <feTurbulence
         numOctaves="1"
         baseFrequency="0.002 0.107"
         id="feTurbulence25" />
      <feColorMatrix
         values="2 0 0 0 0 0 0 0 0 0 0 0 0 0 0 0 0 0 0.5 0.5"
         result="result91"
         id="feColorMatrix25" />
      <feDisplacementMap
         yChannelSelector="A"
         xChannelSelector="R"
         scale="14.3"
         in="SourceGraphic"
         in2="result91"
         id="feDisplacementMap25" />
    </filter>
    <linearGradient
       inkscape:collect="always"
       xlink:href="#linearGradient27"
       id="linearGradient28"
       x1="121.75273"
       y1="280.70401"
       x2="456.76968"
       y2="528.62061"
       gradientUnits="userSpaceOnUse" />
    <filter
       inkscape:label="Ripple"
       inkscape:menu="Distort"
       inkscape:menu-tooltip="Horizontal rippling of edges"
       style="color-interpolation-filters:sRGB"
       id="filter29"
       x="0"
       y="0"
       width="1"
       height="1">
      <feTurbulence
         numOctaves="1"
         baseFrequency="0.002 0.107"
         id="feTurbulence29" />
      <feColorMatrix
         values="2 0 0 0 0 0 0 0 0 0 0 0 0 0 0 0 0 0 0.5 0.5"
         result="result91"
         id="feColorMatrix29" />
      <feDisplacementMap
         yChannelSelector="A"
         xChannelSelector="R"
         scale="14.3"
         in="SourceGraphic"
         in2="result91"
         id="feDisplacementMap29" />
    </filter>
    <linearGradient
       inkscape:collect="always"
       xlink:href="#linearGradient31"
       id="linearGradient32"
       x1="172.89763"
       y1="-266.99643"
       x2="365.5636"
       y2="-390.88254"
       gradientUnits="userSpaceOnUse" />
  </defs>
  <g
     inkscape:label="Layer 1"
     inkscape:groupmode="layer"
     id="layer1">
    <path
       style="fill:none;fill-rule:evenodd;stroke:none;stroke-width:0.30007;stroke-linecap:round;stroke-linejoin:round;stroke-miterlimit:2.6;paint-order:markers stroke fill"
       d="m 251.63325,419.88106 c -0.14679,-0.37602 -1.33931,-3.24925 -2.65005,-6.38498 -2.16643,-5.18283 -2.44533,-6.08337 -3.06665,-9.9023 -0.37592,-2.31054 -0.66159,-5.24747 -0.63484,-6.52652 0.0268,-1.27904 -0.011,-2.32554 -0.084,-2.32554 -0.0729,0 -3.17491,-0.40509 -6.89325,-0.9002 -3.71834,-0.49512 -7.08724,-0.90021 -7.48646,-0.90021 -0.65814,0 -0.7552,0.17713 -1.04052,1.89899 -0.19087,1.15188 -1.05942,3.54244 -2.2077,6.07641 -1.69916,3.74961 -2.32181,4.73393 -6.08005,9.61159 l -4.18702,5.43418 -3.92702,-1.03999 c -2.15987,-0.57202 -3.94567,-1.05942 -3.96846,-1.08319 -0.0228,-0.0237 -0.45089,-3.08135 -0.95135,-6.79472 -0.90954,-6.74871 -0.90974,-6.7534 -0.46903,-11.10258 0.2704,-2.66837 0.71397,-5.1822 1.147,-6.50037 l 0.7061,-2.14936 -6.94721,-2.87868 c -3.82097,-1.58327 -7.05592,-2.87783 -7.18878,-2.8768 -0.13286,10e-4 -0.57518,0.75623 -0.98294,1.67823 -0.40775,0.922 -2.05445,3.29922 -3.65934,5.28272 -2.638,3.26033 -3.4441,4.00841 -8.40156,7.7967 l -5.48358,4.19032 -3.51851,-2.01071 c -1.93518,-1.10591 -3.54408,-2.02982 -3.57534,-2.05317 -0.0313,-0.0233 0.33727,-3.06983 0.81896,-6.76997 0.82664,-6.34999 0.96212,-6.95587 2.41396,-10.79569 0.84599,-2.23747 2.07588,-4.90586 2.7331,-5.92976 0.65722,-1.02389 1.11043,-1.99837 1.00713,-2.16551 -0.29081,-0.47054 -11.52143,-9.0259 -11.8483,-9.0259 -0.15915,0 -0.80245,0.61676 -1.42956,1.37057 -0.62711,0.75381 -2.90452,2.6323 -5.06092,4.1744 -3.55969,2.54565 -4.48532,3.03758 -10.05233,5.34236 l -6.13162,2.53852 -2.96216,-2.92535 -2.96216,-2.92534 2.49476,-6.11312 c 2.20522,-5.40364 2.78998,-6.53102 5.03852,-9.71395 1.39906,-1.98046 3.34165,-4.35166 4.31686,-5.26932 l 1.7731,-1.66849 -4.57345,-5.98329 c -2.5154,-3.29081 -4.62139,-6.04195 -4.67997,-6.11364 -0.0586,-0.0717 -0.88055,0.40959 -1.8266,1.0695 -1.04333,0.72776 -3.491,1.86194 -6.22113,2.88269 -4.31805,1.61445 -4.76151,1.71554 -10.90747,2.48641 -4.08974,0.51296 -6.51051,0.69944 -6.69427,0.51568 -0.15833,-0.15832 -1.13964,-1.75282 -2.18069,-3.54333 l -1.89283,-3.25548 4.08606,-5.37965 c 3.60639,-4.74812 4.49116,-5.71217 7.53686,-8.21224 1.89794,-1.55793 4.36754,-3.29931 5.488,-3.86974 1.12046,-0.57042 1.98004,-1.13406 1.91017,-1.25251 -0.0699,-0.11846 -1.37724,-3.25358 -2.90527,-6.96695 -1.52804,-3.71336 -2.81891,-6.80027 -2.8686,-6.8598 -0.0497,-0.0595 -0.94187,0.18309 -1.98259,0.53916 -1.13276,0.38755 -3.7316,0.83793 -6.47504,1.12212 -4.5723,0.47364 -4.59707,0.47288 -10.80251,-0.3287 -3.42084,-0.44189 -6.498569,-0.91764 -6.839409,-1.05721 -0.491895,-0.20144 -0.824722,-1.03632 -1.613728,-4.04799 -0.546712,-2.08682 -0.943,-3.84478 -0.880641,-3.90658 0.06236,-0.0618 2.476429,-1.94095 5.364598,-4.17589 4.79933,-3.71384 5.62565,-4.23121 9.60223,-6.01211 2.39306,-1.07173 5.19496,-2.10808 6.22645,-2.30301 1.03149,-0.19493 1.87011,-0.43812 1.8636,-0.54043 -0.007,-0.1023 -0.45486,-3.49428 -0.99634,-7.53772 l -0.9845,-7.3517 -1.92934,0.0805 c -1.06114,0.0443 -4.03889,-0.26188 -6.61722,-0.68034 -4.47604,-0.72646 -4.97098,-0.87988 -10.952548,-3.39509 l -6.264665,-2.63425 -0.08317,-4.06289 -0.08316,-4.06289 6.534664,-2.70544 c 6.073909,-2.51468 6.833349,-2.75343 10.770879,-3.38612 2.67356,-0.42959 5.0296,-0.63585 6.38698,-0.55915 1.97011,0.11132 2.16198,0.0702 2.28425,-0.48901 0.29812,-1.36362 1.91755,-14.3922 1.80314,-14.5066 -0.0678,-0.0679 -0.97535,-0.30196 -2.01665,-0.52024 -1.04131,-0.21828 -3.78388,-1.24988 -6.09461,-2.29245 -3.77152,-1.70166 -4.73348,-2.30698 -9.40316,-5.91709 -2.861008,-2.21183 -5.255721,-4.16978 -5.321582,-4.35101 -0.229189,-0.63064 1.867306,-7.82837 2.303544,-7.90857 0.23134,-0.0425 3.323788,-0.4608 6.872118,-0.92947 l 6.4515,-0.85213 4.65108,0.52287 c 2.62659,0.29527 5.39933,0.78982 6.37011,1.13616 0.99939,0.35655 1.79202,0.49521 1.89337,0.33122 0.0959,-0.15513 1.39317,-3.21884 2.88286,-6.80823 1.48969,-3.58939 2.77071,-6.67369 2.84671,-6.854 0.076,-0.18031 -0.67465,-0.69261 -1.6681,-1.13844 -1.03979,-0.46663 -3.36258,-2.08515 -5.47384,-3.81417 -3.26426,-2.67325 -4.10661,-3.57807 -7.65991,-8.22792 -2.19577,-2.8734 -3.99232,-5.36889 -3.99232,-5.54553 0,-0.17663 0.88885,-1.86916 1.97522,-3.76118 1.70734,-2.97349 2.06342,-3.42025 2.62561,-3.29425 0.35772,0.0802 3.37227,0.49157 6.699,0.9142 5.7386,0.72904 6.26918,0.85271 10.3524,2.41297 2.36709,0.9045 5.02532,2.13838 5.90717,2.74196 1.12861,0.77248 1.72442,1.01425 2.01223,0.81654 0.43093,-0.29602 9.13422,-11.57551 9.13082,-11.83356 -0.001,-0.0825 -0.65669,-0.69016 -1.45691,-1.35031 -0.80022,-0.66015 -2.69909,-2.92376 -4.21971,-5.03023 -2.53487,-3.51147 -2.97495,-4.3418 -5.29237,-9.98557 -1.39018,-3.38559 -2.5276,-6.25585 -2.5276,-6.37835 0,-0.1225 1.27167,-1.48911 2.82594,-3.03691 l 2.82593,-2.81418 6.10114,2.49657 c 5.5217,2.25946 6.47481,2.76082 10.03561,5.27893 2.16396,1.5303 4.54685,3.49314 5.29531,4.36188 1.0431,1.21072 1.45563,1.50598 1.76685,1.26458 0.22331,-0.17321 2.93786,-2.24607 6.03233,-4.60635 3.09446,-2.36028 5.6263,-4.42281 5.6263,-4.58341 0,-0.1606 -0.46335,-0.9232 -1.02967,-1.69468 -0.57576,-0.78436 -1.7705,-3.35751 -2.71026,-5.83722 -1.57936,-4.16738 -1.72496,-4.78127 -2.41689,-10.1902 -0.40495,-3.16562 -0.80821,-6.17524 -0.89613,-6.68806 -0.15694,-0.91547 -0.0967,-0.96896 3.32197,-2.94802 1.915,-1.10859 3.66269,-1.94621 3.88376,-1.86138 0.22107,0.0848 2.66629,1.88405 5.43382,3.99826 4.36837,3.33715 5.42497,4.31849 8.0131,7.44233 1.63968,1.97907 3.39934,4.44619 3.91036,5.48249 0.51103,1.0363 1.06756,1.82976 1.23675,1.76325 0.84759,-0.3332 13.82173,-5.70199 13.88968,-5.74765 0.0434,-0.0292 -0.24384,-0.91773 -0.63834,-1.97458 -0.49696,-1.33137 -0.86046,-3.33675 -1.18351,-6.52931 l -0.46625,-4.60776 0.90608,-6.64485 c 0.49834,-3.65467 0.94968,-6.689142 1.00297,-6.743278 0.32956,-0.334789 7.79582,-2.12814 8.00194,-1.922018 0.13914,0.139138 2.05188,2.581814 4.25054,5.428166 3.61477,4.67963 4.17814,5.57963 5.88332,9.39871 1.09737,2.45778 2.02271,5.02305 2.21334,6.13596 0.2395,1.39818 0.45241,1.90816 0.79176,1.89647 0.2553,-0.009 3.70493,-0.44764 7.66585,-0.97522 l 7.20168,-0.95925 -0.15004,-1.95045 c -0.10155,-1.32011 0.10353,-3.50207 0.63455,-6.75157 0.74979,-4.58815 0.89721,-5.06731 3.32372,-10.802509 l 2.53914,-6.001394 4.17802,-0.07783 4.17802,-0.07783 2.59056,6.229257 c 2.43961,5.866306 2.63522,6.500246 3.3572,10.880336 0.53598,3.25164 0.7165,5.23856 0.59997,6.60361 l -0.16668,1.95253 6.56174,0.84396 c 3.60896,0.46417 7.0517,0.91672 7.65054,1.00566 l 1.08879,0.16172 0.33945,-1.94927 c 0.2049,-1.1766 1.11367,-3.65758 2.29264,-6.25897 1.76289,-3.88982 2.34647,-4.81804 5.99005,-9.52748 2.22028,-2.869779 4.09403,-5.274949 4.1639,-5.344818 0.14683,-0.146824 7.16056,1.682395 7.67877,2.002662 0.19375,0.11975 0.74355,3.104256 1.25035,6.787386 l 0.90454,6.57367 -0.47871,4.73488 c -0.30262,2.99315 -0.69659,5.28764 -1.07101,6.23755 -0.32577,0.82648 -0.5923,1.67446 -0.5923,1.88442 0,0.28429 8.45998,4.03997 13.84849,6.14783 0.141,0.0552 0.64415,-0.71968 1.11811,-1.72187 0.47396,-1.00218 2.1718,-3.43751 3.77299,-5.41184 2.56323,-3.16059 3.49752,-4.03775 7.81572,-7.33786 2.69746,-2.06149 5.16945,-3.91364 5.49331,-4.1159 0.5122,-0.31987 1.04244,-0.10432 4.0747,1.6565 1.91724,1.11332 3.48499,2.11492 3.4839,2.22578 -10e-4,0.11085 -0.394,3.17224 -0.87313,6.80309 -0.81931,6.20859 -0.96297,6.84266 -2.41359,10.65247 -0.84833,2.22802 -2.09605,4.90164 -2.77271,5.94138 -0.70303,1.08025 -1.11455,1.9958 -0.96022,2.13629 0.14853,0.13522 2.8902,2.24833 6.09259,4.6958 l 5.82252,4.44994 1.52919,-1.67977 c 1.3319,-1.46307 6.95158,-5.81076 8.76053,-6.77764 0.3464,-0.18515 3.3046,-1.43297 6.57376,-2.77294 l 5.94395,-2.43631 2.80342,2.79177 c 1.54187,1.53546 2.80341,2.94044 2.80341,3.12216 0,0.18172 -1.10137,3.02005 -2.44748,6.30739 -2.16911,5.29716 -2.73945,6.38655 -5.0144,9.57783 -2.59208,3.63615 -3.28172,4.43994 -5.08151,5.92268 l -0.9907,0.8162 4.54262,5.93271 c 2.49845,3.263 4.6738,5.98037 4.83412,6.03859 0.16032,0.0582 1.04672,-0.39558 1.96978,-1.00845 0.92306,-0.61287 3.60171,-1.83626 5.95255,-2.71864 4.05801,-1.52315 4.61111,-1.6481 10.93159,-2.46948 l 6.65732,-0.86514 0.38679,0.62726 c 0.21272,0.34499 1.1514,1.9439 2.08591,3.55309 l 1.69914,2.92582 -4.18108,5.47613 c -3.78994,4.96382 -4.52157,5.75177 -7.8207,8.42252 -2.00178,1.62052 -4.37824,3.28455 -5.28101,3.69785 -0.90277,0.41331 -1.6414,0.88426 -1.6414,1.04658 0,0.35618 5.40416,13.5208 5.67928,13.83482 0.10634,0.12137 0.93124,-0.0665 1.8331,-0.41739 1.06941,-0.41613 3.30966,-0.81516 6.44086,-1.14723 l 4.80111,-0.50916 6.75865,0.90688 6.75869,0.90687 1.05825,3.96995 1.05829,3.96995 -5.41638,4.17874 c -4.93816,3.80979 -5.80056,4.35208 -9.76739,6.14193 -2.44221,1.10193 -5.01552,2.05312 -5.8657,2.16818 -0.83309,0.11274 -1.6563,0.29735 -1.82935,0.41024 -0.21362,0.13933 0.004,2.56608 0.67624,7.55695 0.54501,4.04344 0.99689,7.42022 1.00418,7.50396 0.007,0.0837 1.05973,0.10686 2.33877,0.0514 1.53468,-0.0666 3.80522,0.15298 6.67656,0.64563 3.99915,0.68619 4.85455,0.95808 10.57745,3.36219 l 6.22645,2.61565 -0.002,4.0882 -0.002,4.0882 -6.37435,2.63481 c -5.90033,2.43889 -6.70902,2.69147 -10.87537,3.39668 -3.37797,0.57178 -5.00168,0.7121 -6.50755,0.56239 l -2.00654,-0.19948 -0.16627,1.00378 c -0.0914,0.55207 -0.50384,3.63689 -0.91644,6.85513 -0.41259,3.21825 -0.81271,6.20857 -0.88914,6.64517 -0.13404,0.76563 -0.0676,0.80707 1.87271,1.16724 1.21513,0.22555 3.73458,1.16484 6.36271,2.37209 3.89676,1.79001 4.89138,2.41724 9.52721,6.00814 2.84691,2.20521 5.17621,4.19114 5.17621,4.41318 0,0.22203 -0.42484,2.01335 -0.94408,3.9807 -0.78616,2.97869 -1.04968,3.60179 -1.57537,3.72522 -0.34721,0.0815 -3.39313,0.51369 -6.76873,0.96038 -6.13544,0.8119 -6.13895,0.81201 -10.80488,0.34099 -3.14002,-0.31699 -5.23568,-0.68863 -6.40376,-1.13563 -1.02566,-0.3925 -1.84157,-0.55321 -1.9935,-0.39267 -0.32467,0.34309 -5.71763,13.37826 -5.71763,13.81991 0,0.17966 0.77643,0.66851 1.7254,1.08631 0.99169,0.43661 3.25662,2.02234 5.32623,3.72901 3.4755,2.86601 6.04794,5.82406 10.93515,12.57438 l 0.89117,1.23091 -1.97365,3.42017 c -1.0855,1.88109 -2.02025,3.47192 -2.07726,3.53518 -0.057,0.0633 -3.04505,-0.25855 -6.64013,-0.71513 -6.23448,-0.79178 -6.73759,-0.90541 -10.88754,-2.45892 -2.39306,-0.89582 -4.82362,-1.93525 -5.40126,-2.30984 -0.57763,-0.37459 -1.41065,-0.91483 -1.85116,-1.20053 l -0.80092,-0.51945 -4.6746,6.09501 -4.67461,6.09502 1.78484,1.65039 c 0.98166,0.90771 2.89415,3.19678 4.24997,5.08682 2.13404,2.9749 2.78017,4.2004 4.81078,9.12455 1.29011,3.12846 2.42991,5.95357 2.53289,6.27802 0.14622,0.46072 -0.42637,1.20608 -2.61452,3.40336 -1.54097,1.5474 -2.95044,2.81345 -3.13216,2.81345 -0.18172,0 -3.01655,-1.10374 -6.29962,-2.45275 -5.39766,-2.2179 -6.33491,-2.71505 -9.78855,-5.19218 -2.10064,-1.50668 -4.33215,-3.37795 -4.95892,-4.15837 -0.69943,-0.87089 -1.32342,-1.37311 -1.61555,-1.30027 -0.5005,0.1248 -11.97693,8.83296 -11.97693,9.08793 0,0.0812 0.52017,0.91669 1.15594,1.8566 0.63577,0.93992 1.86711,3.59938 2.73631,5.90991 1.48029,3.93498 1.63454,4.60948 2.43604,10.65248 0.47062,3.54832 0.85966,6.59274 0.86453,6.76537 0.007,0.23274 -5.45618,3.60828 -6.9122,4.27119 -0.10149,0.0462 -2.59129,-1.7455 -5.5329,-3.98153 -4.71874,-3.58691 -5.6915,-4.48118 -8.26306,-7.59622 -1.60308,-1.94188 -3.33833,-4.36993 -3.85612,-5.39566 -0.51779,-1.02573 -1.01662,-1.86496 -1.10852,-1.86496 -0.31051,0 -13.47521,5.4776 -13.73824,5.71624 -0.14487,0.13143 0.02,1.06807 0.37086,2.10707 0.36571,1.08292 0.83135,3.79641 1.10594,6.44476 l 0.47427,4.57429 -0.91528,6.6777 c -0.5034,3.6727 -0.95122,6.71241 -0.99517,6.75487 -0.10713,0.10355 -7.8714,2.20062 -7.90367,2.13472 -0.0139,-0.0284 -1.88036,-2.45424 -4.14764,-5.39072 -3.75056,-4.85753 -4.29446,-5.7235 -6.03092,-9.60223 -1.04973,-2.34475 -2.07103,-5.10713 -2.26956,-6.13862 -0.31654,-1.64459 -0.44491,-1.87543 -1.04302,-1.87543 -0.37513,0 -3.72434,0.40509 -7.44267,0.90021 -3.71834,0.49511 -6.85667,0.9002 -6.97407,0.9002 -0.11741,0 -0.12901,0.90438 -0.0258,2.00969 0.13874,1.4858 -0.0157,3.21894 -0.59246,6.64805 -0.73436,4.36616 -0.93277,5.00087 -3.38188,10.81826 l -2.60176,6.17997 -4.1183,0.0835 c -4.04375,0.082 -4.12313,0.0711 -4.38519,-0.60014 z m 20.3761,-44.64888 c 15.63778,-2.05046 16.11642,-2.13266 18.30811,-3.14405 1.23779,-0.57119 3.06071,-1.35817 4.05094,-1.74884 0.99023,-0.39067 6.77717,-2.77464 12.85988,-5.2977 9.70809,-4.02686 11.21138,-4.73836 12.30286,-5.8229 1.10752,-1.1005 4.64294,-3.85406 19.14727,-14.91287 2.25537,-1.7196 4.23011,-3.3966 4.38832,-3.72668 0.15821,-0.33008 4.1711,-5.66382 8.91753,-11.85276 4.74644,-6.18893 8.81954,-11.54064 9.05133,-11.89269 0.2318,-0.35204 3.1135,-7.13395 6.40379,-15.07091 l 5.98234,-14.43083 2.07961,-15.7754 2.07962,-15.7754 -2.0866,-15.96456 c -2.00215,-15.31839 -2.12742,-16.05567 -3.0951,-18.2151 -0.55467,-1.23779 -3.40269,-8.05687 -6.32892,-15.15352 -5.18638,-12.57791 -5.36284,-12.94849 -7.00386,-14.70858 -0.92589,-0.99307 -5.28715,-6.52935 -9.69171,-12.30286 -5.08337,-6.6633 -8.37125,-10.71076 -9.00209,-11.08179 -0.5466,-0.32148 -4.16705,-3.02847 -8.04545,-6.01553 -3.8784,-2.98706 -9.00959,-6.90685 -11.40265,-8.71065 l -4.35101,-3.27964 -14.55338,-6.02913 -14.55338,-6.02913 -15.72574,-2.05407 -15.72574,-2.05407 -15.78159,2.04425 c -14.12951,1.83026 -15.98575,2.1332 -17.73203,2.89381 -1.07275,0.46726 -8.02686,3.36128 -15.45359,6.43118 -12.51122,5.17161 -13.60233,5.68091 -14.85345,6.93323 -0.74267,0.74338 -2.36305,2.11329 -3.60084,3.04423 -9.99762,7.51927 -19.43341,14.97805 -19.88268,15.71682 -0.29825,0.49042 -4.47311,6.02354 -9.27747,12.29581 l -8.73521,11.40412 -6.06585,14.63321 -6.06585,14.6332 -2.00009,15.27341 c -1.10005,8.40037 -1.99464,15.81353 -1.98798,16.47369 0.007,0.66015 0.93725,8.15835 2.06796,16.66266 1.68213,12.65165 2.1761,15.69813 2.71744,16.75924 0.36388,0.71327 1.24057,2.73478 1.94821,4.49225 0.70763,1.75747 3.21722,7.85398 5.57686,13.5478 4.01678,9.69254 4.39163,10.46261 5.88085,12.08127 0.87483,0.95087 1.96532,2.23367 2.42331,2.85066 0.45799,0.61699 4.09562,5.38191 8.08362,10.5887 5.14247,6.71409 7.62766,9.71621 8.54654,10.3243 0.7126,0.47158 5.01375,3.71431 9.55811,7.20607 15.35075,11.79508 12.01536,9.84553 28.5619,16.69454 l 14.50867,6.00549 15.30355,2.04723 c 8.41696,1.12597 15.50437,2.06315 15.74981,2.08261 0.24543,0.0195 7.67216,-0.9121 16.50383,-2.07012 z"
       id="path7" />
  </g>
  <path
     style="fill:none;fill-rule:evenodd;stroke:none;stroke-width:0.429272;stroke-linecap:round;stroke-linejoin:round;stroke-miterlimit:2.6;paint-order:markers stroke fill"
     d="m 244.74296,501.06733 c -2.5439,-8.86515 -4.25319,-15.32873 -4.55251,-17.21508 -0.21062,-1.32735 -0.11777,-5.54314 0.23255,-10.55944 0.32073,-4.59248 0.54158,-8.38582 0.49077,-8.42965 -0.29842,-0.25752 -27.47218,-3.6328 -27.66827,-3.43671 -0.13135,0.13136 -0.86459,3.47946 -1.62943,7.44027 -0.76483,3.9608 -1.64057,8.06936 -1.94609,9.13022 -0.63524,2.20568 -10.26597,18.86194 -10.91721,18.88121 -0.2361,0.007 -4.24386,-1.00346 -8.90614,-2.24543 l -8.47686,-2.25814 0.006,-10.08789 0.006,-10.08788 2.98423,-8.99208 c 1.64133,-4.94564 2.94186,-9.02037 2.89007,-9.05497 -0.6583,-0.43953 -25.69322,-10.58249 -25.81109,-10.4574 -0.0894,0.0949 -2.01115,3.84279 -4.27056,8.32868 l -4.10802,8.15616 -7.23706,7.21662 -7.23707,7.21666 -7.26665,-4.17162 c -3.99666,-2.29437 -7.52332,-4.40493 -7.83702,-4.6901 -0.47012,-0.42738 -0.14269,-2.16765 1.86311,-9.90222 1.33841,-5.16105 2.73193,-9.96825 3.09671,-10.68268 0.36478,-0.71444 2.66543,-4.26018 5.11256,-7.87946 2.44712,-3.61928 4.43724,-6.80662 4.42248,-7.08299 -0.0233,-0.43563 -20.84756,-16.6166 -21.79165,-16.93262 -0.19357,-0.0648 -2.59038,2.44644 -5.32626,5.58053 -2.73587,3.13408 -5.67185,6.36817 -6.52439,7.18686 -0.85254,0.81868 -5.360969,3.65302 -10.018726,6.29852 l -8.468645,4.80998 -6.394005,-6.36251 -6.394006,-6.36253 4.676919,-8.3054 c 2.572303,-4.56797 5.244043,-8.95193 5.937196,-9.74214 0.693154,-0.7902 4.024108,-3.85538 7.402124,-6.81151 l 6.141852,-5.37477 -1.213444,-1.56067 c -0.667393,-0.85838 -4.462365,-5.81047 -8.433273,-11.00466 -3.970905,-5.19418 -7.284744,-9.52217 -7.364082,-9.61774 -0.07934,-0.0956 -3.38218,1.96858 -7.339648,4.587 -3.957473,2.61841 -7.871503,5.07026 -8.697851,5.44854 -1.285845,0.58864 -19.446007,5.44981 -19.567713,5.23796 -7.071139,-12.30868 -8.764216,-15.32936 -8.764216,-15.63655 0,-0.20599 3.332222,-3.65377 7.404936,-7.66174 l 7.404936,-7.28722 8.058996,-3.94425 8.059,-3.94425 -0.681924,-1.62028 c -0.375059,-0.89116 -2.715972,-6.54618 -5.202025,-12.56671 -2.486058,-6.02054 -4.684217,-11.11916 -4.884803,-11.33028 -0.2113,-0.22239 -3.66998,0.77068 -8.222866,2.361 l -7.858169,2.74484 H 28.807529 17.692794 l -2.284673,-8.5793 c -1.25657,-4.71862 -2.146693,-8.69441 -1.978051,-8.83509 1.553685,-1.29612 17.180951,-9.99058 18.803798,-10.46178 1.159325,-0.33661 5.391792,-1.23034 9.405482,-1.98605 4.01369,-0.75572 7.322531,-1.39667 7.35298,-1.42433 0.170731,-0.15507 -3.592499,-27.34045 -3.815575,-27.56352 -0.147691,-0.1477 -4.323711,-0.0209 -9.280043,0.28165 l -9.011515,0.55018 -9.901107,-2.73458 -9.9011078,-2.73457 v -9.05952 -9.05952 l 9.9011078,-2.73457 9.901107,-2.73458 9.011515,0.55018 c 4.956332,0.3026 9.132352,0.42935 9.280043,0.28166 0.223076,-0.22308 3.986306,-27.40846 3.815575,-27.56353 -0.03045,-0.0277 -3.33929,-0.66861 -7.35298,-1.42433 -4.01369,-0.75571 -8.246157,-1.64944 -9.405482,-1.98605 -1.622847,-0.47119 -17.250113,-9.16566 -18.803798,-10.46178 -0.168642,-0.14068 0.721481,-4.11647 1.978051,-8.83508 l 2.284673,-8.57931 h 11.114735 11.114734 l 7.858169,2.74484 c 4.543725,1.58711 8.010888,2.58294 8.220248,2.361 0.199143,-0.21112 2.396366,-5.30974 4.882716,-11.33028 2.486354,-6.02053 4.828443,-11.67555 5.204648,-12.5667 l 0.684006,-1.62029 -8.059,-3.94425 -8.058996,-3.94425 -7.404936,-7.28721 c -4.072714,-4.00798 -7.404936,-7.45575 -7.404936,-7.66174 0,-0.3072 1.693077,-3.32788 8.764216,-15.63656 0.121706,-0.21185 18.281868,4.64932 19.567713,5.23796 0.826348,0.37828 4.740378,2.83013 8.697851,5.44854 3.957468,2.61842 7.26031,4.68257 7.339648,4.587 0.07934,-0.0956 3.393177,-4.42355 7.364082,-9.61774 3.970908,-5.19419 7.76588,-10.14628 8.433273,-11.00465 l 1.213444,-1.56068 -6.141852,-5.37477 c -3.378016,-2.95612 -6.70897,-6.0213 -7.402124,-6.81151 -0.693153,-0.79021 -3.364893,-5.17417 -5.937196,-9.742141 l -4.676919,-8.305398 6.394006,-6.362527 6.394005,-6.362531 8.468645,4.810002 c 4.657757,2.645498 9.166186,5.479833 10.018726,6.298518 0.85254,0.818686 3.78852,4.052775 6.52439,7.186857 2.73588,3.134087 5.13269,5.645326 5.32626,5.580532 0.94409,-0.316017 21.7684,-16.496991 21.79165,-16.93262 0.0148,-0.27637 -1.97536,-3.463712 -4.42248,-7.082982 -2.44713,-3.619271 -4.74778,-7.165025 -5.11256,-7.879462 -0.36478,-0.714432 -1.7583,-5.521639 -3.09671,-10.682682 -2.0058,-7.734565 -2.33323,-9.47484 -1.86311,-9.902226 0.3137,-0.285182 3.84036,-2.39573 7.83702,-4.690107 l 7.26665,-4.171594 7.23707,7.216629 7.23706,7.216629 4.10802,8.156162 c 2.25941,4.485888 4.17792,8.230558 4.26337,8.321482 0.11392,0.121218 25.22759,-10.041943 25.81828,-10.448304 0.0518,-0.03563 -1.24874,-4.111221 -2.89007,-9.056865 l -2.98423,-8.992081 -0.006,-10.087883 -0.006,-10.087884 8.47686,-2.258146 c 4.66228,-1.24198 8.67004,-2.252429 8.90614,-2.245442 0.65124,0.01927 10.28197,16.675554 10.91721,18.88124 0.30552,1.060825 1.18126,5.169424 1.94609,9.130219 0.76484,3.960796 1.49808,7.308915 1.62943,7.440266 0.19609,0.196092 27.36985,-3.179185 27.66827,-3.436702 0.0508,-0.04384 -0.17004,-3.8372 -0.49077,-8.42968 -0.35032,-5.016262 -0.44317,-9.232087 -0.23255,-10.559428 0.29932,-1.886329 2.00861,-8.349933 4.55251,-17.215078 l 0.64671,-2.2536759 h 8.95378 8.95378 l 0.64671,2.2536759 c 2.5439,8.865145 4.25319,15.328749 4.55251,17.215078 0.21062,1.327341 0.11777,5.543166 -0.23255,10.559428 -0.32073,4.59248 -0.54158,8.380264 -0.49077,8.417299 0.35725,0.260398 27.47199,3.645368 27.66384,3.453518 0.13379,-0.13379 0.86982,-3.482578 1.63563,-7.441752 0.7658,-3.959174 1.65871,-8.108129 1.98423,-9.219901 0.66625,-2.275451 10.2119,-18.771652 10.8773,-18.797466 0.2361,-0.0092 4.25517,1.001066 8.93127,2.244946 l 8.502,2.261601 -0.14502,10.731791 -0.14502,10.731791 -2.88295,8.335839 c -1.58562,4.58471 -2.83503,8.366718 -2.77645,8.404459 0.69452,0.447469 25.71839,10.588629 25.83135,10.468394 0.085,-0.09052 2.00322,-3.834851 4.26263,-8.320739 l 4.10802,-8.156162 7.23706,-7.216629 7.23707,-7.216629 7.26665,4.171594 c 3.99666,2.294377 7.52332,4.404925 7.83702,4.690107 0.47012,0.427386 0.14269,2.167661 -1.86311,9.902226 -1.33841,5.161043 -2.73357,9.96825 -3.10036,10.682682 -0.36679,0.714437 -2.67327,4.283517 -5.12551,7.931296 -2.45224,3.647779 -4.3702,6.862727 -4.26214,7.14433 0.18146,0.472881 20.88967,16.554839 21.65784,16.819438 0.1881,0.06479 2.58045,-2.446445 5.31633,-5.580532 2.73587,-3.134082 5.65551,-6.35234 6.48809,-7.151674 0.83258,-0.799338 5.34101,-3.631878 10.01873,-6.294534 l 8.50494,-4.841197 6.39401,6.358543 6.39399,6.358543 -4.67691,8.305398 c -2.5723,4.567971 -5.24404,8.951931 -5.93719,9.742141 -0.69316,0.79021 -4.02411,3.85539 -7.40213,6.81151 l -6.14185,5.37477 1.21345,1.56068 c 0.66739,0.85837 4.46236,5.81046 8.43327,11.00465 3.9709,5.19419 7.28474,9.52217 7.36408,9.61774 0.0793,0.0956 3.38218,-1.96858 7.33964,-4.587 3.9575,-2.61841 7.87151,-5.07111 8.69786,-5.45044 1.24394,-0.57103 19.45523,-5.43538 19.56697,-5.22646 0.0193,0.0361 1.99929,3.46786 4.40004,7.62615 2.4007,4.15828 4.36492,7.74385 4.36492,7.96792 0,0.22408 -3.33222,3.68665 -7.40494,7.69463 l -7.40493,7.28721 -8.03606,3.93295 -8.03605,3.93294 0.58566,1.41695 c 0.32212,0.77933 2.65389,6.43943 5.18169,12.57802 2.52781,6.13858 4.74972,11.32454 4.93757,11.52436 0.18785,0.19981 4.21356,-0.91439 8.94607,-2.47601 l 8.60449,-2.83929 10.38983,0.11501 10.38984,0.115 2.28376,8.57931 c 1.2561,4.71861 2.1458,8.6944 1.97719,8.83508 -0.16866,0.14069 -4.03318,2.4374 -8.58784,5.10382 -9.06008,5.30397 -9.55713,5.4873 -20.47999,7.55414 -3.54149,0.67012 -6.46398,1.22878 -6.49445,1.24144 -0.17931,0.0746 3.5954,27.3161 3.81558,27.53629 0.14771,0.14769 4.33049,0.0205 9.29506,-0.28257 l 9.02651,-0.5511 9.88612,2.72199 9.88609,2.72199 v 9.08652 9.08652 l -9.88609,2.72199 -9.88612,2.72199 -9.02651,-0.5511 c -4.96457,-0.3031 -9.14735,-0.43026 -9.29506,-0.28256 -0.22018,0.22019 -3.99489,27.46165 -3.81558,27.53628 0.0305,0.0127 2.95296,0.57132 6.49445,1.24144 10.92286,2.06684 11.41991,2.25018 20.47999,7.55414 4.55466,2.66642 8.41918,4.96313 8.58784,5.10382 0.16861,0.14068 -0.72109,4.11647 -1.97719,8.83509 l -2.28376,8.5793 -10.38984,0.11501 -10.38983,0.11501 -8.60449,-2.8393 c -4.73251,-1.56161 -8.75822,-2.67582 -8.94607,-2.47601 -0.18785,0.19982 -2.40976,5.38578 -4.93757,11.52436 -2.5278,6.13859 -4.85957,11.79869 -5.18169,12.57802 l -0.58566,1.41695 8.03605,3.93295 8.03606,3.93294 7.40493,7.28722 c 4.07272,4.00797 7.40494,7.47055 7.40494,7.69462 0,0.22407 -1.96422,3.80964 -4.36492,7.96792 -2.40075,4.15829 -4.38076,7.59006 -4.40004,7.62616 -0.11174,0.20891 -18.32303,-4.65544 -19.56697,-5.22646 -0.82635,-0.37933 -4.74036,-2.83204 -8.69786,-5.45045 -3.95746,-2.61842 -7.2603,-4.68257 -7.33964,-4.587 -0.0793,0.0956 -3.39318,4.42356 -7.36408,9.61774 -3.97091,5.19419 -7.76588,10.14628 -8.43327,11.00466 l -1.21345,1.56067 6.14185,5.37477 c 3.37802,2.95613 6.70897,6.02131 7.40213,6.81151 0.69315,0.79021 3.36489,5.17417 5.93719,9.74214 l 4.67691,8.3054 -6.39399,6.35854 -6.39401,6.35856 -8.50494,-4.84121 c -4.67772,-2.66266 -9.18615,-5.4952 -10.01873,-6.29453 -0.83258,-0.79934 -3.75222,-4.0176 -6.48809,-7.15168 -2.73588,-3.13409 -5.1269,-5.64532 -5.3134,-5.58053 -0.5475,0.19022 -20.94083,15.87437 -21.4705,16.51258 -0.37686,0.45409 0.50746,2.06779 4.03122,7.35618 2.48269,3.72595 4.81077,7.3484 5.17352,8.04987 0.36274,0.70148 1.75459,5.49807 3.093,10.65912 2.0058,7.73457 2.33323,9.47484 1.86311,9.90222 -0.3137,0.28517 -3.84036,2.39573 -7.83702,4.6901 l -7.26665,4.17162 -7.23707,-7.21666 -7.23706,-7.21662 -4.10802,-8.15616 c -2.25941,-4.48589 -4.17759,-8.23021 -4.26263,-8.32074 -0.11296,-0.12024 -25.13683,10.02092 -25.83135,10.46839 -0.0586,0.0377 1.19083,3.81974 2.77645,8.40445 l 2.88295,8.33586 0.14502,10.73179 0.14502,10.73179 -8.502,2.26162 c -4.6761,1.24385 -8.69517,2.2541 -8.93127,2.24491 -0.6654,-0.0258 -10.21105,-16.52202 -10.8773,-18.79746 -0.32552,-1.11177 -1.21843,-5.26072 -1.98423,-9.21989 -0.76581,-3.95918 -1.50184,-7.30797 -1.63563,-7.44177 -0.19185,-0.19184 -27.30659,3.19314 -27.66384,3.45353 -0.0508,0.0371 0.17004,3.82481 0.49077,8.41729 0.35032,5.0163 0.44317,9.23209 0.23255,10.55944 -0.29932,1.88635 -2.00861,8.34993 -4.55251,17.21508 l -0.64671,2.25367 h -8.95378 -8.95378 z m 23.76645,-95.2294 c 34.64209,-3.05461 67.58546,-18.55761 92.50804,-43.53386 23.97884,-24.03047 38.6285,-54.1566 43.00092,-88.42876 1.07619,-8.43545 1.07619,-27.62337 0,-36.05882 -5.50575,-43.15543 -27.51096,-79.99861 -62.85375,-105.23562 -22.57143,-16.11744 -50.67788,-25.77032 -79.08035,-27.15936 -43.55579,-2.13013 -84.13975,13.56968 -114.89229,44.44581 -27.9233,28.03553 -43.51402,66.00678 -43.51402,105.97858 0,52.12199 26.41531,99.87924 70.70713,127.8341 6.0506,3.81886 20.38647,10.89194 27.15795,13.3993 21.2961,7.88556 43.67428,10.81244 66.96637,8.75863 z"
     id="path18" />
  <path
     id="path20"
     style="fill:url(#linearGradient21);fill-opacity:1;fill-rule:evenodd;stroke:#000000;stroke-width:2;stroke-linecap:round;stroke-linejoin:round;stroke-miterlimit:2.6;stroke-dasharray:none;stroke-opacity:1;paint-order:markers stroke fill"
     d="m 245.81989,2.7905629 -0.64648,2.2539057 c -2.5439,8.8651454 -4.25341,15.3285154 -4.55273,17.2148444 -0.21062,1.327341 -0.1179,5.542332 0.23242,10.558594 0.32073,4.592479 0.54103,8.385847 0.49023,8.429687 -0.29842,0.257517 -27.47188,3.633592 -27.66797,3.4375 -0.13135,-0.131351 -0.86406,-3.48061 -1.6289,-7.441406 -0.76483,-3.960795 -1.64175,-8.068081 -1.94727,-9.128907 -0.63524,-2.205685 -10.26477,-18.8615894 -10.91601,-18.8808594 -0.2361,-0.007 -4.24397,1.0021614 -8.90625,2.2441414 l -8.47657,2.257812 0.006,10.087891 0.006,10.087891 2.98438,8.992187 c 1.64133,4.945644 2.94047,9.021011 2.88867,9.056641 -0.59069,0.406361 -25.70444,10.570436 -25.81836,10.449218 -0.0854,-0.09092 -2.00231,-3.836377 -4.26172,-8.322265 l -4.10937,-8.15625 -7.23633,-7.214844 -7.23633,-7.216797 -7.26758,4.169922 c -3.99666,2.294377 -7.52419,4.406224 -7.83789,4.691406 -0.47012,0.427386 -0.14252,2.167779 1.86328,9.902344 1.33841,5.161043 2.73288,9.967209 3.09766,10.681641 0.36478,0.714437 2.6642,4.261588 5.11133,7.880859 2.44712,3.61927 4.43863,6.805661 4.42383,7.082031 -0.0233,0.435629 -20.84888,16.617577 -21.79297,16.933594 -0.19357,0.06479 -2.5903,-2.447944 -5.32618,-5.582031 -2.73587,-3.134082 -5.67089,-6.366861 -6.52343,-7.185547 -0.85254,-0.818685 -5.361777,-3.65333 -10.019532,-6.298828 l -8.46875,-4.810547 -6.392578,6.363281 -6.394532,6.361328 4.677735,8.306641 c 2.572303,4.567968 5.242394,8.951978 5.935547,9.742188 0.693154,0.790211 4.024327,3.854431 7.402343,6.810551 l 6.142578,5.375 -1.21289,1.56054 c -0.667393,0.85837 -4.462686,5.80972 -8.433594,11.00391 -3.970905,5.19419 -7.285894,9.52354 -7.365234,9.61914 -0.07934,0.0956 -3.382376,-1.96947 -7.339844,-4.58789 -3.957473,-2.61841 -7.870918,-5.06899 -8.697266,-5.44727 -1.285845,-0.58864 -19.446653,-5.45013 -19.568359,-5.23828 -7.071139,12.30868 -8.763672,15.32952 -8.763672,15.63672 0,0.20599 3.333536,3.65218 7.40625,7.66016 l 7.404297,7.28906 8.058594,3.94336 8.058593,3.94336 -0.683593,1.62109 c -0.376205,0.89115 -2.718725,6.54588 -5.205079,12.56641 -2.486349,6.02054 -4.683669,11.11896 -4.882812,11.33008 -0.20936,0.22194 -3.675025,-0.77422 -8.21875,-2.36133 L 40.351427,177.7183 H 29.235913 18.12263 l -2.285156,8.58008 c -1.25657,4.71861 -2.147158,8.6933 -1.978515,8.83398 1.553685,1.29612 17.181841,9.9917 18.804688,10.46289 1.159325,0.33661 5.390607,1.23062 9.404297,1.98633 4.01369,0.75572 7.323065,1.39613 7.353516,1.42383 0.17073,0.15507 -3.593331,27.33942 -3.816407,27.5625 -0.147691,0.14769 -4.322965,0.0213 -9.279297,-0.28125 l -9.011719,-0.55078 -9.900391,2.73632 -9.9023429,2.73438 v 9.05859 2.14649 H 104.17536 c -0.01,-0.71778 -0.0684,-1.42701 -0.0684,-2.14649 0,-39.9718 15.59038,-77.94298 43.51368,-105.97851 30.75254,-30.87613 71.33678,-46.575441 114.89257,-44.445311 28.40247,1.389031 56.50865,11.040761 79.08008,27.158201 35.34279,25.23701 57.34777,62.0809 62.85352,105.23633 0.59571,4.66932 0.82941,12.56463 0.76562,20.17578 h 96.82032 v -2.14649 -9.08593 l -9.88477,-2.72266 -9.88672,-2.72266 -9.02539,0.55274 c -4.96457,0.30307 -9.14916,0.42894 -9.29687,0.28125 -0.22018,-0.22019 -3.99377,-27.46056 -3.81446,-27.53516 0.0305,-0.0127 2.95265,-0.57207 6.49414,-1.24219 10.92286,-2.06684 11.42039,-2.25071 20.48047,-7.55468 4.55466,-2.66642 8.41923,-4.96283 8.58789,-5.10352 0.16861,-0.14068 -0.72241,-4.11537 -1.97851,-8.83398 l -2.28321,-8.58008 -10.38867,-0.11524 -10.39062,-0.11523 -8.60547,2.83984 c -4.73251,1.56162 -8.75746,2.67638 -8.94531,2.47657 -0.18785,-0.19982 -2.40969,-5.38682 -4.9375,-11.52539 -2.5278,-6.1386 -4.85953,-11.7988 -5.18164,-12.57813 l -0.58594,-1.41602 8.03711,-3.93359 8.03515,-3.93164 7.4043,-7.28906 c 4.07272,-4.00798 7.40625,-7.46928 7.40625,-7.69336 0,-0.22407 -1.96453,-3.81047 -4.36523,-7.96875 -2.40075,-4.15829 -4.3811,-7.5889 -4.4004,-7.625 -0.11173,-0.20892 -18.32246,4.65553 -19.5664,5.22656 -0.82635,0.37933 -4.74172,2.83081 -8.69922,5.44922 -3.95746,2.61842 -7.25859,4.68349 -7.33789,4.58789 -0.0793,-0.0956 -3.39434,-4.42495 -7.36523,-9.61914 -3.97091,-5.19419 -7.76621,-10.14554 -8.4336,-11.00391 l -1.21289,-1.56054 6.14258,-5.375 c 3.37802,-2.95612 6.70918,-6.02034 7.40234,-6.810551 0.69315,-0.79021 3.36325,-5.17422 5.93555,-9.742188 l 4.67773,-8.306641 -6.39453,-6.357422 -6.39258,-6.359375 -8.50586,4.841797 c -4.67772,2.662656 -9.18695,5.495584 -10.01953,6.294922 -0.83258,0.799334 -3.75045,4.016309 -6.48632,7.150391 -2.73588,3.134087 -5.12831,5.646821 -5.31641,5.582031 -0.76817,-0.264599 -21.47674,-16.347431 -21.6582,-16.820313 -0.10806,-0.281602 1.80947,-3.496752 4.26172,-7.144531 2.45223,-3.647779 4.75821,-7.217203 5.125,-7.93164 0.36679,-0.714432 1.76315,-5.520598 3.10156,-10.681641 2.0058,-7.734565 2.3334,-9.474958 1.86328,-9.902344 -0.3137,-0.285182 -3.84123,-2.397029 -7.83789,-4.691406 l -7.26758,-4.169922 -7.23633,7.216797 -7.23633,7.214844 -4.10937,8.15625 c -2.25941,4.485888 -4.17672,8.231745 -4.26172,8.322265 -0.11296,0.120235 -25.13751,-10.021281 -25.83203,-10.46875 -0.0586,-0.03774 1.19172,-3.819586 2.77734,-8.404296 l 2.88281,-8.335938 0.14454,-10.732422 0.14453,-10.732422 -8.50196,-2.261718 c -4.6761,-1.24388 -8.69358,-2.2533414 -8.92968,-2.2441414 -0.6654,0.02581 -10.21266,16.5214244 -10.87891,18.7968754 -0.32552,1.111772 -1.21857,5.261529 -1.98437,9.220703 -0.76581,3.959174 -1.50098,7.307616 -1.63477,7.441406 -0.19185,0.19185 -27.30681,-3.192727 -27.66406,-3.453125 -0.0508,-0.03703 0.1695,-3.825488 0.49023,-8.417968 0.35032,-5.016262 0.44304,-9.231253 0.23242,-10.558594 -0.29932,-1.886329 -2.00688,-8.349699 -4.55078,-17.2148444 l -0.64843,-2.2539057 h -8.95313 z" />
  <path
     id="path21"
     style="fill:url(#linearGradient22);fill-opacity:1;fill-rule:evenodd;stroke:url(#linearGradient28);stroke-width:2;stroke-linecap:round;stroke-linejoin:round;stroke-miterlimit:2.6;stroke-dasharray:none;stroke-opacity:1;paint-order:markers stroke fill;filter:url(#filter25)"
     d="m 245.39061,508.68683 -0.64648,-2.2539 c -2.5439,-8.86515 -4.25341,-15.32852 -4.55273,-17.21485 -0.21062,-1.32734 -0.1179,-5.54233 0.23242,-10.55859 0.32073,-4.59248 0.54103,-8.38585 0.49023,-8.42969 -0.29842,-0.25751 -27.47188,-3.63359 -27.66797,-3.4375 -0.13135,0.13135 -0.86406,3.48061 -1.6289,7.44141 -0.76483,3.96079 -1.64175,8.06808 -1.94727,9.12891 -0.63524,2.20568 -10.26477,18.86158 -10.91601,18.88085 -0.2361,0.007 -4.24397,-1.00216 -8.90625,-2.24414 l -8.47657,-2.25781 0.006,-10.08789 0.006,-10.08789 2.98438,-8.99219 c 1.64133,-4.94564 2.94047,-9.02101 2.88867,-9.05664 -0.59069,-0.40636 -25.70444,-10.57043 -25.81836,-10.44922 -0.0854,0.0909 -2.00231,3.83638 -4.26172,8.32227 l -4.10937,8.15625 -7.23633,7.21484 -7.23633,7.2168 -7.26758,-4.16992 c -3.99666,-2.29438 -7.52419,-4.40623 -7.83789,-4.69141 -0.47012,-0.42738 -0.14252,-2.16778 1.86328,-9.90234 1.33841,-5.16105 2.73288,-9.96721 3.09766,-10.68164 0.36478,-0.71444 2.6642,-4.26159 5.11133,-7.88086 2.44712,-3.61927 4.43863,-6.80566 4.42383,-7.08203 -0.0233,-0.43563 -20.84888,-16.61758 -21.79297,-16.9336 -0.19357,-0.0648 -2.5903,2.44795 -5.32618,5.58203 -2.73587,3.13409 -5.67089,6.36686 -6.52343,7.18555 -0.85254,0.81868 -5.361767,3.65333 -10.019529,6.29883 l -8.46875,4.81055 -6.39258,-6.36329 -6.39453,-6.36132 4.67774,-8.30664 c 2.5723,-4.56797 5.24239,-8.95198 5.93554,-9.74219 0.69316,-0.79021 4.02433,-3.85443 7.40235,-6.81055 l 6.14258,-5.375 -1.21289,-1.56054 c -0.6674,-0.85837 -4.46269,-5.80972 -8.4336,-11.00391 -3.9709,-5.19419 -7.28589,-9.52354 -7.36523,-9.61914 -0.0793,-0.0956 -3.38238,1.96947 -7.33985,4.58789 -3.95747,2.61841 -7.87091,5.06899 -8.69726,5.44727 -1.28585,0.58864 -19.44666,5.45013 -19.56836,5.23828 -7.07114,-12.30868 -8.76367,-15.32952 -8.76367,-15.63672 0,-0.20599 3.33353,-3.65218 7.40625,-7.66016 l 7.40429,-7.28906 8.0586,-3.94336 8.05859,-3.94336 -0.68359,-1.62109 c -0.37621,-0.89115 -2.71873,-6.54588 -5.20508,-12.56641 -2.48635,-6.02054 -4.68367,-11.11896 -4.88281,-11.33008 -0.20936,-0.22194 -3.67503,0.77422 -8.21875,2.36133 l -7.85938,2.74414 h -11.11551 -11.11329 l -2.28515,-8.58008 c -1.25657,-4.71861 -2.14716,-8.6933 -1.97852,-8.83398 1.55369,-1.29612 17.18184,-9.9917 18.80469,-10.46289 1.15933,-0.33661 5.39061,-1.23062 9.4043,-1.98633 4.01369,-0.75572 7.32306,-1.39613 7.35351,-1.42383 0.17073,-0.15507 -3.59333,-27.33942 -3.8164,-27.5625 -0.14769,-0.14769 -4.32297,-0.0213 -9.2793,0.28125 l -9.01172,0.55078 -9.90039,-2.73632 -9.9023393,-2.73438 v -9.05859 -2.14649 H 103.74608 c -0.01,0.71778 -0.0684,1.42701 -0.0684,2.14649 0,39.9718 15.59038,77.94298 43.51368,105.97851 30.75254,30.87613 71.33678,46.57544 114.89257,44.44531 28.40247,-1.38903 56.50865,-11.04076 79.08008,-27.1582 35.34279,-25.23701 57.34777,-62.0809 62.85352,-105.23633 0.59571,-4.66932 0.82941,-12.56463 0.76562,-20.17578 h 96.82032 v 2.14649 9.08593 l -9.88477,2.72266 -9.88672,2.72266 -9.02539,-0.55274 c -4.96457,-0.30307 -9.14916,-0.42894 -9.29687,-0.28125 -0.22018,0.22019 -3.99377,27.46056 -3.81446,27.53516 0.0305,0.0127 2.95265,0.57207 6.49414,1.24219 10.92286,2.06684 11.42039,2.25071 20.48047,7.55468 4.55466,2.66642 8.41923,4.96283 8.58789,5.10352 0.16861,0.14068 -0.72241,4.11537 -1.97851,8.83398 l -2.28321,8.58008 -10.38867,0.11524 -10.39062,0.11523 -8.60547,-2.83984 c -4.73251,-1.56162 -8.75746,-2.67638 -8.94531,-2.47657 -0.18785,0.19982 -2.40969,5.38682 -4.9375,11.52539 -2.5278,6.1386 -4.85953,11.7988 -5.18164,12.57813 l -0.58594,1.41602 8.03711,3.93359 8.03515,3.93164 7.4043,7.28906 c 4.07272,4.00798 7.40625,7.46928 7.40625,7.69336 0,0.22407 -1.96453,3.81047 -4.36523,7.96875 -2.40075,4.15829 -4.3811,7.5889 -4.4004,7.625 -0.11173,0.20892 -18.32246,-4.65553 -19.5664,-5.22656 -0.82635,-0.37933 -4.74172,-2.83081 -8.69922,-5.44922 -3.95746,-2.61842 -7.25859,-4.68349 -7.33789,-4.58789 -0.0793,0.0956 -3.39434,4.42495 -7.36523,9.61914 -3.97091,5.19419 -7.76621,10.14554 -8.4336,11.00391 l -1.21289,1.56054 6.14258,5.375 c 3.37802,2.95612 6.70918,6.02034 7.40234,6.81055 0.69315,0.79021 3.36325,5.17422 5.93555,9.74218 l 4.67773,8.30665 -6.39453,6.35742 -6.39258,6.35937 -8.50586,-4.84179 c -4.67772,-2.66266 -9.18695,-5.49559 -10.01953,-6.29493 -0.83258,-0.79933 -3.75045,-4.01631 -6.48632,-7.15039 -2.73588,-3.13408 -5.12831,-5.64682 -5.31641,-5.58203 -0.76817,0.2646 -21.47674,16.34743 -21.6582,16.82031 -0.10806,0.28161 1.80947,3.49676 4.26172,7.14454 2.45223,3.64777 4.75821,7.2172 5.125,7.93164 0.36679,0.71443 1.76315,5.52059 3.10156,10.68164 2.0058,7.73456 2.3334,9.47495 1.86328,9.90234 -0.3137,0.28518 -3.84123,2.39703 -7.83789,4.69141 l -7.26758,4.16992 -7.23633,-7.2168 -7.23633,-7.21484 -4.10937,-8.15625 c -2.25941,-4.48589 -4.17672,-8.23175 -4.26172,-8.32227 -0.11296,-0.12023 -25.13751,10.02128 -25.83203,10.46875 -0.0586,0.0377 1.19172,3.81959 2.77734,8.4043 l 2.88281,8.33594 0.14454,10.73242 0.14453,10.73242 -8.50196,2.26172 c -4.6761,1.24388 -8.69358,2.25334 -8.92968,2.24414 -0.6654,-0.0258 -10.21266,-16.52142 -10.87891,-18.79688 -0.32552,-1.11177 -1.21857,-5.26152 -1.98437,-9.2207 -0.76581,-3.95917 -1.50098,-7.30761 -1.63477,-7.4414 -0.19185,-0.19185 -27.30681,3.19272 -27.66406,3.45312 -0.0508,0.037 0.1695,3.82549 0.49023,8.41797 0.35032,5.01626 0.44304,9.23125 0.23242,10.55859 -0.29932,1.88633 -2.00688,8.3497 -4.55078,17.21485 l -0.64843,2.2539 h -8.95313 z" />
  <path
     style="fill:#6262f7;fill-opacity:1;fill-rule:evenodd;stroke:#000000;stroke-width:4.99097;stroke-linecap:square;stroke-linejoin:round;stroke-miterlimit:2.6;stroke-dasharray:none;stroke-opacity:1;paint-order:markers stroke fill"
     d="M 3.260063,255.73816 H 509.25559"
     id="path25" />
  <text
     xml:space="preserve"
     style="font-style:normal;font-variant:normal;font-weight:normal;font-stretch:normal;font-size:48.3087px;font-family:'FiraCode Nerd Font Mono';-inkscape-font-specification:'FiraCode Nerd Font Mono';text-align:center;writing-mode:lr-tb;direction:ltr;text-anchor:middle;fill:#000000;fill-opacity:1;fill-rule:evenodd;stroke:none;stroke-width:4.52894;stroke-linecap:square;stroke-linejoin:round;stroke-miterlimit:2.6;stroke-dasharray:none;stroke-opacity:1;paint-order:markers stroke fill"
     x="251.72989"
     y="238.46927"
     id="text28"><tspan
       sodipodi:role="line"
       id="tspan28"
       x="251.72989"
       y="238.46927"
       style="fill:#000000;fill-opacity:1;stroke:none;stroke-width:4.52894">libconfig</tspan></text>
  <path
     d="m 133.78197,-313.13649 v 30.14958 q 0,1.93235 1.18914,2.74988 1.21391,0.79276 3.12148,0.79276 1.16437,0 2.22963,-0.24773 1.09005,-0.24774 2.15532,-0.66889 l 1.11481,3.04716 q -1.06527,0.52025 -2.65078,0.91663 -1.56075,0.42115 -3.54264,0.42115 -3.46832,0 -5.62363,-1.90758 -2.15531,-1.93234 -2.15531,-5.32634 v -26.63172 h -8.0019 v -3.2949 z m 29.45594,-1.70938 q 1.38733,0 2.20486,0.8423 0.84231,0.84231 0.84231,2.05622 0,1.26346 -0.84231,2.13053 -0.81753,0.84231 -2.20486,0.84231 -1.313,0 -2.15531,-0.84231 -0.84231,-0.86707 -0.84231,-2.13053 0,-1.21391 0.84231,-2.05622 0.84231,-0.8423 2.15531,-0.8423 z m 3.31968,12.21343 v 22.79179 h 7.35778 v 3.2949 h -19.57121 v -3.2949 h 8.05145 v -19.49689 h -7.80372 v -3.2949 z m 20.68605,3.39399 q 1.4121,-1.8828 3.2949,-2.89852 1.90758,-1.0405 4.13721,-1.0405 3.49309,0 5.6484,1.68462 2.15531,1.68461 3.14626,4.75654 0.99095,3.04717 0.99095,7.13483 0,3.93902 -1.18914,7.03573 -1.16436,3.07193 -3.46832,4.83087 -2.30395,1.75893 -5.67317,1.75893 -4.53359,0 -7.11005,-3.27013 l -0.29729,2.70033 h -3.64173 v -36.59074 l 4.16198,-0.52025 z m 5.89614,19.89328 q 3.27013,0 5.02906,-2.52692 1.75893,-2.52692 1.75893,-7.75417 0,-10.20676 -6.14387,-10.20676 -2.18009,0 -3.83993,1.31301 -1.65983,1.28823 -2.70033,2.87375 v 12.93186 q 1.01572,1.56075 2.55169,2.47737 1.56074,0.89186 3.34445,0.89186 z m 31.46261,-0.22297 q 1.95712,0 3.64173,-0.61934 1.70939,-0.64411 3.14626,-1.65984 l 2.03144,2.72511 q -1.70938,1.46165 -4.11243,2.30395 -2.40305,0.84231 -4.707,0.84231 -3.88947,0 -6.63935,-1.65984 -2.72511,-1.68461 -4.16198,-4.707 -1.43688,-3.04716 -1.43688,-7.13482 0,-3.91425 1.43688,-7.01096 1.43687,-3.09671 4.18675,-4.88042 2.74988,-1.80848 6.66413,-1.80848 4.97951,0 8.72034,3.0224 l -2.03145,2.77465 q -3.39399,-2.32873 -6.73844,-2.32873 -3.36922,0 -5.54931,2.55169 -2.18008,2.52692 -2.18008,7.67985 0,5.22725 2.18008,7.58075 2.18009,2.32872 5.54931,2.32872 z m 27.87043,-23.60933 q 5.52453,0 8.34873,3.69128 2.8242,3.69129 2.8242,9.88471 0,3.98856 -1.28823,7.0605 -1.28823,3.07194 -3.79037,4.83087 -2.50215,1.73416 -6.14388,1.73416 -5.52453,0 -8.37351,-3.71605 -2.84897,-3.71606 -2.84897,-9.85993 0,-4.01334 1.28823,-7.08528 1.28823,-3.09671 3.79037,-4.8061 2.52692,-1.73416 6.19343,-1.73416 z m 0,3.394 q -3.36923,0 -5.10338,2.50214 -1.70939,2.50215 -1.70939,7.7294 0,5.1777 1.68461,7.67984 1.70939,2.47737 5.07861,2.47737 3.36922,0 5.05383,-2.50214 1.70939,-2.50215 1.70939,-7.70462 0,-5.20248 -1.68461,-7.67985 -1.68461,-2.50214 -5.02906,-2.50214 z m 19.79419,23.23772 v -26.08669 h 3.54264 l 0.32206,3.61695 q 1.58552,-2.00666 3.96379,-3.07193 2.37827,-1.09005 4.65745,-1.09005 3.83993,0 5.57408,2.03145 1.75894,2.03144 1.75894,5.6484 v 18.95187 h -4.16198 v -15.87993 q 0,-2.67556 -0.29729,-4.31063 -0.29728,-1.63506 -1.26346,-2.40304 -0.9414,-0.76799 -2.89852,-0.76799 -1.53597,0 -2.89852,0.66889 -1.33778,0.66889 -2.40305,1.68461 -1.04049,0.99095 -1.73416,2.00667 v 19.00142 z m 45.13769,-37.11099 q 2.10577,0 3.81515,0.37161 1.70939,0.3716 3.24536,1.04049 l -1.33778,3.09671 q -1.26346,-0.54502 -2.70034,-0.81753 -1.4121,-0.27251 -2.89852,-0.27251 -5.47498,0 -5.47498,4.3354 v 5.30157 h 8.84421 l -0.44593,3.27013 h -8.39828 v 20.78512 h -4.16198 v -20.78512 h -6.2182 v -3.27013 h 6.2182 v -5.20248 q 0,-2.42782 1.23868,-4.18675 1.26346,-1.75893 3.41877,-2.70033 2.15531,-0.96618 4.85564,-0.96618 z m 24.20393,0.61934 q 1.38732,0 2.20485,0.84231 0.84231,0.84231 0.84231,2.05622 0,1.26346 -0.84231,2.13053 -0.81753,0.84231 -2.20485,0.84231 -1.31301,0 -2.15532,-0.84231 -0.8423,-0.86707 -0.8423,-2.13053 0,-1.21391 0.8423,-2.05622 0.84231,-0.84231 2.15532,-0.84231 z m 3.31967,12.4364 v 20.76035 h 7.35779 v 3.2949 h -19.57122 v -3.2949 h 8.05145 v -17.49022 h -7.80371 v -3.27013 z m 37.73036,-4.8061 1.28823,3.91425 q -1.68461,0.52024 -3.56741,0.64411 -1.85803,0.12387 -4.06289,0.12387 4.53359,2.08099 4.53359,6.56503 0,3.86469 -2.60124,6.36684 -2.57646,2.50214 -7.20914,2.50214 -1.31301,0 -2.20486,-0.12387 -0.86708,-0.12387 -1.68461,-0.3716 -0.59457,0.42115 -0.99095,1.11481 -0.37161,0.66889 -0.37161,1.4121 0,0.9414 0.74321,1.56075 0.74321,0.61934 2.74988,0.61934 h 4.70701 q 2.62601,0 4.707,0.9414 2.08099,0.9414 3.2949,2.55169 1.21391,1.58552 1.21391,3.59218 0,3.83993 -3.27013,5.89614 -3.24535,2.05622 -9.19104,2.05622 -4.16198,0 -6.56503,-0.86708 -2.40305,-0.8423 -3.44354,-2.60124 -1.01572,-1.73416 -1.01572,-4.38494 h 3.7656 q 0,1.51119 0.59457,2.50214 0.59457,0.99095 2.15531,1.46165 1.56074,0.49547 4.48404,0.49547 4.31062,0 6.29252,-1.09004 1.98189,-1.06527 1.98189,-3.1958 0,-1.85803 -1.68461,-2.79943 -1.68461,-0.9414 -4.21153,-0.9414 h -4.65745 q -3.394,0 -4.97951,-1.48642 -1.58552,-1.48643 -1.58552,-3.41877 0,-2.67556 2.87375,-4.55836 -4.38495,-2.32873 -4.38495,-7.20915 0,-2.65078 1.31301,-4.68223 1.31301,-2.05621 3.66651,-3.22058 2.3535,-1.16436 5.42544,-1.16436 3.2949,0 5.35111,-0.27251 2.05622,-0.27251 3.51787,-0.76798 1.48642,-0.49548 3.02239,-1.16437 z m -11.89137,5.25203 q -3.14626,0 -4.65746,1.70938 -1.48642,1.70938 -1.48642,4.31062 0,2.65079 1.51119,4.36017 1.53597,1.70939 4.73178,1.70939 2.74988,0 4.21153,-1.61029 1.46165,-1.61029 1.46165,-4.48404 0,-5.99523 -5.77227,-5.99523 z"
     id="text29"
     style="font-size:48.3087px;font-family:'FiraCode Nerd Font Mono';-inkscape-font-specification:'FiraCode Nerd Font Mono';text-align:center;text-anchor:middle;fill:url(#linearGradient32);fill-rule:evenodd;stroke:none;stroke-width:4.52894;stroke-linecap:square;stroke-linejoin:round;stroke-miterlimit:2.6;paint-order:markers stroke fill;filter:url(#filter29)"
     transform="scale(1,-1)"
     aria-label="libconfig" />
</svg>
