<?xml version="1.0" encoding="UTF-8" standalone="no"?>
<!DOCTYPE svg PUBLIC "-//W3C//DTD SVG 1.1//EN"
 "http://www.w3.org/Graphics/SVG/1.1/DTD/svg11.dtd">
<!-- Generated by graphviz version 14.1.2 (20260124.0452)
 -->
<!-- Title: src/config/include/fourdst/config/base.h Pages: 1 -->
<!--zoomable 216 -->

<svg id="main" version="1.1" xmlns="http://www.w3.org/2000/svg" xmlns:xlink="http://www.w3.org/1999/xlink" xml:space="preserve" onload="init(evt)">

<style type="text/css"><![CDATA[
.node, .edge {opacity: 0.7;}
.node.selected, .edge.selected {opacity: 1;}
.edge:hover path { stroke: red; }
.edge:hover polygon { stroke: red; fill: red; }
]]></style>

<defs>
  <circle id="rim" cx="0" cy="0" r="7"/>
  <circle id="rim2" cx="0" cy="0" r="3.5"/>
  <g id="zoomPlus">
    <use xlink:href="#rim" fill="#404040"><set attributeName="fill" to="#808080" begin="zoomplus.mouseover" end="zoomplus.mouseout"/></use>
    <path d="M-4,0h8M0,-4v8" fill="none" stroke="white" stroke-width="1.5" pointer-events="none"/>
  </g>
  <g id="zoomMin">
    <use xlink:href="#rim" fill="#404040"><set attributeName="fill" to="#808080" begin="zoomminus.mouseover" end="zoomminus.mouseout"/></use>
    <path d="M-4,0h8" fill="none" stroke="white" stroke-width="1.5" pointer-events="none"/>
  </g>
  <g id="arrowUp" transform="translate(30 24)">
    <use xlink:href="#rim"/>
    <path pointer-events="none" fill="none" stroke="white" stroke-width="1.5" d="M0,-3.0v7 M-2.5,-0.5L0,-3.0L2.5,-0.5"/>
  </g>
  <g id="arrowRight" transform="rotate(90) translate(36 -43)">
    <use xlink:href="#rim"/>
    <path pointer-events="none" fill="none" stroke="white" stroke-width="1.5" d="M0,-3.0v7 M-2.5,-0.5L0,-3.0L2.5,-0.5"/>
  </g>
  <g id="arrowDown" transform="rotate(180) translate(-30 -48)">
    <use xlink:href="#rim"/>
    <path pointer-events="none" fill="none" stroke="white" stroke-width="1.5" d="M0,-3.0v7 M-2.5,-0.5L0,-3.0L2.5,-0.5"/>
  </g>
  <g id="arrowLeft" transform="rotate(270) translate(-36 17)">
    <use xlink:href="#rim"/>
    <path pointer-events="none" fill="none" stroke="white" stroke-width="1.5" d="M0,-3.0v7 M-2.5,-0.5L0,-3.0L2.5,-0.5"/>
  </g>
  <g id="resetDef">
    <use xlink:href="#rim2" fill="#404040"><set attributeName="fill" to="#808080" begin="reset.mouseover" end="reset.mouseout"/></use>
  </g>
</defs>
<script type="application/ecmascript">
var viewWidth = 1329;
var viewHeight = 216;
var sectionId = 'dynsection-0';
</script>
<script type="application/ecmascript" xlink:href="svg.min.js"/>
<svg id="graph" class="graph">
<g id="viewport">
<title>src/config/include/fourdst/config/base.h</title>
<!-- Node1 -->
<g id="Node000001" class="node">
<title>Node1</title>
<g id="a_Node000001"><a xlink:title="Core configuration management classes and concepts.">
<polygon fill="#999999" stroke="#666666" points="908.62,-207.5 798.12,-207.5 798.12,-177 908.62,-177 908.62,-207.5"/>
<text xml:space="preserve" text-anchor="start" x="806.12" y="-194" font-family="Helvetica,sans-Serif" font-size="10.00">src/config/include</text>
<text xml:space="preserve" text-anchor="middle" x="853.38" y="-182.75" font-family="Helvetica,sans-Serif" font-size="10.00">/fourdst/config/base.h</text>
</a>
</g>
</g>
<!-- Node2 -->
<g id="Node000002" class="node">
<title>Node2</title>
<g id="a_Node000002"><a xlink:title=" ">
<polygon fill="#e0e0e0" stroke="#999999" points="295.88,-135.38 234.88,-135.38 234.88,-116.12 295.88,-116.12 295.88,-135.38"/>
<text xml:space="preserve" text-anchor="middle" x="265.38" y="-121.88" font-family="Helvetica,sans-Serif" font-size="10.00">filesystem</text>
</a>
</g>
</g>
<!-- Node1&#45;&gt;Node2 -->
<g id="edge1_Node000001_Node000002" class="edge">
<title>Node1&#45;&gt;Node2</title>
<g id="a_edge1_Node000001_Node000002"><a xlink:title=" ">
<path fill="none" stroke="#63b8ff" d="M797.7,-190.02C698.71,-186.98 485.99,-176.5 310.38,-141 307.56,-140.43 304.68,-139.75 301.8,-139"/>
<polygon fill="#63b8ff" stroke="#63b8ff" points="302.86,-135.67 292.28,-136.27 300.93,-142.39 302.86,-135.67"/>
</a>
</g>
</g>
<!-- Node3 -->
<g id="Node000003" class="node">
<title>Node3</title>
<g id="a_Node000003"><a xlink:title=" ">
<polygon fill="#e0e0e0" stroke="#999999" points="739.38,-19.25 699.38,-19.25 699.38,0 739.38,0 739.38,-19.25"/>
<text xml:space="preserve" text-anchor="middle" x="719.38" y="-5.75" font-family="Helvetica,sans-Serif" font-size="10.00">string</text>
</a>
</g>
</g>
<!-- Node1&#45;&gt;Node3 -->
<g id="edge2_Node000001_Node000003" class="edge">
<title>Node1&#45;&gt;Node3</title>
<g id="a_edge2_Node000001_Node000003"><a xlink:title=" ">
<path fill="none" stroke="#63b8ff" d="M908.89,-185.74C964.77,-178.91 1045.32,-165.12 1064.38,-141 1079.78,-121.49 1049.93,-57.42 1047.38,-55.25 1003.07,-17.65 824.06,-11.61 750.83,-10.73"/>
<polygon fill="#63b8ff" stroke="#63b8ff" points="751.17,-7.23 741.14,-10.64 751.11,-14.23 751.17,-7.23"/>
</a>
</g>
</g>
<!-- Node4 -->
<g id="Node000004" class="node">
<title>Node4</title>
<g id="a_Node000004"><a xlink:title=" ">
<polygon fill="#e0e0e0" stroke="#999999" points="34.75,-74.5 0,-74.5 0,-55.25 34.75,-55.25 34.75,-74.5"/>
<text xml:space="preserve" text-anchor="middle" x="17.38" y="-61" font-family="Helvetica,sans-Serif" font-size="10.00">map</text>
</a>
</g>
</g>
<!-- Node1&#45;&gt;Node4 -->
<g id="edge3_Node000001_Node000004" class="edge">
<title>Node1&#45;&gt;Node4</title>
<g id="a_edge3_Node000001_Node000004"><a xlink:title=" ">
<path fill="none" stroke="#63b8ff" d="M797.71,-190.17C682.01,-187.23 419.58,-176.7 338.38,-141 319.79,-132.83 322.79,-119.04 304.38,-110.5 201.46,-62.79 160.03,-98.65 46.38,-74.75"/>
<polygon fill="#63b8ff" stroke="#63b8ff" points="47.15,-71.34 36.63,-72.58 45.63,-78.17 47.15,-71.34"/>
</a>
</g>
</g>
<!-- Node5 -->
<g id="Node000005" class="node">
<title>Node5</title>
<g id="a_Node000005"><a xlink:title=" ">
<polygon fill="#e0e0e0" stroke="#999999" points="96.25,-74.5 52.5,-74.5 52.5,-55.25 96.25,-55.25 96.25,-74.5"/>
<text xml:space="preserve" text-anchor="middle" x="74.38" y="-61" font-family="Helvetica,sans-Serif" font-size="10.00">format</text>
</a>
</g>
</g>
<!-- Node1&#45;&gt;Node5 -->
<g id="edge4_Node000001_Node000005" class="edge">
<title>Node1&#45;&gt;Node5</title>
<g id="a_edge4_Node000001_Node000005"><a xlink:title=" ">
<path fill="none" stroke="#63b8ff" d="M797.82,-189.32C688.91,-184.89 451.45,-171.92 376.38,-141 356.35,-132.75 358.2,-119.22 338.38,-110.5 245.35,-69.57 209.61,-95.19 107.65,-74.93"/>
<polygon fill="#63b8ff" stroke="#63b8ff" points="108.56,-71.54 98.06,-72.91 107.12,-78.39 108.56,-71.54"/>
</a>
</g>
</g>
<!-- Node6 -->
<g id="Node000006" class="node">
<title>Node6</title>
<g id="a_Node000006"><a xlink:title=" ">
<polygon fill="#e0e0e0" stroke="#999999" points="156.88,-74.5 113.88,-74.5 113.88,-55.25 156.88,-55.25 156.88,-74.5"/>
<text xml:space="preserve" text-anchor="middle" x="135.38" y="-61" font-family="Helvetica,sans-Serif" font-size="10.00">vector</text>
</a>
</g>
</g>
<!-- Node1&#45;&gt;Node6 -->
<g id="edge5_Node000001_Node000006" class="edge">
<title>Node1&#45;&gt;Node6</title>
<g id="a_edge5_Node000001_Node000006"><a xlink:title=" ">
<path fill="none" stroke="#63b8ff" d="M797.92,-188.73C695.85,-183.48 482.43,-169.39 414.38,-141 394.39,-132.66 396.13,-119.38 376.38,-110.5 292.92,-72.96 260.6,-93.92 168.49,-74.92"/>
<polygon fill="#63b8ff" stroke="#63b8ff" points="169.25,-71.51 158.74,-72.79 167.76,-78.34 169.25,-71.51"/>
</a>
</g>
</g>
<!-- Node7 -->
<g id="Node000007" class="node">
<title>Node7</title>
<g id="a_Node000007"><a xlink:title=" ">
<polygon fill="#e0e0e0" stroke="#999999" points="240.12,-74.5 174.62,-74.5 174.62,-55.25 240.12,-55.25 240.12,-74.5"/>
<text xml:space="preserve" text-anchor="middle" x="207.38" y="-61" font-family="Helvetica,sans-Serif" font-size="10.00">string_view</text>
</a>
</g>
</g>
<!-- Node1&#45;&gt;Node7 -->
<g id="edge6_Node000001_Node000007" class="edge">
<title>Node1&#45;&gt;Node7</title>
<g id="a_edge6_Node000001_Node000007"><a xlink:title=" ">
<path fill="none" stroke="#63b8ff" d="M797.99,-187.56C704.17,-180.75 518.23,-164.72 457.38,-141 435.54,-132.49 435.82,-119.94 414.38,-110.5 410.61,-108.84 310.94,-87.69 251.3,-75.12"/>
<polygon fill="#63b8ff" stroke="#63b8ff" points="252.29,-71.75 241.79,-73.11 250.85,-78.6 252.29,-71.75"/>
</a>
</g>
</g>
<!-- Node8 -->
<g id="Node000008" class="node">
<title>Node8</title>
<g id="a_Node000008"><a xlink:title=" ">
<polygon fill="#e0e0e0" stroke="#999999" points="884.25,-74.5 822.5,-74.5 822.5,-55.25 884.25,-55.25 884.25,-74.5"/>
<text xml:space="preserve" text-anchor="middle" x="853.38" y="-61" font-family="Helvetica,sans-Serif" font-size="10.00">type_traits</text>
</a>
</g>
</g>
<!-- Node1&#45;&gt;Node8 -->
<g id="edge7_Node000001_Node000008" class="edge">
<title>Node1&#45;&gt;Node8</title>
<g id="a_edge7_Node000001_Node000008"><a xlink:title=" ">
<path fill="none" stroke="#63b8ff" d="M853.38,-176.87C853.38,-154.53 853.38,-111.42 853.38,-86"/>
<polygon fill="#63b8ff" stroke="#63b8ff" points="856.88,-86.33 853.38,-76.33 849.88,-86.33 856.88,-86.33"/>
</a>
</g>
</g>
<!-- Node9 -->
<g id="Node000009" class="node">
<title>Node9</title>
<g id="a_Node000009"><a xlink:title=" ">
<polygon fill="#e0e0e0" stroke="#999999" points="1156.88,-135.38 1113.88,-135.38 1113.88,-116.12 1156.88,-116.12 1156.88,-135.38"/>
<text xml:space="preserve" text-anchor="middle" x="1135.38" y="-121.88" font-family="Helvetica,sans-Serif" font-size="10.00">mutex</text>
</a>
</g>
</g>
<!-- Node1&#45;&gt;Node9 -->
<g id="edge8_Node000001_Node000009" class="edge">
<title>Node1&#45;&gt;Node9</title>
<g id="a_edge8_Node000001_Node000009"><a xlink:title=" ">
<path fill="none" stroke="#63b8ff" d="M908.77,-182.79C959.08,-174.44 1035.03,-160.14 1099.38,-141 1100.75,-140.59 1102.15,-140.15 1103.56,-139.69"/>
<polygon fill="#63b8ff" stroke="#63b8ff" points="1104.63,-143.02 1112.85,-136.33 1102.25,-136.44 1104.63,-143.02"/>
</a>
</g>
</g>
<!-- Node10 -->
<g id="Node000010" class="node">
<title>Node10</title>
<g id="a_Node000010"><a xlink:href="exceptions_8h.html" target="_top" xlink:title="Exception classes for the configuration library.">
<polygon fill="white" stroke="#666666" points="1055.12,-141 929.62,-141 929.62,-110.5 1055.12,-110.5 1055.12,-141"/>
<text xml:space="preserve" text-anchor="start" x="937.62" y="-127.5" font-family="Helvetica,sans-Serif" font-size="10.00">fourdst/config/exceptions</text>
<text xml:space="preserve" text-anchor="middle" x="992.38" y="-116.25" font-family="Helvetica,sans-Serif" font-size="10.00">/exceptions.h</text>
</a>
</g>
</g>
<!-- Node1&#45;&gt;Node10 -->
<g id="edge9_Node000001_Node000010" class="edge">
<title>Node1&#45;&gt;Node10</title>
<g id="a_edge9_Node000001_Node000010"><a xlink:title=" ">
<path fill="none" stroke="#63b8ff" d="M884.92,-176.61C904.38,-167.58 929.56,-155.9 950.66,-146.11"/>
<polygon fill="#63b8ff" stroke="#63b8ff" points="951.99,-149.35 959.59,-141.97 949.04,-143 951.99,-149.35"/>
</a>
</g>
</g>
<!-- Node12 -->
<g id="Node000012" class="node">
<title>Node12</title>
<g id="a_Node000012"><a xlink:href="validate_8h.html" target="_top" xlink:title=" ">
<polygon fill="white" stroke="#666666" points="586.5,-135.38 466.25,-135.38 466.25,-116.12 586.5,-116.12 586.5,-135.38"/>
<text xml:space="preserve" text-anchor="middle" x="526.38" y="-121.88" font-family="Helvetica,sans-Serif" font-size="10.00">fourdst/config/validate.h</text>
</a>
</g>
</g>
<!-- Node1&#45;&gt;Node12 -->
<g id="edge12_Node000001_Node000012" class="edge">
<title>Node1&#45;&gt;Node12</title>
<g id="a_edge12_Node000001_Node000012"><a xlink:title=" ">
<path fill="none" stroke="#63b8ff" d="M797.9,-180.31C738.33,-168.56 644.13,-149.98 583.81,-138.08"/>
<polygon fill="#63b8ff" stroke="#63b8ff" points="584.56,-134.66 574.07,-136.16 583.21,-141.53 584.56,-134.66"/>
</a>
</g>
</g>
<!-- Node16 -->
<g id="Node000016" class="node">
<title>Node16</title>
<g id="a_Node000016"><a xlink:title=" ">
<polygon fill="#e0e0e0" stroke="#999999" points="944.88,-74.5 901.88,-74.5 901.88,-55.25 944.88,-55.25 944.88,-74.5"/>
<text xml:space="preserve" text-anchor="middle" x="923.38" y="-61" font-family="Helvetica,sans-Serif" font-size="10.00">rfl.hpp</text>
</a>
</g>
</g>
<!-- Node1&#45;&gt;Node16 -->
<g id="edge29_Node000001_Node000016" class="edge">
<title>Node1&#45;&gt;Node16</title>
<g id="a_edge29_Node000001_Node000016"><a xlink:title=" ">
<path fill="none" stroke="#63b8ff" d="M861.4,-176.87C874.11,-154.12 898.83,-109.84 912.9,-84.63"/>
<polygon fill="#63b8ff" stroke="#63b8ff" points="915.82,-86.58 917.64,-76.14 909.71,-83.17 915.82,-86.58"/>
</a>
</g>
</g>
<!-- Node22 -->
<g id="Node000022" class="node">
<title>Node22</title>
<g id="a_Node000022"><a xlink:title=" ">
<polygon fill="#e0e0e0" stroke="#999999" points="1239.75,-135.38 1175,-135.38 1175,-116.12 1239.75,-116.12 1239.75,-135.38"/>
<text xml:space="preserve" text-anchor="middle" x="1207.38" y="-121.88" font-family="Helvetica,sans-Serif" font-size="10.00">rfl/toml.hpp</text>
</a>
</g>
</g>
<!-- Node1&#45;&gt;Node22 -->
<g id="edge30_Node000001_Node000022" class="edge">
<title>Node1&#45;&gt;Node22</title>
<g id="a_edge30_Node000001_Node000022"><a xlink:title=" ">
<path fill="none" stroke="#63b8ff" d="M909.1,-185.3C972.16,-177.87 1077.65,-163.36 1166.38,-141 1168.51,-140.46 1170.7,-139.86 1172.89,-139.22"/>
<polygon fill="#63b8ff" stroke="#63b8ff" points="1173.84,-142.59 1182.3,-136.21 1171.71,-135.92 1173.84,-142.59"/>
</a>
</g>
</g>
<!-- Node23 -->
<g id="Node000023" class="node">
<title>Node23</title>
<g id="a_Node000023"><a xlink:title=" ">
<polygon fill="#e0e0e0" stroke="#999999" points="1321.38,-135.38 1257.38,-135.38 1257.38,-116.12 1321.38,-116.12 1321.38,-135.38"/>
<text xml:space="preserve" text-anchor="middle" x="1289.38" y="-121.88" font-family="Helvetica,sans-Serif" font-size="10.00">rfl/json.hpp</text>
</a>
</g>
</g>
<!-- Node1&#45;&gt;Node23 -->
<g id="edge31_Node000001_Node000023" class="edge">
<title>Node1&#45;&gt;Node23</title>
<g id="a_edge31_Node000001_Node000023"><a xlink:title=" ">
<path fill="none" stroke="#63b8ff" d="M908.97,-187.83C986.03,-182.28 1129.25,-168.96 1248.38,-141 1250.67,-140.46 1253.01,-139.84 1255.36,-139.17"/>
<polygon fill="#63b8ff" stroke="#63b8ff" points="1256.28,-142.55 1264.76,-136.2 1254.17,-135.88 1256.28,-142.55"/>
</a>
</g>
</g>
<!-- Node10&#45;&gt;Node3 -->
<g id="edge11_Node000010_Node000003" class="edge">
<title>Node10&#45;&gt;Node3</title>
<g id="a_edge11_Node000010_Node000003"><a xlink:title=" ">
<path fill="none" stroke="#63b8ff" d="M1010.18,-110.05C1026.11,-95.16 1044.88,-71.98 1030.38,-55.25 994.41,-13.75 822.63,-9.93 750.92,-10.18"/>
<polygon fill="#63b8ff" stroke="#63b8ff" points="751.02,-6.68 741.04,-10.25 751.07,-13.68 751.02,-6.68"/>
</a>
</g>
</g>
<!-- Node11 -->
<g id="Node000011" class="node">
<title>Node11</title>
<g id="a_Node000011"><a xlink:title=" ">
<polygon fill="#e0e0e0" stroke="#999999" points="1021.75,-74.5 963,-74.5 963,-55.25 1021.75,-55.25 1021.75,-74.5"/>
<text xml:space="preserve" text-anchor="middle" x="992.38" y="-61" font-family="Helvetica,sans-Serif" font-size="10.00">stdexcept</text>
</a>
</g>
</g>
<!-- Node10&#45;&gt;Node11 -->
<g id="edge10_Node000010_Node000011" class="edge">
<title>Node10&#45;&gt;Node11</title>
<g id="a_edge10_Node000010_Node000011"><a xlink:title=" ">
<path fill="none" stroke="#63b8ff" d="M992.38,-110.2C992.38,-102.96 992.38,-94.09 992.38,-86.19"/>
<polygon fill="#63b8ff" stroke="#63b8ff" points="995.88,-86.46 992.38,-76.46 988.88,-86.46 995.88,-86.46"/>
</a>
</g>
</g>
<!-- Node12&#45;&gt;Node3 -->
<g id="edge19_Node000012_Node000003" class="edge">
<title>Node12&#45;&gt;Node3</title>
<g id="a_edge19_Node000012_Node000003"><a xlink:title=" ">
<path fill="none" stroke="#63b8ff" d="M482.47,-115.72C439.49,-104.94 383.93,-84.62 409.38,-55.25 445.22,-13.88 616.45,-9.98 687.93,-10.2"/>
<polygon fill="#63b8ff" stroke="#63b8ff" points="687.75,-13.7 697.77,-10.26 687.79,-6.7 687.75,-13.7"/>
</a>
</g>
</g>
<!-- Node12&#45;&gt;Node4 -->
<g id="edge26_Node000012_Node000004" class="edge">
<title>Node12&#45;&gt;Node4</title>
<g id="a_edge26_Node000012_Node000004"><a xlink:title=" ">
<path fill="none" stroke="#63b8ff" d="M466.18,-120.13C359.67,-111.68 141.03,-93.12 46.32,-74.64"/>
<polygon fill="#63b8ff" stroke="#63b8ff" points="47.12,-71.23 36.62,-72.64 45.7,-78.09 47.12,-71.23"/>
</a>
</g>
</g>
<!-- Node12&#45;&gt;Node5 -->
<g id="edge23_Node000012_Node000005" class="edge">
<title>Node12&#45;&gt;Node5</title>
<g id="a_edge23_Node000012_Node000005"><a xlink:title=" ">
<path fill="none" stroke="#63b8ff" d="M466.07,-118.78C371.09,-109.19 189.73,-90.04 107.69,-74.85"/>
<polygon fill="#63b8ff" stroke="#63b8ff" points="108.53,-71.45 98.04,-72.97 107.19,-78.32 108.53,-71.45"/>
</a>
</g>
</g>
<!-- Node12&#45;&gt;Node6 -->
<g id="edge21_Node000012_Node000006" class="edge">
<title>Node12&#45;&gt;Node6</title>
<g id="a_edge21_Node000012_Node000006"><a xlink:title=" ">
<path fill="none" stroke="#63b8ff" d="M465.85,-116.8C378.16,-105.22 221.18,-84.22 168.33,-74.71"/>
<polygon fill="#63b8ff" stroke="#63b8ff" points="169.21,-71.31 158.73,-72.84 167.87,-78.18 169.21,-71.31"/>
</a>
</g>
</g>
<!-- Node12&#45;&gt;Node7 -->
<g id="edge20_Node000012_Node000007" class="edge">
<title>Node12&#45;&gt;Node7</title>
<g id="a_edge20_Node000012_Node000007"><a xlink:title=" ">
<path fill="none" stroke="#63b8ff" d="M479.81,-115.68C470.72,-113.93 461.25,-112.14 452.38,-110.5 365.79,-94.49 341.26,-91.91 251.63,-74.89"/>
<polygon fill="#63b8ff" stroke="#63b8ff" points="252.34,-71.46 241.86,-73.02 251.03,-78.34 252.34,-71.46"/>
</a>
</g>
</g>
<!-- Node12&#45;&gt;Node8 -->
<g id="edge24_Node000012_Node000008" class="edge">
<title>Node12&#45;&gt;Node8</title>
<g id="a_edge24_Node000012_Node000008"><a xlink:title=" ">
<path fill="none" stroke="#63b8ff" d="M582.05,-115.66C637.53,-106.46 725.43,-91.48 811.14,-74.87"/>
<polygon fill="#63b8ff" stroke="#63b8ff" points="811.76,-78.32 820.91,-72.97 810.42,-71.45 811.76,-78.32"/>
</a>
</g>
</g>
<!-- Node13 -->
<g id="Node000013" class="node">
<title>Node13</title>
<g id="a_Node000013"><a xlink:href="ansi_8h.html" target="_top" xlink:title=" ">
<polygon fill="white" stroke="#666666" points="362.62,-74.5 258.12,-74.5 258.12,-55.25 362.62,-55.25 362.62,-74.5"/>
<text xml:space="preserve" text-anchor="middle" x="310.38" y="-61" font-family="Helvetica,sans-Serif" font-size="10.00">fourdst/config/ansi.h</text>
</a>
</g>
</g>
<!-- Node12&#45;&gt;Node13 -->
<g id="edge13_Node000012_Node000013" class="edge">
<title>Node12&#45;&gt;Node13</title>
<g id="a_edge13_Node000012_Node000013"><a xlink:title=" ">
<path fill="none" stroke="#63b8ff" d="M493.1,-115.68C456,-105.57 395.82,-89.16 354.74,-77.97"/>
<polygon fill="#63b8ff" stroke="#63b8ff" points="355.72,-74.61 345.15,-75.35 353.88,-81.36 355.72,-74.61"/>
</a>
</g>
</g>
<!-- Node12&#45;&gt;Node16 -->
<g id="edge17_Node000012_Node000016" class="edge">
<title>Node12&#45;&gt;Node16</title>
<g id="a_edge17_Node000012_Node000016"><a xlink:title=" ">
<path fill="none" stroke="#63b8ff" d="M586.91,-119.16C657.68,-112.02 778.46,-97.99 890.36,-74.89"/>
<polygon fill="#63b8ff" stroke="#63b8ff" points="890.96,-78.34 900.03,-72.87 889.52,-71.49 890.96,-78.34"/>
</a>
</g>
</g>
<!-- Node17 -->
<g id="Node000017" class="node">
<title>Node17</title>
<g id="a_Node000017"><a xlink:title=" ">
<polygon fill="#e0e0e0" stroke="#999999" points="564.75,-74.5 488,-74.5 488,-55.25 564.75,-55.25 564.75,-74.5"/>
<text xml:space="preserve" text-anchor="middle" x="526.38" y="-61" font-family="Helvetica,sans-Serif" font-size="10.00">toml++/toml.h</text>
</a>
</g>
</g>
<!-- Node12&#45;&gt;Node17 -->
<g id="edge18_Node000012_Node000017" class="edge">
<title>Node12&#45;&gt;Node17</title>
<g id="a_edge18_Node000012_Node000017"><a xlink:title=" ">
<path fill="none" stroke="#63b8ff" d="M526.38,-115.81C526.38,-108.03 526.38,-96.45 526.38,-86.41"/>
<polygon fill="#63b8ff" stroke="#63b8ff" points="529.88,-86.41 526.38,-76.41 522.88,-86.41 529.88,-86.41"/>
</a>
</g>
</g>
<!-- Node18 -->
<g id="Node000018" class="node">
<title>Node18</title>
<g id="a_Node000018"><a xlink:title=" ">
<polygon fill="#e0e0e0" stroke="#999999" points="636.12,-74.5 582.62,-74.5 582.62,-55.25 636.12,-55.25 636.12,-74.5"/>
<text xml:space="preserve" text-anchor="middle" x="609.38" y="-61" font-family="Helvetica,sans-Serif" font-size="10.00">iostream</text>
</a>
</g>
</g>
<!-- Node12&#45;&gt;Node18 -->
<g id="edge22_Node000012_Node000018" class="edge">
<title>Node12&#45;&gt;Node18</title>
<g id="a_edge22_Node000012_Node000018"><a xlink:title=" ">
<path fill="none" stroke="#63b8ff" d="M538.98,-115.81C551.78,-106.73 571.85,-92.49 587.29,-81.54"/>
<polygon fill="#63b8ff" stroke="#63b8ff" points="589.28,-84.42 595.42,-75.78 585.23,-78.71 589.28,-84.42"/>
</a>
</g>
</g>
<!-- Node19 -->
<g id="Node000019" class="node">
<title>Node19</title>
<g id="a_Node000019"><a xlink:title=" ">
<polygon fill="#e0e0e0" stroke="#999999" points="704.25,-74.5 654.5,-74.5 654.5,-55.25 704.25,-55.25 704.25,-74.5"/>
<text xml:space="preserve" text-anchor="middle" x="679.38" y="-61" font-family="Helvetica,sans-Serif" font-size="10.00">optional</text>
</a>
</g>
</g>
<!-- Node12&#45;&gt;Node19 -->
<g id="edge25_Node000012_Node000019" class="edge">
<title>Node12&#45;&gt;Node19</title>
<g id="a_edge25_Node000012_Node000019"><a xlink:title=" ">
<path fill="none" stroke="#63b8ff" d="M549.95,-115.68C575.44,-105.87 616.32,-90.14 645.31,-78.98"/>
<polygon fill="#63b8ff" stroke="#63b8ff" points="646.29,-82.36 654.36,-75.5 643.77,-75.82 646.29,-82.36"/>
</a>
</g>
</g>
<!-- Node20 -->
<g id="Node000020" class="node">
<title>Node20</title>
<g id="a_Node000020"><a xlink:title=" ">
<polygon fill="#e0e0e0" stroke="#999999" points="804.75,-74.5 722,-74.5 722,-55.25 804.75,-55.25 804.75,-74.5"/>
<text xml:space="preserve" text-anchor="middle" x="763.38" y="-61" font-family="Helvetica,sans-Serif" font-size="10.00">unordered_map</text>
</a>
</g>
</g>
<!-- Node12&#45;&gt;Node20 -->
<g id="edge27_Node000012_Node000020" class="edge">
<title>Node12&#45;&gt;Node20</title>
<g id="a_edge27_Node000012_Node000020"><a xlink:title=" ">
<path fill="none" stroke="#63b8ff" d="M562.89,-115.68C603.94,-105.48 670.76,-88.88 715.85,-77.68"/>
<polygon fill="#63b8ff" stroke="#63b8ff" points="716.49,-81.13 725.35,-75.32 714.8,-74.33 716.49,-81.13"/>
</a>
</g>
</g>
<!-- Node21 -->
<g id="Node000021" class="node">
<title>Node21</title>
<g id="a_Node000021"><a xlink:title=" ">
<polygon fill="#e0e0e0" stroke="#999999" points="470,-74.5 418.75,-74.5 418.75,-55.25 470,-55.25 470,-74.5"/>
<text xml:space="preserve" text-anchor="middle" x="444.38" y="-61" font-family="Helvetica,sans-Serif" font-size="10.00">sstream</text>
</a>
</g>
</g>
<!-- Node12&#45;&gt;Node21 -->
<g id="edge28_Node000012_Node000021" class="edge">
<title>Node12&#45;&gt;Node21</title>
<g id="a_edge28_Node000012_Node000021"><a xlink:title=" ">
<path fill="none" stroke="#63b8ff" d="M513.92,-115.81C501.28,-106.73 481.45,-92.49 466.19,-81.54"/>
<polygon fill="#63b8ff" stroke="#63b8ff" points="468.34,-78.77 458.18,-75.78 464.26,-84.46 468.34,-78.77"/>
</a>
</g>
</g>
<!-- Node13&#45;&gt;Node3 -->
<g id="edge15_Node000013_Node000003" class="edge">
<title>Node13&#45;&gt;Node3</title>
<g id="a_edge15_Node000013_Node000003"><a xlink:title=" ">
<path fill="none" stroke="#63b8ff" d="M362.97,-57C367.5,-56.41 372.02,-55.82 376.38,-55.25 491.09,-40.29 627.41,-22.57 687.84,-14.72"/>
<polygon fill="#63b8ff" stroke="#63b8ff" points="687.92,-18.24 697.38,-13.48 687.02,-11.3 687.92,-18.24"/>
</a>
</g>
</g>
<!-- Node14 -->
<g id="Node000014" class="node">
<title>Node14</title>
<g id="a_Node000014"><a xlink:title=" ">
<polygon fill="#e0e0e0" stroke="#999999" points="274.62,-19.25 230.12,-19.25 230.12,0 274.62,0 274.62,-19.25"/>
<text xml:space="preserve" text-anchor="middle" x="252.38" y="-5.75" font-family="Helvetica,sans-Serif" font-size="10.00">cstdlib</text>
</a>
</g>
</g>
<!-- Node13&#45;&gt;Node14 -->
<g id="edge14_Node000013_Node000014" class="edge">
<title>Node13&#45;&gt;Node14</title>
<g id="a_edge14_Node000013_Node000014"><a xlink:title=" ">
<path fill="none" stroke="#63b8ff" d="M300.54,-54.84C292.32,-47.3 280.39,-36.35 270.46,-27.23"/>
<polygon fill="#63b8ff" stroke="#63b8ff" points="272.92,-24.73 263.18,-20.55 268.18,-29.89 272.92,-24.73"/>
</a>
</g>
</g>
<!-- Node15 -->
<g id="Node000015" class="node">
<title>Node15</title>
<g id="a_Node000015"><a xlink:title=" ">
<polygon fill="#e0e0e0" stroke="#999999" points="343.62,-19.25 293.12,-19.25 293.12,0 343.62,0 343.62,-19.25"/>
<text xml:space="preserve" text-anchor="middle" x="318.38" y="-5.75" font-family="Helvetica,sans-Serif" font-size="10.00">unistd.h</text>
</a>
</g>
</g>
<!-- Node13&#45;&gt;Node15 -->
<g id="edge16_Node000013_Node000015" class="edge">
<title>Node13&#45;&gt;Node15</title>
<g id="a_edge16_Node000013_Node000015"><a xlink:title=" ">
<path fill="none" stroke="#63b8ff" d="M311.7,-55.08C312.69,-48.49 314.08,-39.21 315.34,-30.82"/>
<polygon fill="#63b8ff" stroke="#63b8ff" points="318.78,-31.51 316.8,-21.11 311.85,-30.47 318.78,-31.51"/>
</a>
</g>
</g>
</g>
</svg>

<g id="navigator" transform="translate(0 0)" fill="#404254">
  <rect fill="#f2f5e9" fill-opacity="0.5" stroke="#606060" stroke-width=".5" x="0" y="0" width="60" height="60"/>
  <use id="zoomplus" xlink:href="#zoomPlus" x="17" y="9" onmousedown="handleZoom(evt,'in')"/>
  <use id="zoomminus" xlink:href="#zoomMin" x="42" y="9" onmousedown="handleZoom(evt,'out')"/>
  <use id="reset" xlink:href="#resetDef" x="30" y="36" onmousedown="handleReset()"/>
   <use id="arrowup" xlink:href="#arrowUp" x="0" y="0" onmousedown="handlePan(0,-1)"/>
  <use id="arrowright" xlink:href="#arrowRight" x="0" y="0" onmousedown="handlePan(1,0)"/>
  <use id="arrowdown" xlink:href="#arrowDown" x="0" y="0" onmousedown="handlePan(0,1)"/>
  <use id="arrowleft" xlink:href="#arrowLeft" x="0" y="0" onmousedown="handlePan(-1,0)"/>
</g>
<svg viewBox="0 0 15 15" width="100%" height="30px" preserveAspectRatio="xMaxYMin meet">
 <g id="arrow_out" transform="scale(0.3 0.3)">
  <a xlink:href="base_8h__incl_org.svg" target="_base">
   <rect id="button" ry="5" rx="5" y="6" x="6" height="38" width="38"
        fill="#f2f5e9" fill-opacity="0.5" stroke="#606060" stroke-width="1.0"/>
   <path id="arrow"
     d="M 11.500037,31.436501 C 11.940474,20.09759 22.043105,11.32322 32.158766,21.979434 L 37.068811,17.246167 C 37.068811,17.246167 37.088388,32 37.088388,32 L 22.160133,31.978069 C 22.160133,31.978069 26.997745,27.140456 26.997745,27.140456 C 18.528582,18.264221 13.291696,25.230495 11.500037,31.436501 z"
     style="fill:#404040;"/>
  </a>
 </g>
</svg>

<style type='text/css'>
<![CDATA[
[data-mouse-over-selected='false'] { opacity: 0.7; }
[data-mouse-over-selected='true']  { opacity: 1.0; }
]]>
</style>
<script type="application/ecmascript"><![CDATA[
document.addEventListener('DOMContentLoaded', (event) => {
  highlightEdges();
  highlightAdjacentNodes();
});
]]></script>
</svg>
