<?xml version="1.0" encoding="UTF-8" standalone="no"?>
<!DOCTYPE svg PUBLIC "-//W3C//DTD SVG 1.1//EN"
 "http://www.w3.org/Graphics/SVG/1.1/DTD/svg11.dtd">
<!-- Generated by graphviz version 13.0.1 (20250615.1724)
 -->
<!-- Title: fourdst::config::Config&lt; T &gt; Pages: 1 -->
<svg width="159pt" height="161pt"
 viewBox="0.00 0.00 159.00 161.00" xmlns="http://www.w3.org/2000/svg" xmlns:xlink="http://www.w3.org/1999/xlink">
<g id="graph0" class="graph" transform="scale(1 1) rotate(0) translate(4 157.25)">
<title>fourdst::config::Config&lt; T &gt;</title>
<!-- Node1 -->
<g id="Node000001" class="node">
<title>Node1</title>
<g id="a_Node000001"><a xlink:title="Wrapper class for managing strongly&#45;typed configuration structures.">
<polygon fill="#999999" stroke="#666666" points="136.75,-19.25 0,-19.25 0,0 136.75,0 136.75,-19.25"/>
<text xml:space="preserve" text-anchor="middle" x="68.38" y="-5.75" font-family="Helvetica,sans-Serif" font-size="10.00">fourdst::config::Config&lt; T &gt;</text>
</a>
</g>
</g>
<!-- Node2 -->
<g id="Node000002" class="node">
<title>Node2</title>
<g id="a_Node000002"><a xlink:title=" ">
<polygon fill="white" stroke="#666666" points="46.77,-85.75 17.98,-85.75 17.98,-66.5 46.77,-66.5 46.77,-85.75"/>
<text xml:space="preserve" text-anchor="middle" x="32.38" y="-72.25" font-family="Helvetica,sans-Serif" font-size="10.00">T</text>
</a>
</g>
</g>
<!-- Node2&#45;&gt;Node1 -->
<g id="edge1_Node000001_Node000002" class="edge">
<title>Node2&#45;&gt;Node1</title>
<g id="a_edge1_Node000001_Node000002"><a xlink:title=" ">
<path fill="none" stroke="#9a32cd" stroke-dasharray="5,2" d="M29.85,-54.93C29.93,-48.96 30.87,-42.6 33.62,-37.25 37.38,-29.95 44.15,-24.07 50.72,-19.71"/>
<polygon fill="#9a32cd" stroke="#9a32cd" points="26.34,-54.92 30.5,-64.66 33.33,-54.45 26.34,-54.92"/>
</a>
</g>
<text xml:space="preserve" text-anchor="middle" x="58" y="-39" font-family="Helvetica,sans-Serif" font-size="10.00" fill="grey"> m_content</text>
</g>
<!-- Node3 -->
<g id="Node000003" class="node">
<title>Node3</title>
<g id="a_Node000003"><a xlink:title=" ">
<polygon fill="white" stroke="#666666" points="134.12,-85.75 74.62,-85.75 74.62,-66.5 134.12,-66.5 134.12,-85.75"/>
<text xml:space="preserve" text-anchor="middle" x="104.38" y="-72.25" font-family="Helvetica,sans-Serif" font-size="10.00">std::string</text>
</a>
</g>
</g>
<!-- Node3&#45;&gt;Node1 -->
<g id="edge2_Node000001_Node000003" class="edge">
<title>Node3&#45;&gt;Node1</title>
<g id="a_edge2_Node000001_Node000003"><a xlink:title=" ">
<path fill="none" stroke="#9a32cd" stroke-dasharray="5,2" d="M93.78,-56.14C87.03,-44.04 78.59,-28.92 73.34,-19.52"/>
<polygon fill="#9a32cd" stroke="#9a32cd" points="90.7,-57.81 98.63,-64.83 96.81,-54.4 90.7,-57.81"/>
</a>
</g>
<text xml:space="preserve" text-anchor="middle" x="119.66" y="-39" font-family="Helvetica,sans-Serif" font-size="10.00" fill="grey"> m_root_name</text>
</g>
<!-- Node4 -->
<g id="Node000004" class="node">
<title>Node4</title>
<g id="a_Node000004"><a xlink:title=" ">
<polygon fill="white" stroke="#666666" points="151.38,-153.25 57.37,-153.25 57.37,-122.75 151.38,-122.75 151.38,-153.25"/>
<text xml:space="preserve" text-anchor="start" x="65.38" y="-139.75" font-family="Helvetica,sans-Serif" font-size="10.00">std::basic_string&lt;</text>
<text xml:space="preserve" text-anchor="middle" x="104.38" y="-128.5" font-family="Helvetica,sans-Serif" font-size="10.00"> Char &gt;</text>
</a>
</g>
</g>
<!-- Node4&#45;&gt;Node3 -->
<g id="edge3_Node000003_Node000004" class="edge">
<title>Node4&#45;&gt;Node3</title>
<g id="a_edge3_Node000003_Node000004"><a xlink:title=" ">
<path fill="none" stroke="#63b8ff" d="M104.38,-111.27C104.38,-102.29 104.38,-92.79 104.38,-86.1"/>
<polygon fill="#63b8ff" stroke="#63b8ff" points="100.88,-110.99 104.38,-120.99 107.88,-110.99 100.88,-110.99"/>
</a>
</g>
</g>
</g>
</svg>
