<?xml version="1.0" encoding="UTF-8" standalone="no"?>
<!DOCTYPE svg PUBLIC "-//W3C//DTD SVG 1.1//EN"
 "http://www.w3.org/Graphics/SVG/1.1/DTD/svg11.dtd">
<!-- Generated by graphviz version 13.0.1 (20250615.1724)
 -->
<!-- Title: fourdst::config::exceptions::ConfigError Pages: 1 -->
<svg width="421pt" height="186pt"
 viewBox="0.00 0.00 421.00 186.00" xmlns="http://www.w3.org/2000/svg" xmlns:xlink="http://www.w3.org/1999/xlink">
<g id="graph0" class="graph" transform="scale(1 1) rotate(0) translate(4 181.5)">
<title>fourdst::config::exceptions::ConfigError</title>
<!-- Node1 -->
<g id="Node000001" class="node">
<title>Node1</title>
<g id="a_Node000001"><a xlink:title="Base exception class for all configuration&#45;related errors.">
<polygon fill="#999999" stroke="#666666" points="245,-103.5 113.5,-103.5 113.5,-73 245,-73 245,-103.5"/>
<text xml:space="preserve" text-anchor="start" x="121.5" y="-90" font-family="Helvetica,sans-Serif" font-size="10.00">fourdst::config::exceptions</text>
<text xml:space="preserve" text-anchor="middle" x="179.25" y="-78.75" font-family="Helvetica,sans-Serif" font-size="10.00">::ConfigError</text>
</a>
</g>
</g>
<!-- Node3 -->
<g id="Node000003" class="node">
<title>Node3</title>
<g id="a_Node000003"><a xlink:href="classfourdst_1_1config_1_1exceptions_1_1_config_load_error.html" target="_top" xlink:title="Thrown when loading the configuration from a file fails.">
<polygon fill="white" stroke="#666666" points="412.5,-177.5 281,-177.5 281,-147 412.5,-147 412.5,-177.5"/>
<text xml:space="preserve" text-anchor="start" x="289" y="-164" font-family="Helvetica,sans-Serif" font-size="10.00">fourdst::config::exceptions</text>
<text xml:space="preserve" text-anchor="middle" x="346.75" y="-152.75" font-family="Helvetica,sans-Serif" font-size="10.00">::ConfigLoadError</text>
</a>
</g>
</g>
<!-- Node1&#45;&gt;Node3 -->
<g id="edge2_Node000001_Node000003" class="edge">
<title>Node1&#45;&gt;Node3</title>
<g id="a_edge2_Node000001_Node000003"><a xlink:title=" ">
<path fill="none" stroke="#63b8ff" d="M221.05,-109.06C239.24,-118.09 261.02,-128.55 281,-137.25 288.29,-140.42 296.13,-143.62 303.74,-146.62"/>
<polygon fill="#63b8ff" stroke="#63b8ff" points="222.67,-105.96 212.16,-104.62 219.54,-112.22 222.67,-105.96"/>
</a>
</g>
</g>
<!-- Node4 -->
<g id="Node000004" class="node">
<title>Node4</title>
<g id="a_Node000004"><a xlink:href="classfourdst_1_1config_1_1exceptions_1_1_config_parse_error.html" target="_top" xlink:title="Thrown when parsing the configuration file fails.">
<polygon fill="white" stroke="#666666" points="412.5,-128.5 281,-128.5 281,-98 412.5,-98 412.5,-128.5"/>
<text xml:space="preserve" text-anchor="start" x="289" y="-115" font-family="Helvetica,sans-Serif" font-size="10.00">fourdst::config::exceptions</text>
<text xml:space="preserve" text-anchor="middle" x="346.75" y="-103.75" font-family="Helvetica,sans-Serif" font-size="10.00">::ConfigParseError</text>
</a>
</g>
</g>
<!-- Node1&#45;&gt;Node4 -->
<g id="edge3_Node000001_Node000004" class="edge">
<title>Node1&#45;&gt;Node4</title>
<g id="a_edge3_Node000001_Node000004"><a xlink:title=" ">
<path fill="none" stroke="#63b8ff" d="M256.53,-99.77C264.62,-100.99 272.79,-102.23 280.73,-103.43"/>
<polygon fill="#63b8ff" stroke="#63b8ff" points="257.09,-96.32 246.68,-98.28 256.05,-103.24 257.09,-96.32"/>
</a>
</g>
</g>
<!-- Node5 -->
<g id="Node000005" class="node">
<title>Node5</title>
<g id="a_Node000005"><a xlink:href="classfourdst_1_1config_1_1exceptions_1_1_config_save_error.html" target="_top" xlink:title="Thrown when saving the configuration to a file fails.">
<polygon fill="white" stroke="#666666" points="412.5,-79.5 281,-79.5 281,-49 412.5,-49 412.5,-79.5"/>
<text xml:space="preserve" text-anchor="start" x="289" y="-66" font-family="Helvetica,sans-Serif" font-size="10.00">fourdst::config::exceptions</text>
<text xml:space="preserve" text-anchor="middle" x="346.75" y="-54.75" font-family="Helvetica,sans-Serif" font-size="10.00">::ConfigSaveError</text>
</a>
</g>
</g>
<!-- Node1&#45;&gt;Node5 -->
<g id="edge4_Node000001_Node000005" class="edge">
<title>Node1&#45;&gt;Node5</title>
<g id="a_edge4_Node000001_Node000005"><a xlink:title=" ">
<path fill="none" stroke="#63b8ff" d="M256.53,-77.19C264.62,-76.02 272.79,-74.83 280.73,-73.68"/>
<polygon fill="#63b8ff" stroke="#63b8ff" points="256.08,-73.72 246.68,-78.62 257.08,-80.64 256.08,-73.72"/>
</a>
</g>
</g>
<!-- Node6 -->
<g id="Node000006" class="node">
<title>Node6</title>
<g id="a_Node000006"><a xlink:href="classfourdst_1_1config_1_1exceptions_1_1_schema_save_error.html" target="_top" xlink:title="Thrown when generating or saving the JSON schema fails.">
<polygon fill="white" stroke="#666666" points="412.5,-30.5 281,-30.5 281,0 412.5,0 412.5,-30.5"/>
<text xml:space="preserve" text-anchor="start" x="289" y="-17" font-family="Helvetica,sans-Serif" font-size="10.00">fourdst::config::exceptions</text>
<text xml:space="preserve" text-anchor="middle" x="346.75" y="-5.75" font-family="Helvetica,sans-Serif" font-size="10.00">::SchemaSaveError</text>
</a>
</g>
</g>
<!-- Node1&#45;&gt;Node6 -->
<g id="edge5_Node000001_Node000006" class="edge">
<title>Node1&#45;&gt;Node6</title>
<g id="a_edge5_Node000001_Node000006"><a xlink:title=" ">
<path fill="none" stroke="#63b8ff" d="M221.5,-67.72C239.61,-58.94 261.21,-48.77 281,-40.25 288.3,-37.11 296.15,-33.92 303.76,-30.92"/>
<polygon fill="#63b8ff" stroke="#63b8ff" points="220.09,-64.52 212.64,-72.05 223.17,-70.81 220.09,-64.52"/>
</a>
</g>
</g>
<!-- Node2 -->
<g id="Node000002" class="node">
<title>Node2</title>
<g id="a_Node000002"><a xlink:title=" ">
<polygon fill="white" stroke="#666666" points="77.5,-97.88 0,-97.88 0,-78.62 77.5,-78.62 77.5,-97.88"/>
<text xml:space="preserve" text-anchor="middle" x="38.75" y="-84.38" font-family="Helvetica,sans-Serif" font-size="10.00">std::exception</text>
</a>
</g>
</g>
<!-- Node2&#45;&gt;Node1 -->
<g id="edge1_Node000001_Node000002" class="edge">
<title>Node2&#45;&gt;Node1</title>
<g id="a_edge1_Node000001_Node000002"><a xlink:title=" ">
<path fill="none" stroke="#63b8ff" d="M89.32,-88.25C97.02,-88.25 105.07,-88.25 113.05,-88.25"/>
<polygon fill="#63b8ff" stroke="#63b8ff" points="89.48,-84.75 79.48,-88.25 89.48,-91.75 89.48,-84.75"/>
</a>
</g>
</g>
</g>
</svg>
