<?xml version="1.0" encoding="UTF-8" standalone="no"?>
<!DOCTYPE svg PUBLIC "-//W3C//DTD SVG 1.1//EN"
 "http://www.w3.org/Graphics/SVG/1.1/DTD/svg11.dtd">
<!-- Generated by graphviz version 14.1.2 (20260124.0452)
 -->
<!-- Title: fourdst::config::Config&lt; T &gt; Pages: 1 -->
<svg width="271pt" height="173pt"
 viewBox="0.00 0.00 271.00 173.00" xmlns="http://www.w3.org/2000/svg" xmlns:xlink="http://www.w3.org/1999/xlink">
<g id="graph0" class="graph" transform="scale(1 1) rotate(0) translate(4 168.5)">
<title>fourdst::config::Config&lt; T &gt;</title>
<!-- Node1 -->
<g id="Node000001" class="node">
<title>Node1</title>
<g id="a_Node000001"><a xlink:title="Wrapper class for managing strongly&#45;typed configuration structures.">
<polygon fill="#999999" stroke="#666666" points="172.78,-19.25 36.03,-19.25 36.03,0 172.78,0 172.78,-19.25"/>
<text xml:space="preserve" text-anchor="middle" x="104.4" y="-5.75" font-family="Helvetica,sans-Serif" font-size="10.00">fourdst::config::Config&lt; T &gt;</text>
</a>
</g>
</g>
<!-- Node2 -->
<g id="Node000002" class="node">
<title>Node2</title>
<g id="a_Node000002"><a xlink:title=" ">
<polygon fill="white" stroke="#666666" points="28.8,-97 0,-97 0,-77.75 28.8,-77.75 28.8,-97"/>
<text xml:space="preserve" text-anchor="middle" x="14.4" y="-83.5" font-family="Helvetica,sans-Serif" font-size="10.00">T</text>
</a>
</g>
</g>
<!-- Node2&#45;&gt;Node1 -->
<g id="edge1_Node000001_Node000002" class="edge">
<title>Node2&#45;&gt;Node1</title>
<g id="a_edge1_Node000001_Node000002"><a xlink:title=" ">
<path fill="none" stroke="#9a32cd" stroke-dasharray="5,2" d="M18.14,-66.61C20.93,-56.68 25.68,-45.12 33.65,-37.25 41.78,-29.23 52.55,-23.59 63.24,-19.63"/>
<polygon fill="#9a32cd" stroke="#9a32cd" points="14.79,-65.55 15.97,-76.08 21.62,-67.11 14.79,-65.55"/>
</a>
</g>
<text xml:space="preserve" text-anchor="middle" x="67.03" y="-50.25" font-family="Helvetica,sans-Serif" font-size="10.00" fill="grey"> m_content</text>
<text xml:space="preserve" text-anchor="middle" x="67.03" y="-39" font-family="Helvetica,sans-Serif" font-size="10.00" fill="grey">m_content_orig</text>
</g>
<!-- Node3 -->
<g id="Node000003" class="node">
<title>Node3</title>
<g id="a_Node000003"><a xlink:title=" ">
<polygon fill="white" stroke="#666666" points="135.65,-97 73.15,-97 73.15,-77.75 135.65,-77.75 135.65,-97"/>
<text xml:space="preserve" text-anchor="middle" x="104.4" y="-83.5" font-family="Helvetica,sans-Serif" font-size="10.00">std::mutex</text>
</a>
</g>
</g>
<!-- Node3&#45;&gt;Node1 -->
<g id="edge2_Node000001_Node000003" class="edge">
<title>Node3&#45;&gt;Node1</title>
<g id="a_edge2_Node000001_Node000003"><a xlink:title=" ">
<path fill="none" stroke="#9a32cd" stroke-dasharray="5,2" d="M104.4,-66.1C104.4,-50.95 104.4,-30.98 104.4,-19.6"/>
<polygon fill="#9a32cd" stroke="#9a32cd" points="100.9,-65.87 104.4,-75.87 107.9,-65.87 100.9,-65.87"/>
</a>
</g>
<text xml:space="preserve" text-anchor="middle" x="144.9" y="-44.62" font-family="Helvetica,sans-Serif" font-size="10.00" fill="grey"> m_content_mutex</text>
</g>
<!-- Node4 -->
<g id="Node000004" class="node">
<title>Node4</title>
<g id="a_Node000004"><a xlink:title=" ">
<polygon fill="white" stroke="#666666" points="238.15,-97 178.65,-97 178.65,-77.75 238.15,-77.75 238.15,-97"/>
<text xml:space="preserve" text-anchor="middle" x="208.4" y="-83.5" font-family="Helvetica,sans-Serif" font-size="10.00">std::string</text>
</a>
</g>
</g>
<!-- Node4&#45;&gt;Node1 -->
<g id="edge3_Node000001_Node000004" class="edge">
<title>Node4&#45;&gt;Node1</title>
<g id="a_edge3_Node000001_Node000004"><a xlink:title=" ">
<path fill="none" stroke="#9a32cd" stroke-dasharray="5,2" d="M203.62,-66.42C200.3,-56.44 194.9,-44.89 186.4,-37.25 177.49,-29.25 166.14,-23.65 154.75,-19.73"/>
<polygon fill="#9a32cd" stroke="#9a32cd" points="200.24,-67.3 206.3,-75.99 206.98,-65.42 200.24,-67.3"/>
</a>
</g>
<text xml:space="preserve" text-anchor="middle" x="231.9" y="-44.62" font-family="Helvetica,sans-Serif" font-size="10.00" fill="grey"> m_root_name</text>
</g>
<!-- Node5 -->
<g id="Node000005" class="node">
<title>Node5</title>
<g id="a_Node000005"><a xlink:title=" ">
<polygon fill="white" stroke="#666666" points="255.4,-164.5 161.4,-164.5 161.4,-134 255.4,-134 255.4,-164.5"/>
<text xml:space="preserve" text-anchor="start" x="169.4" y="-151" font-family="Helvetica,sans-Serif" font-size="10.00">std::basic_string&lt;</text>
<text xml:space="preserve" text-anchor="middle" x="208.4" y="-139.75" font-family="Helvetica,sans-Serif" font-size="10.00"> Char &gt;</text>
</a>
</g>
</g>
<!-- Node5&#45;&gt;Node4 -->
<g id="edge4_Node000004_Node000005" class="edge">
<title>Node5&#45;&gt;Node4</title>
<g id="a_edge4_Node000004_Node000005"><a xlink:title=" ">
<path fill="none" stroke="#63b8ff" d="M208.4,-122.52C208.4,-113.54 208.4,-104.04 208.4,-97.35"/>
<polygon fill="#63b8ff" stroke="#63b8ff" points="204.9,-122.24 208.4,-132.24 211.9,-122.24 204.9,-122.24"/>
</a>
</g>
</g>
</g>
</svg>
