<?xml version="1.0" encoding="UTF-8" standalone="no"?>
<!DOCTYPE svg PUBLIC "-//W3C//DTD SVG 1.1//EN"
 "http://www.w3.org/Graphics/SVG/1.1/DTD/svg11.dtd">
<!-- Generated by graphviz version 13.0.1 (20250615.1724)
 -->
<!-- Title: src/config/include/fourdst/config/config.h Pages: 1 -->
<svg width="813pt" height="271pt"
 viewBox="0.00 0.00 813.00 271.00" xmlns="http://www.w3.org/2000/svg" xmlns:xlink="http://www.w3.org/1999/xlink">
<g id="graph0" class="graph" transform="scale(1 1) rotate(0) translate(4 266.75)">
<title>src/config/include/fourdst/config/config.h</title>
<!-- Node1 -->
<g id="Node000001" class="node">
<title>Node1</title>
<g id="a_Node000001"><a xlink:title="Main entry point for the fourdst::config library.">
<polygon fill="#999999" stroke="#666666" points="484.62,-262.75 368.88,-262.75 368.88,-232.25 484.62,-232.25 484.62,-262.75"/>
<text xml:space="preserve" text-anchor="start" x="376.88" y="-249.25" font-family="Helvetica,sans-Serif" font-size="10.00">src/config/include</text>
<text xml:space="preserve" text-anchor="middle" x="426.75" y="-238" font-family="Helvetica,sans-Serif" font-size="10.00">/fourdst/config/config.h</text>
</a>
</g>
</g>
<!-- Node2 -->
<g id="Node000002" class="node">
<title>Node2</title>
<g id="a_Node000002"><a xlink:href="base_8h.html" target="_top" xlink:title="Core configuration management classes and concepts.">
<polygon fill="white" stroke="#666666" points="480.5,-141 373,-141 373,-121.75 480.5,-121.75 480.5,-141"/>
<text xml:space="preserve" text-anchor="middle" x="426.75" y="-127.5" font-family="Helvetica,sans-Serif" font-size="10.00">fourdst/config/base.h</text>
</a>
</g>
</g>
<!-- Node1&#45;&gt;Node2 -->
<g id="edge1_Node000001_Node000002" class="edge">
<title>Node1&#45;&gt;Node2</title>
<g id="a_edge1_Node000001_Node000002"><a xlink:title=" ">
<path fill="none" stroke="#63b8ff" d="M426.75,-232.05C426.75,-212 426.75,-175.65 426.75,-152.82"/>
<polygon fill="#63b8ff" stroke="#63b8ff" points="430.25,-152.96 426.75,-142.96 423.25,-152.96 430.25,-152.96"/>
</a>
</g>
</g>
<!-- Node10 -->
<g id="Node000010" class="node">
<title>Node10</title>
<g id="a_Node000010"><a xlink:href="exceptions_8h.html" target="_top" xlink:title="Exception classes for the configuration library.">
<polygon fill="white" stroke="#666666" points="125.5,-85.75 0,-85.75 0,-55.25 125.5,-55.25 125.5,-85.75"/>
<text xml:space="preserve" text-anchor="start" x="8" y="-72.25" font-family="Helvetica,sans-Serif" font-size="10.00">fourdst/config/exceptions</text>
<text xml:space="preserve" text-anchor="middle" x="62.75" y="-61" font-family="Helvetica,sans-Serif" font-size="10.00">/exceptions.h</text>
</a>
</g>
</g>
<!-- Node1&#45;&gt;Node10 -->
<g id="edge15_Node000001_Node000010" class="edge">
<title>Node1&#45;&gt;Node10</title>
<g id="a_edge15_Node000001_Node000010"><a xlink:title=" ">
<path fill="none" stroke="#63b8ff" d="M396.34,-231.88C331.04,-200.48 177.34,-126.59 103.61,-91.14"/>
<polygon fill="#63b8ff" stroke="#63b8ff" points="105.22,-88.04 94.69,-86.86 102.19,-94.34 105.22,-88.04"/>
</a>
</g>
</g>
<!-- Node15 -->
<g id="Node000015" class="node">
<title>Node15</title>
<g id="a_Node000015"><a xlink:href="cli_8h.html" target="_top" xlink:title="Integration layer between libconfig and CLI applications.">
<polygon fill="white" stroke="#666666" points="553.88,-196.25 457.62,-196.25 457.62,-177 553.88,-177 553.88,-196.25"/>
<text xml:space="preserve" text-anchor="middle" x="505.75" y="-182.75" font-family="Helvetica,sans-Serif" font-size="10.00">fourdst/config/cli.h</text>
</a>
</g>
</g>
<!-- Node1&#45;&gt;Node15 -->
<g id="edge16_Node000001_Node000015" class="edge">
<title>Node1&#45;&gt;Node15</title>
<g id="a_edge16_Node000001_Node000015"><a xlink:title=" ">
<path fill="none" stroke="#63b8ff" d="M446.28,-231.95C457.84,-223.33 472.51,-212.4 484.38,-203.55"/>
<polygon fill="#63b8ff" stroke="#63b8ff" points="486.43,-206.39 492.36,-197.61 482.25,-200.77 486.43,-206.39"/>
</a>
</g>
</g>
<!-- Node3 -->
<g id="Node000003" class="node">
<title>Node3</title>
<g id="a_Node000003"><a xlink:title=" ">
<polygon fill="#e0e0e0" stroke="#999999" points="665.25,-80.12 604.25,-80.12 604.25,-60.88 665.25,-60.88 665.25,-80.12"/>
<text xml:space="preserve" text-anchor="middle" x="634.75" y="-66.62" font-family="Helvetica,sans-Serif" font-size="10.00">filesystem</text>
</a>
</g>
</g>
<!-- Node2&#45;&gt;Node3 -->
<g id="edge2_Node000002_Node000003" class="edge">
<title>Node2&#45;&gt;Node3</title>
<g id="a_edge2_Node000002_Node000003"><a xlink:title=" ">
<path fill="none" stroke="#63b8ff" d="M464.37,-121.33C498.58,-112.88 550.36,-99.53 594.75,-85.75 596.33,-85.26 597.95,-84.74 599.58,-84.21"/>
<polygon fill="#63b8ff" stroke="#63b8ff" points="600.54,-87.58 608.89,-81.05 598.29,-80.95 600.54,-87.58"/>
</a>
</g>
</g>
<!-- Node4 -->
<g id="Node000004" class="node">
<title>Node4</title>
<g id="a_Node000004"><a xlink:title=" ">
<polygon fill="#e0e0e0" stroke="#999999" points="161.75,-19.25 121.75,-19.25 121.75,0 161.75,0 161.75,-19.25"/>
<text xml:space="preserve" text-anchor="middle" x="141.75" y="-5.75" font-family="Helvetica,sans-Serif" font-size="10.00">string</text>
</a>
</g>
</g>
<!-- Node2&#45;&gt;Node4 -->
<g id="edge3_Node000002_Node000004" class="edge">
<title>Node2&#45;&gt;Node4</title>
<g id="a_edge3_Node000002_Node000004"><a xlink:title=" ">
<path fill="none" stroke="#63b8ff" d="M372.64,-126.92C307.41,-121.75 202.81,-109.9 172.75,-85.75 155.93,-72.24 148.14,-48.07 144.6,-30.79"/>
<polygon fill="#63b8ff" stroke="#63b8ff" points="148.09,-30.44 142.96,-21.17 141.19,-31.62 148.09,-30.44"/>
</a>
</g>
</g>
<!-- Node5 -->
<g id="Node000005" class="node">
<title>Node5</title>
<g id="a_Node000005"><a xlink:title=" ">
<polygon fill="#e0e0e0" stroke="#999999" points="216.12,-80.12 181.38,-80.12 181.38,-60.88 216.12,-60.88 216.12,-80.12"/>
<text xml:space="preserve" text-anchor="middle" x="198.75" y="-66.62" font-family="Helvetica,sans-Serif" font-size="10.00">map</text>
</a>
</g>
</g>
<!-- Node2&#45;&gt;Node5 -->
<g id="edge4_Node000002_Node000005" class="edge">
<title>Node2&#45;&gt;Node5</title>
<g id="a_edge4_Node000002_Node000005"><a xlink:title=" ">
<path fill="none" stroke="#63b8ff" d="M372.82,-122.74C331.43,-115.87 273.33,-104 224.75,-85.75 224.4,-85.62 224.04,-85.48 223.69,-85.34"/>
<polygon fill="#63b8ff" stroke="#63b8ff" points="225.43,-82.29 214.9,-81.19 222.44,-88.62 225.43,-82.29"/>
</a>
</g>
</g>
<!-- Node6 -->
<g id="Node000006" class="node">
<title>Node6</title>
<g id="a_Node000006"><a xlink:title=" ">
<polygon fill="#e0e0e0" stroke="#999999" points="277.62,-80.12 233.88,-80.12 233.88,-60.88 277.62,-60.88 277.62,-80.12"/>
<text xml:space="preserve" text-anchor="middle" x="255.75" y="-66.62" font-family="Helvetica,sans-Serif" font-size="10.00">format</text>
</a>
</g>
</g>
<!-- Node2&#45;&gt;Node6 -->
<g id="edge5_Node000002_Node000006" class="edge">
<title>Node2&#45;&gt;Node6</title>
<g id="a_edge5_Node000002_Node000006"><a xlink:title=" ">
<path fill="none" stroke="#63b8ff" d="M393.54,-121.26C364.68,-113.01 321.95,-100 285.75,-85.75 285.13,-85.51 284.5,-85.25 283.88,-85"/>
<polygon fill="#63b8ff" stroke="#63b8ff" points="285.61,-81.94 275.04,-81.11 282.78,-88.34 285.61,-81.94"/>
</a>
</g>
</g>
<!-- Node7 -->
<g id="Node000007" class="node">
<title>Node7</title>
<g id="a_Node000007"><a xlink:title=" ">
<polygon fill="#e0e0e0" stroke="#999999" points="338.25,-80.12 295.25,-80.12 295.25,-60.88 338.25,-60.88 338.25,-80.12"/>
<text xml:space="preserve" text-anchor="middle" x="316.75" y="-66.62" font-family="Helvetica,sans-Serif" font-size="10.00">vector</text>
</a>
</g>
</g>
<!-- Node2&#45;&gt;Node7 -->
<g id="edge6_Node000002_Node000007" class="edge">
<title>Node2&#45;&gt;Node7</title>
<g id="a_edge6_Node000002_Node000007"><a xlink:title=" ">
<path fill="none" stroke="#63b8ff" d="M410.04,-121.43C392.44,-112.01 364.44,-97.02 343.7,-85.93"/>
<polygon fill="#63b8ff" stroke="#63b8ff" points="345.42,-82.87 334.95,-81.24 342.11,-89.04 345.42,-82.87"/>
</a>
</g>
</g>
<!-- Node8 -->
<g id="Node000008" class="node">
<title>Node8</title>
<g id="a_Node000008"><a xlink:title=" ">
<polygon fill="#e0e0e0" stroke="#999999" points="421.5,-80.12 356,-80.12 356,-60.88 421.5,-60.88 421.5,-80.12"/>
<text xml:space="preserve" text-anchor="middle" x="388.75" y="-66.62" font-family="Helvetica,sans-Serif" font-size="10.00">string_view</text>
</a>
</g>
</g>
<!-- Node2&#45;&gt;Node8 -->
<g id="edge7_Node000002_Node000008" class="edge">
<title>Node2&#45;&gt;Node8</title>
<g id="a_edge7_Node000002_Node000008"><a xlink:title=" ">
<path fill="none" stroke="#63b8ff" d="M420.98,-121.43C415.62,-113.13 407.48,-100.52 400.72,-90.05"/>
<polygon fill="#63b8ff" stroke="#63b8ff" points="403.76,-88.3 395.4,-81.8 397.88,-92.1 403.76,-88.3"/>
</a>
</g>
</g>
<!-- Node9 -->
<g id="Node000009" class="node">
<title>Node9</title>
<g id="a_Node000009"><a xlink:title=" ">
<polygon fill="#e0e0e0" stroke="#999999" points="744.62,-80.12 682.88,-80.12 682.88,-60.88 744.62,-60.88 744.62,-80.12"/>
<text xml:space="preserve" text-anchor="middle" x="713.75" y="-66.62" font-family="Helvetica,sans-Serif" font-size="10.00">type_traits</text>
</a>
</g>
</g>
<!-- Node2&#45;&gt;Node9 -->
<g id="edge8_Node000002_Node000009" class="edge">
<title>Node2&#45;&gt;Node9</title>
<g id="a_edge8_Node000002_Node000009"><a xlink:title=" ">
<path fill="none" stroke="#63b8ff" d="M480.56,-123.42C531.19,-116.24 608.87,-103.57 674.75,-85.75 676.49,-85.28 678.25,-84.77 680.03,-84.22"/>
<polygon fill="#63b8ff" stroke="#63b8ff" points="681.05,-87.57 689.43,-81.09 678.84,-80.93 681.05,-87.57"/>
</a>
</g>
</g>
<!-- Node2&#45;&gt;Node10 -->
<g id="edge9_Node000002_Node000010" class="edge">
<title>Node2&#45;&gt;Node10</title>
<g id="a_edge9_Node000002_Node000010"><a xlink:title=" ">
<path fill="none" stroke="#63b8ff" d="M372.72,-122.45C314.97,-113.86 220.78,-99.54 139.75,-85.75 138.75,-85.58 137.75,-85.41 136.74,-85.23"/>
<polygon fill="#63b8ff" stroke="#63b8ff" points="137.7,-81.85 127.25,-83.57 136.49,-88.74 137.7,-81.85"/>
</a>
</g>
</g>
<!-- Node12 -->
<g id="Node000012" class="node">
<title>Node12</title>
<g id="a_Node000012"><a xlink:title=" ">
<polygon fill="#e0e0e0" stroke="#999999" points="805.25,-80.12 762.25,-80.12 762.25,-60.88 805.25,-60.88 805.25,-80.12"/>
<text xml:space="preserve" text-anchor="middle" x="783.75" y="-66.62" font-family="Helvetica,sans-Serif" font-size="10.00">rfl.hpp</text>
</a>
</g>
</g>
<!-- Node2&#45;&gt;Node12 -->
<g id="edge12_Node000002_Node000012" class="edge">
<title>Node2&#45;&gt;Node12</title>
<g id="a_edge12_Node000002_Node000012"><a xlink:title=" ">
<path fill="none" stroke="#63b8ff" d="M480.77,-128.08C546.5,-124.14 660.26,-113.6 753.75,-85.75 754.72,-85.46 755.69,-85.15 756.67,-84.81"/>
<polygon fill="#63b8ff" stroke="#63b8ff" points="757.66,-88.19 765.58,-81.15 755,-81.71 757.66,-88.19"/>
</a>
</g>
</g>
<!-- Node13 -->
<g id="Node000013" class="node">
<title>Node13</title>
<g id="a_Node000013"><a xlink:title=" ">
<polygon fill="#e0e0e0" stroke="#999999" points="504.12,-80.12 439.38,-80.12 439.38,-60.88 504.12,-60.88 504.12,-80.12"/>
<text xml:space="preserve" text-anchor="middle" x="471.75" y="-66.62" font-family="Helvetica,sans-Serif" font-size="10.00">rfl/toml.hpp</text>
</a>
</g>
</g>
<!-- Node2&#45;&gt;Node13 -->
<g id="edge13_Node000002_Node000013" class="edge">
<title>Node2&#45;&gt;Node13</title>
<g id="a_edge13_Node000002_Node000013"><a xlink:title=" ">
<path fill="none" stroke="#63b8ff" d="M433.58,-121.43C440.06,-112.96 449.97,-99.99 458.07,-89.39"/>
<polygon fill="#63b8ff" stroke="#63b8ff" points="460.64,-91.8 463.93,-81.73 455.08,-87.55 460.64,-91.8"/>
</a>
</g>
</g>
<!-- Node14 -->
<g id="Node000014" class="node">
<title>Node14</title>
<g id="a_Node000014"><a xlink:title=" ">
<polygon fill="#e0e0e0" stroke="#999999" points="585.75,-80.12 521.75,-80.12 521.75,-60.88 585.75,-60.88 585.75,-80.12"/>
<text xml:space="preserve" text-anchor="middle" x="553.75" y="-66.62" font-family="Helvetica,sans-Serif" font-size="10.00">rfl/json.hpp</text>
</a>
</g>
</g>
<!-- Node2&#45;&gt;Node14 -->
<g id="edge14_Node000002_Node000014" class="edge">
<title>Node2&#45;&gt;Node14</title>
<g id="a_edge14_Node000002_Node000014"><a xlink:title=" ">
<path fill="none" stroke="#63b8ff" d="M446.32,-121.3C467.07,-111.68 500.11,-96.37 524.08,-85.26"/>
<polygon fill="#63b8ff" stroke="#63b8ff" points="525.4,-88.5 533,-81.12 522.45,-82.15 525.4,-88.5"/>
</a>
</g>
</g>
<!-- Node10&#45;&gt;Node4 -->
<g id="edge11_Node000010_Node000004" class="edge">
<title>Node10&#45;&gt;Node4</title>
<g id="a_edge11_Node000010_Node000004"><a xlink:title=" ">
<path fill="none" stroke="#63b8ff" d="M82.28,-54.95C93.84,-46.33 108.51,-35.4 120.38,-26.55"/>
<polygon fill="#63b8ff" stroke="#63b8ff" points="122.43,-29.39 128.36,-20.61 118.25,-23.77 122.43,-29.39"/>
</a>
</g>
</g>
<!-- Node11 -->
<g id="Node000011" class="node">
<title>Node11</title>
<g id="a_Node000011"><a xlink:title=" ">
<polygon fill="#e0e0e0" stroke="#999999" points="92.12,-19.25 33.38,-19.25 33.38,0 92.12,0 92.12,-19.25"/>
<text xml:space="preserve" text-anchor="middle" x="62.75" y="-5.75" font-family="Helvetica,sans-Serif" font-size="10.00">stdexcept</text>
</a>
</g>
</g>
<!-- Node10&#45;&gt;Node11 -->
<g id="edge10_Node000010_Node000011" class="edge">
<title>Node10&#45;&gt;Node11</title>
<g id="a_edge10_Node000010_Node000011"><a xlink:title=" ">
<path fill="none" stroke="#63b8ff" d="M62.75,-54.95C62.75,-47.71 62.75,-38.84 62.75,-30.94"/>
<polygon fill="#63b8ff" stroke="#63b8ff" points="66.25,-31.21 62.75,-21.21 59.25,-31.21 66.25,-31.21"/>
</a>
</g>
</g>
<!-- Node15&#45;&gt;Node2 -->
<g id="edge18_Node000015_Node000002" class="edge">
<title>Node15&#45;&gt;Node2</title>
<g id="a_edge18_Node000015_Node000002"><a xlink:title=" ">
<path fill="none" stroke="#63b8ff" d="M492.35,-176.59C480.66,-168.71 463.45,-157.11 449.59,-147.77"/>
<polygon fill="#63b8ff" stroke="#63b8ff" points="451.72,-144.99 441.47,-142.3 447.81,-150.79 451.72,-144.99"/>
</a>
</g>
</g>
<!-- Node15&#45;&gt;Node9 -->
<g id="edge17_Node000015_Node000009" class="edge">
<title>Node15&#45;&gt;Node9</title>
<g id="a_edge17_Node000015_Node000009"><a xlink:title=" ">
<path fill="none" stroke="#63b8ff" d="M522.07,-176.67C557.9,-157.01 643.73,-109.92 687.34,-85.99"/>
<polygon fill="#63b8ff" stroke="#63b8ff" points="688.81,-89.18 695.89,-81.3 685.44,-83.04 688.81,-89.18"/>
</a>
</g>
</g>
<!-- Node15&#45;&gt;Node12 -->
<g id="edge19_Node000015_Node000012" class="edge">
<title>Node15&#45;&gt;Node12</title>
<g id="a_edge19_Node000015_Node000012"><a xlink:title=" ">
<path fill="none" stroke="#63b8ff" d="M529.55,-176.62C573.98,-159.68 672.4,-121.56 753.75,-85.75 754.1,-85.6 754.44,-85.44 754.79,-85.29"/>
<polygon fill="#63b8ff" stroke="#63b8ff" points="756.1,-88.54 763.73,-81.19 753.18,-82.18 756.1,-88.54"/>
</a>
</g>
</g>
</g>
</svg>
