<?xml version="1.0" encoding="UTF-8" standalone="no"?>
<!DOCTYPE svg PUBLIC "-//W3C//DTD SVG 1.1//EN"
 "http://www.w3.org/Graphics/SVG/1.1/DTD/svg11.dtd">
<!-- Generated by graphviz version 14.1.2 (20260124.0452)
 -->
<!-- Title: src/config/include/fourdst/config/config.h Pages: 1 -->
<svg width="1112pt" height="326pt"
 viewBox="0.00 0.00 1112.00 326.00" xmlns="http://www.w3.org/2000/svg" xmlns:xlink="http://www.w3.org/1999/xlink">
<g id="graph0" class="graph" transform="scale(1 1) rotate(0) translate(4 322)">
<title>src/config/include/fourdst/config/config.h</title>
<!-- Node1 -->
<g id="Node000001" class="node">
<title>Node1</title>
<g id="a_Node000001"><a xlink:title="Main entry point for the fourdst::config library.">
<polygon fill="#999999" stroke="#666666" points="708.62,-318 592.88,-318 592.88,-287.5 708.62,-287.5 708.62,-318"/>
<text xml:space="preserve" text-anchor="start" x="600.88" y="-304.5" font-family="Helvetica,sans-Serif" font-size="10.00">src/config/include</text>
<text xml:space="preserve" text-anchor="middle" x="650.75" y="-293.25" font-family="Helvetica,sans-Serif" font-size="10.00">/fourdst/config/config.h</text>
</a>
</g>
</g>
<!-- Node2 -->
<g id="Node000002" class="node">
<title>Node2</title>
<g id="a_Node000002"><a xlink:href="base_8h.html" target="_top" xlink:title="Core configuration management classes and concepts.">
<polygon fill="white" stroke="#666666" points="704.5,-196.25 597,-196.25 597,-177 704.5,-177 704.5,-196.25"/>
<text xml:space="preserve" text-anchor="middle" x="650.75" y="-182.75" font-family="Helvetica,sans-Serif" font-size="10.00">fourdst/config/base.h</text>
</a>
</g>
</g>
<!-- Node1&#45;&gt;Node2 -->
<g id="edge1_Node000001_Node000002" class="edge">
<title>Node1&#45;&gt;Node2</title>
<g id="a_edge1_Node000001_Node000002"><a xlink:title=" ">
<path fill="none" stroke="#63b8ff" d="M650.75,-287.3C650.75,-267.25 650.75,-230.9 650.75,-208.07"/>
<polygon fill="#63b8ff" stroke="#63b8ff" points="654.25,-208.21 650.75,-198.21 647.25,-208.21 654.25,-208.21"/>
</a>
</g>
</g>
<!-- Node11 -->
<g id="Node000011" class="node">
<title>Node11</title>
<g id="a_Node000011"><a xlink:href="exceptions_8h.html" target="_top" xlink:title="Exception classes for the configuration library.">
<polygon fill="white" stroke="#666666" points="125.5,-141 0,-141 0,-110.5 125.5,-110.5 125.5,-141"/>
<text xml:space="preserve" text-anchor="start" x="8" y="-127.5" font-family="Helvetica,sans-Serif" font-size="10.00">fourdst/config/exceptions</text>
<text xml:space="preserve" text-anchor="middle" x="62.75" y="-116.25" font-family="Helvetica,sans-Serif" font-size="10.00">/exceptions.h</text>
</a>
</g>
</g>
<!-- Node1&#45;&gt;Node11 -->
<g id="edge33_Node000001_Node000011" class="edge">
<title>Node1&#45;&gt;Node11</title>
<g id="a_edge33_Node000001_Node000011"><a xlink:title=" ">
<path fill="none" stroke="#63b8ff" d="M601.38,-287.06C493.99,-255.09 239.49,-179.35 122.93,-144.66"/>
<polygon fill="#63b8ff" stroke="#63b8ff" points="124.12,-141.36 113.54,-141.87 122.13,-148.07 124.12,-141.36"/>
</a>
</g>
</g>
<!-- Node25 -->
<g id="Node000025" class="node">
<title>Node25</title>
<g id="a_Node000025"><a xlink:href="cli_8h.html" target="_top" xlink:title="Integration layer between libconfig and CLI applications.">
<polygon fill="white" stroke="#666666" points="935.88,-251.5 839.62,-251.5 839.62,-232.25 935.88,-232.25 935.88,-251.5"/>
<text xml:space="preserve" text-anchor="middle" x="887.75" y="-238" font-family="Helvetica,sans-Serif" font-size="10.00">fourdst/config/cli.h</text>
</a>
</g>
</g>
<!-- Node1&#45;&gt;Node25 -->
<g id="edge34_Node000001_Node000025" class="edge">
<title>Node1&#45;&gt;Node25</title>
<g id="a_edge34_Node000001_Node000025"><a xlink:title=" ">
<path fill="none" stroke="#63b8ff" d="M709.03,-287.27C749.45,-277.23 802.59,-264.03 840.4,-254.64"/>
<polygon fill="#63b8ff" stroke="#63b8ff" points="840.79,-258.15 849.65,-252.34 839.1,-251.35 840.79,-258.15"/>
</a>
</g>
</g>
<!-- Node3 -->
<g id="Node000003" class="node">
<title>Node3</title>
<g id="a_Node000003"><a xlink:title=" ">
<polygon fill="#e0e0e0" stroke="#999999" points="652.25,-135.38 591.25,-135.38 591.25,-116.12 652.25,-116.12 652.25,-135.38"/>
<text xml:space="preserve" text-anchor="middle" x="621.75" y="-121.88" font-family="Helvetica,sans-Serif" font-size="10.00">filesystem</text>
</a>
</g>
</g>
<!-- Node2&#45;&gt;Node3 -->
<g id="edge2_Node000002_Node000003" class="edge">
<title>Node2&#45;&gt;Node3</title>
<g id="a_edge2_Node000002_Node000003"><a xlink:title=" ">
<path fill="none" stroke="#63b8ff" d="M646.35,-176.68C642.34,-168.56 636.3,-156.29 631.21,-145.95"/>
<polygon fill="#63b8ff" stroke="#63b8ff" points="634.42,-144.56 626.86,-137.13 628.14,-147.65 634.42,-144.56"/>
</a>
</g>
</g>
<!-- Node4 -->
<g id="Node000004" class="node">
<title>Node4</title>
<g id="a_Node000004"><a xlink:title=" ">
<polygon fill="#e0e0e0" stroke="#999999" points="303.75,-19.25 263.75,-19.25 263.75,0 303.75,0 303.75,-19.25"/>
<text xml:space="preserve" text-anchor="middle" x="283.75" y="-5.75" font-family="Helvetica,sans-Serif" font-size="10.00">string</text>
</a>
</g>
</g>
<!-- Node2&#45;&gt;Node4 -->
<g id="edge3_Node000002_Node000004" class="edge">
<title>Node2&#45;&gt;Node4</title>
<g id="a_edge3_Node000002_Node000004"><a xlink:title=" ">
<path fill="none" stroke="#63b8ff" d="M596.64,-186.09C527.79,-185 406.25,-177.41 309.75,-141 260.16,-122.29 235.68,-121.28 210.75,-74.5 198.41,-51.35 228.11,-32.73 253.26,-21.69"/>
<polygon fill="#63b8ff" stroke="#63b8ff" points="254.3,-25.05 262.22,-18.01 251.64,-18.57 254.3,-25.05"/>
</a>
</g>
</g>
<!-- Node5 -->
<g id="Node000005" class="node">
<title>Node5</title>
<g id="a_Node000005"><a xlink:title=" ">
<polygon fill="#e0e0e0" stroke="#999999" points="964.12,-74.5 929.38,-74.5 929.38,-55.25 964.12,-55.25 964.12,-74.5"/>
<text xml:space="preserve" text-anchor="middle" x="946.75" y="-61" font-family="Helvetica,sans-Serif" font-size="10.00">map</text>
</a>
</g>
</g>
<!-- Node2&#45;&gt;Node5 -->
<g id="edge4_Node000002_Node000005" class="edge">
<title>Node2&#45;&gt;Node5</title>
<g id="a_edge4_Node000002_Node000005"><a xlink:title=" ">
<path fill="none" stroke="#63b8ff" d="M653.8,-176.7C659.82,-160.56 674.83,-126.74 699.75,-110.5 779.76,-58.36 820.42,-94.78 917.93,-74.45"/>
<polygon fill="#63b8ff" stroke="#63b8ff" points="918.68,-77.86 927.66,-72.24 917.13,-71.04 918.68,-77.86"/>
</a>
</g>
</g>
<!-- Node6 -->
<g id="Node000006" class="node">
<title>Node6</title>
<g id="a_Node000006"><a xlink:title=" ">
<polygon fill="#e0e0e0" stroke="#999999" points="163.62,-74.5 119.88,-74.5 119.88,-55.25 163.62,-55.25 163.62,-74.5"/>
<text xml:space="preserve" text-anchor="middle" x="141.75" y="-61" font-family="Helvetica,sans-Serif" font-size="10.00">format</text>
</a>
</g>
</g>
<!-- Node2&#45;&gt;Node6 -->
<g id="edge5_Node000002_Node000006" class="edge">
<title>Node2&#45;&gt;Node6</title>
<g id="a_edge5_Node000002_Node000006"><a xlink:title=" ">
<path fill="none" stroke="#63b8ff" d="M596.73,-183.5C479.9,-178.49 211.49,-164.53 177.75,-141 159.43,-128.22 150.11,-103.52 145.6,-85.93"/>
<polygon fill="#63b8ff" stroke="#63b8ff" points="149.06,-85.37 143.48,-76.37 142.23,-86.89 149.06,-85.37"/>
</a>
</g>
</g>
<!-- Node7 -->
<g id="Node000007" class="node">
<title>Node7</title>
<g id="a_Node000007"><a xlink:title=" ">
<polygon fill="#e0e0e0" stroke="#999999" points="263.25,-74.5 220.25,-74.5 220.25,-55.25 263.25,-55.25 263.25,-74.5"/>
<text xml:space="preserve" text-anchor="middle" x="241.75" y="-61" font-family="Helvetica,sans-Serif" font-size="10.00">vector</text>
</a>
</g>
</g>
<!-- Node2&#45;&gt;Node7 -->
<g id="edge6_Node000002_Node000007" class="edge">
<title>Node2&#45;&gt;Node7</title>
<g id="a_edge6_Node000002_Node000007"><a xlink:title=" ">
<path fill="none" stroke="#63b8ff" d="M596.7,-181.98C541.26,-177.03 453.12,-165.76 380.75,-141 337.22,-126.11 291.06,-98.48 264.4,-81.2"/>
<polygon fill="#63b8ff" stroke="#63b8ff" points="266.41,-78.33 256.13,-75.75 262.56,-84.17 266.41,-78.33"/>
</a>
</g>
</g>
<!-- Node8 -->
<g id="Node000008" class="node">
<title>Node8</title>
<g id="a_Node000008"><a xlink:title=" ">
<polygon fill="#e0e0e0" stroke="#999999" points="346.5,-74.5 281,-74.5 281,-55.25 346.5,-55.25 346.5,-74.5"/>
<text xml:space="preserve" text-anchor="middle" x="313.75" y="-61" font-family="Helvetica,sans-Serif" font-size="10.00">string_view</text>
</a>
</g>
</g>
<!-- Node2&#45;&gt;Node8 -->
<g id="edge7_Node000002_Node000008" class="edge">
<title>Node2&#45;&gt;Node8</title>
<g id="a_edge7_Node000002_Node000008"><a xlink:title=" ">
<path fill="none" stroke="#63b8ff" d="M596.68,-178.69C554.11,-172.12 493.83,-160.32 443.75,-141 403.35,-125.42 360.64,-98.43 335.63,-81.39"/>
<polygon fill="#63b8ff" stroke="#63b8ff" points="337.82,-78.65 327.6,-75.84 333.84,-84.4 337.82,-78.65"/>
</a>
</g>
</g>
<!-- Node9 -->
<g id="Node000009" class="node">
<title>Node9</title>
<g id="a_Node000009"><a xlink:title=" ">
<polygon fill="#e0e0e0" stroke="#999999" points="1043.62,-74.5 981.88,-74.5 981.88,-55.25 1043.62,-55.25 1043.62,-74.5"/>
<text xml:space="preserve" text-anchor="middle" x="1012.75" y="-61" font-family="Helvetica,sans-Serif" font-size="10.00">type_traits</text>
</a>
</g>
</g>
<!-- Node2&#45;&gt;Node9 -->
<g id="edge8_Node000002_Node000009" class="edge">
<title>Node2&#45;&gt;Node9</title>
<g id="a_edge8_Node000002_Node000009"><a xlink:title=" ">
<path fill="none" stroke="#63b8ff" d="M704.97,-185.43C762.35,-183.31 854.31,-174.34 925.75,-141 941.19,-133.8 974.73,-102.79 995.36,-82.93"/>
<polygon fill="#63b8ff" stroke="#63b8ff" points="997.75,-85.49 1002.49,-76.01 992.87,-80.47 997.75,-85.49"/>
</a>
</g>
</g>
<!-- Node10 -->
<g id="Node000010" class="node">
<title>Node10</title>
<g id="a_Node000010"><a xlink:title=" ">
<polygon fill="#e0e0e0" stroke="#999999" points="752.25,-135.38 709.25,-135.38 709.25,-116.12 752.25,-116.12 752.25,-135.38"/>
<text xml:space="preserve" text-anchor="middle" x="730.75" y="-121.88" font-family="Helvetica,sans-Serif" font-size="10.00">mutex</text>
</a>
</g>
</g>
<!-- Node2&#45;&gt;Node10 -->
<g id="edge9_Node000002_Node000010" class="edge">
<title>Node2&#45;&gt;Node10</title>
<g id="a_edge9_Node000002_Node000010"><a xlink:title=" ">
<path fill="none" stroke="#63b8ff" d="M662.9,-176.68C675.23,-167.61 694.58,-153.37 709.47,-142.41"/>
<polygon fill="#63b8ff" stroke="#63b8ff" points="711.29,-145.42 717.27,-136.67 707.14,-139.78 711.29,-145.42"/>
</a>
</g>
</g>
<!-- Node2&#45;&gt;Node11 -->
<g id="edge10_Node000002_Node000011" class="edge">
<title>Node2&#45;&gt;Node11</title>
<g id="a_edge10_Node000002_Node000011"><a xlink:title=" ">
<path fill="none" stroke="#63b8ff" d="M596.86,-182.62C503.47,-177.04 305.65,-163.54 139.75,-141 138.75,-140.86 137.74,-140.72 136.73,-140.58"/>
<polygon fill="#63b8ff" stroke="#63b8ff" points="137.61,-137.17 127.2,-139.14 136.56,-144.09 137.61,-137.17"/>
</a>
</g>
</g>
<!-- Node13 -->
<g id="Node000013" class="node">
<title>Node13</title>
<g id="a_Node000013"><a xlink:href="validate_8h.html" target="_top" xlink:title=" ">
<polygon fill="white" stroke="#666666" points="572.88,-135.38 452.62,-135.38 452.62,-116.12 572.88,-116.12 572.88,-135.38"/>
<text xml:space="preserve" text-anchor="middle" x="512.75" y="-121.88" font-family="Helvetica,sans-Serif" font-size="10.00">fourdst/config/validate.h</text>
</a>
</g>
</g>
<!-- Node2&#45;&gt;Node13 -->
<g id="edge13_Node000002_Node000013" class="edge">
<title>Node2&#45;&gt;Node13</title>
<g id="a_edge13_Node000002_Node000013"><a xlink:title=" ">
<path fill="none" stroke="#63b8ff" d="M629.49,-176.55C606.73,-166.85 570.39,-151.34 544.29,-140.21"/>
<polygon fill="#63b8ff" stroke="#63b8ff" points="545.77,-137.03 535.2,-136.33 543.02,-143.47 545.77,-137.03"/>
</a>
</g>
</g>
<!-- Node17 -->
<g id="Node000017" class="node">
<title>Node17</title>
<g id="a_Node000017"><a xlink:title=" ">
<polygon fill="#e0e0e0" stroke="#999999" points="1104.25,-74.5 1061.25,-74.5 1061.25,-55.25 1104.25,-55.25 1104.25,-74.5"/>
<text xml:space="preserve" text-anchor="middle" x="1082.75" y="-61" font-family="Helvetica,sans-Serif" font-size="10.00">rfl.hpp</text>
</a>
</g>
</g>
<!-- Node2&#45;&gt;Node17 -->
<g id="edge30_Node000002_Node000017" class="edge">
<title>Node2&#45;&gt;Node17</title>
<g id="a_edge30_Node000002_Node000017"><a xlink:title=" ">
<path fill="none" stroke="#63b8ff" d="M704.9,-184.28C767.68,-181.25 873.43,-171.59 958.75,-141 998.35,-126.8 1039.09,-99.12 1062.61,-81.62"/>
<polygon fill="#63b8ff" stroke="#63b8ff" points="1064.53,-84.56 1070.37,-75.72 1060.29,-78.98 1064.53,-84.56"/>
</a>
</g>
</g>
<!-- Node23 -->
<g id="Node000023" class="node">
<title>Node23</title>
<g id="a_Node000023"><a xlink:title=" ">
<polygon fill="#e0e0e0" stroke="#999999" points="835.12,-135.38 770.38,-135.38 770.38,-116.12 835.12,-116.12 835.12,-135.38"/>
<text xml:space="preserve" text-anchor="middle" x="802.75" y="-121.88" font-family="Helvetica,sans-Serif" font-size="10.00">rfl/toml.hpp</text>
</a>
</g>
</g>
<!-- Node2&#45;&gt;Node23 -->
<g id="edge31_Node000002_Node000023" class="edge">
<title>Node2&#45;&gt;Node23</title>
<g id="a_edge31_Node000002_Node000023"><a xlink:title=" ">
<path fill="none" stroke="#63b8ff" d="M674.17,-176.55C699.49,-166.74 740.11,-151.01 768.9,-139.86"/>
<polygon fill="#63b8ff" stroke="#63b8ff" points="769.83,-143.25 777.9,-136.38 767.31,-136.73 769.83,-143.25"/>
</a>
</g>
</g>
<!-- Node24 -->
<g id="Node000024" class="node">
<title>Node24</title>
<g id="a_Node000024"><a xlink:title=" ">
<polygon fill="#e0e0e0" stroke="#999999" points="916.75,-135.38 852.75,-135.38 852.75,-116.12 916.75,-116.12 916.75,-135.38"/>
<text xml:space="preserve" text-anchor="middle" x="884.75" y="-121.88" font-family="Helvetica,sans-Serif" font-size="10.00">rfl/json.hpp</text>
</a>
</g>
</g>
<!-- Node2&#45;&gt;Node24 -->
<g id="edge32_Node000002_Node000024" class="edge">
<title>Node2&#45;&gt;Node24</title>
<g id="a_edge32_Node000002_Node000024"><a xlink:title=" ">
<path fill="none" stroke="#63b8ff" d="M696.34,-176.53C735.67,-168.33 793.85,-155.39 843.75,-141 845.59,-140.47 847.47,-139.9 849.37,-139.31"/>
<polygon fill="#63b8ff" stroke="#63b8ff" points="850.32,-142.68 858.73,-136.24 848.14,-136.03 850.32,-142.68"/>
</a>
</g>
</g>
<!-- Node11&#45;&gt;Node4 -->
<g id="edge12_Node000011_Node000004" class="edge">
<title>Node11&#45;&gt;Node4</title>
<g id="a_edge12_Node000011_Node000004"><a xlink:title=" ">
<path fill="none" stroke="#63b8ff" d="M68.98,-110.19C76.53,-94.27 90.79,-69.18 110.75,-55.25 153.78,-25.21 215.5,-15.39 252.41,-12.18"/>
<polygon fill="#63b8ff" stroke="#63b8ff" points="252.24,-15.7 261.95,-11.46 251.72,-8.72 252.24,-15.7"/>
</a>
</g>
</g>
<!-- Node12 -->
<g id="Node000012" class="node">
<title>Node12</title>
<g id="a_Node000012"><a xlink:title=" ">
<polygon fill="#e0e0e0" stroke="#999999" points="64.12,-74.5 5.38,-74.5 5.38,-55.25 64.12,-55.25 64.12,-74.5"/>
<text xml:space="preserve" text-anchor="middle" x="34.75" y="-61" font-family="Helvetica,sans-Serif" font-size="10.00">stdexcept</text>
</a>
</g>
</g>
<!-- Node11&#45;&gt;Node12 -->
<g id="edge11_Node000011_Node000012" class="edge">
<title>Node11&#45;&gt;Node12</title>
<g id="a_edge11_Node000011_Node000012"><a xlink:title=" ">
<path fill="none" stroke="#63b8ff" d="M55.83,-110.2C52.26,-102.7 47.86,-93.45 44.01,-85.35"/>
<polygon fill="#63b8ff" stroke="#63b8ff" points="47.17,-83.85 39.72,-76.32 40.85,-86.85 47.17,-83.85"/>
</a>
</g>
</g>
<!-- Node13&#45;&gt;Node4 -->
<g id="edge20_Node000013_Node000004" class="edge">
<title>Node13&#45;&gt;Node4</title>
<g id="a_edge20_Node000013_Node000004"><a xlink:title=" ">
<path fill="none" stroke="#63b8ff" d="M489.1,-115.79C464.8,-106.34 426.06,-90.62 393.75,-74.5 363.22,-59.26 329.46,-39.15 307.5,-25.59"/>
<polygon fill="#63b8ff" stroke="#63b8ff" points="309.64,-22.8 299.3,-20.49 305.95,-28.75 309.64,-22.8"/>
</a>
</g>
</g>
<!-- Node13&#45;&gt;Node5 -->
<g id="edge27_Node000013_Node000005" class="edge">
<title>Node13&#45;&gt;Node5</title>
<g id="a_edge27_Node000013_Node000005"><a xlink:title=" ">
<path fill="none" stroke="#63b8ff" d="M553.49,-115.65C562.75,-113.77 572.56,-111.93 581.75,-110.5 727.52,-87.74 769.95,-104.8 918.03,-74.41"/>
<polygon fill="#63b8ff" stroke="#63b8ff" points="918.33,-77.93 927.4,-72.45 916.89,-71.08 918.33,-77.93"/>
</a>
</g>
</g>
<!-- Node13&#45;&gt;Node6 -->
<g id="edge24_Node000013_Node000006" class="edge">
<title>Node13&#45;&gt;Node6</title>
<g id="a_edge24_Node000013_Node000006"><a xlink:title=" ">
<path fill="none" stroke="#63b8ff" d="M455.59,-115.68C377.11,-103.23 238.51,-81.23 175.1,-71.17"/>
<polygon fill="#63b8ff" stroke="#63b8ff" points="175.74,-67.72 165.31,-69.61 174.64,-74.64 175.74,-67.72"/>
</a>
</g>
</g>
<!-- Node13&#45;&gt;Node7 -->
<g id="edge22_Node000013_Node000007" class="edge">
<title>Node13&#45;&gt;Node7</title>
<g id="a_edge22_Node000013_Node000007"><a xlink:title=" ">
<path fill="none" stroke="#63b8ff" d="M464.04,-115.7C417.58,-106.82 345.4,-92.38 274.55,-75.07"/>
<polygon fill="#63b8ff" stroke="#63b8ff" points="275.67,-71.74 265.12,-72.74 273.99,-78.53 275.67,-71.74"/>
</a>
</g>
</g>
<!-- Node13&#45;&gt;Node8 -->
<g id="edge21_Node000013_Node000008" class="edge">
<title>Node13&#45;&gt;Node8</title>
<g id="a_edge21_Node000013_Node000008"><a xlink:title=" ">
<path fill="none" stroke="#63b8ff" d="M482.09,-115.68C448.06,-105.61 392.94,-89.3 355.1,-78.11"/>
<polygon fill="#63b8ff" stroke="#63b8ff" points="356.48,-74.87 345.89,-75.38 354.49,-81.58 356.48,-74.87"/>
</a>
</g>
</g>
<!-- Node13&#45;&gt;Node9 -->
<g id="edge25_Node000013_Node000009" class="edge">
<title>Node13&#45;&gt;Node9</title>
<g id="a_edge25_Node000013_Node000009"><a xlink:title=" ">
<path fill="none" stroke="#63b8ff" d="M553.11,-115.63C562.48,-113.73 572.43,-111.89 581.75,-110.5 750.74,-85.35 798.27,-100.28 970.55,-74.64"/>
<polygon fill="#63b8ff" stroke="#63b8ff" points="970.95,-78.12 980.31,-73.16 969.9,-71.2 970.95,-78.12"/>
</a>
</g>
</g>
<!-- Node14 -->
<g id="Node000014" class="node">
<title>Node14</title>
<g id="a_Node000014"><a xlink:href="ansi_8h.html" target="_top" xlink:title=" ">
<polygon fill="white" stroke="#666666" points="911,-74.5 806.5,-74.5 806.5,-55.25 911,-55.25 911,-74.5"/>
<text xml:space="preserve" text-anchor="middle" x="858.75" y="-61" font-family="Helvetica,sans-Serif" font-size="10.00">fourdst/config/ansi.h</text>
</a>
</g>
</g>
<!-- Node13&#45;&gt;Node14 -->
<g id="edge14_Node000013_Node000014" class="edge">
<title>Node13&#45;&gt;Node14</title>
<g id="a_edge14_Node000013_Node000014"><a xlink:title=" ">
<path fill="none" stroke="#63b8ff" d="M555.39,-115.64C564.1,-113.86 573.21,-112.07 581.75,-110.5 654.58,-97.12 738.6,-83.89 794.83,-75.36"/>
<polygon fill="#63b8ff" stroke="#63b8ff" points="795.18,-78.84 804.55,-73.89 794.14,-71.92 795.18,-78.84"/>
</a>
</g>
</g>
<!-- Node13&#45;&gt;Node17 -->
<g id="edge18_Node000013_Node000017" class="edge">
<title>Node13&#45;&gt;Node17</title>
<g id="a_edge18_Node000013_Node000017"><a xlink:title=" ">
<path fill="none" stroke="#63b8ff" d="M552.37,-115.67C561.95,-113.72 572.18,-111.85 581.75,-110.5 785.99,-81.72 844.09,-110.64 1049.73,-74.7"/>
<polygon fill="#63b8ff" stroke="#63b8ff" points="1050.2,-78.17 1059.43,-72.97 1048.97,-71.28 1050.2,-78.17"/>
</a>
</g>
</g>
<!-- Node18 -->
<g id="Node000018" class="node">
<title>Node18</title>
<g id="a_Node000018"><a xlink:title=" ">
<polygon fill="#e0e0e0" stroke="#999999" points="479.12,-74.5 402.38,-74.5 402.38,-55.25 479.12,-55.25 479.12,-74.5"/>
<text xml:space="preserve" text-anchor="middle" x="440.75" y="-61" font-family="Helvetica,sans-Serif" font-size="10.00">toml++/toml.h</text>
</a>
</g>
</g>
<!-- Node13&#45;&gt;Node18 -->
<g id="edge19_Node000013_Node000018" class="edge">
<title>Node13&#45;&gt;Node18</title>
<g id="a_edge19_Node000013_Node000018"><a xlink:title=" ">
<path fill="none" stroke="#63b8ff" d="M501.81,-115.81C490.93,-106.9 473.96,-93.03 460.67,-82.17"/>
<polygon fill="#63b8ff" stroke="#63b8ff" points="462.92,-79.48 452.96,-75.86 458.49,-84.9 462.92,-79.48"/>
</a>
</g>
</g>
<!-- Node19 -->
<g id="Node000019" class="node">
<title>Node19</title>
<g id="a_Node000019"><a xlink:title=" ">
<polygon fill="#e0e0e0" stroke="#999999" points="550.5,-74.5 497,-74.5 497,-55.25 550.5,-55.25 550.5,-74.5"/>
<text xml:space="preserve" text-anchor="middle" x="523.75" y="-61" font-family="Helvetica,sans-Serif" font-size="10.00">iostream</text>
</a>
</g>
</g>
<!-- Node13&#45;&gt;Node19 -->
<g id="edge23_Node000013_Node000019" class="edge">
<title>Node13&#45;&gt;Node19</title>
<g id="a_edge23_Node000013_Node000019"><a xlink:title=" ">
<path fill="none" stroke="#63b8ff" d="M514.42,-115.81C515.89,-107.94 518.08,-96.2 519.98,-86.07"/>
<polygon fill="#63b8ff" stroke="#63b8ff" points="523.39,-86.86 521.79,-76.39 516.51,-85.58 523.39,-86.86"/>
</a>
</g>
</g>
<!-- Node20 -->
<g id="Node000020" class="node">
<title>Node20</title>
<g id="a_Node000020"><a xlink:title=" ">
<polygon fill="#e0e0e0" stroke="#999999" points="618.62,-74.5 568.88,-74.5 568.88,-55.25 618.62,-55.25 618.62,-74.5"/>
<text xml:space="preserve" text-anchor="middle" x="593.75" y="-61" font-family="Helvetica,sans-Serif" font-size="10.00">optional</text>
</a>
</g>
</g>
<!-- Node13&#45;&gt;Node20 -->
<g id="edge26_Node000013_Node000020" class="edge">
<title>Node13&#45;&gt;Node20</title>
<g id="a_edge26_Node000013_Node000020"><a xlink:title=" ">
<path fill="none" stroke="#63b8ff" d="M525.05,-115.81C537.54,-106.73 557.13,-92.49 572.2,-81.54"/>
<polygon fill="#63b8ff" stroke="#63b8ff" points="574.08,-84.5 580.11,-75.79 569.96,-78.84 574.08,-84.5"/>
</a>
</g>
</g>
<!-- Node21 -->
<g id="Node000021" class="node">
<title>Node21</title>
<g id="a_Node000021"><a xlink:title=" ">
<polygon fill="#e0e0e0" stroke="#999999" points="719.12,-74.5 636.38,-74.5 636.38,-55.25 719.12,-55.25 719.12,-74.5"/>
<text xml:space="preserve" text-anchor="middle" x="677.75" y="-61" font-family="Helvetica,sans-Serif" font-size="10.00">unordered_map</text>
</a>
</g>
</g>
<!-- Node13&#45;&gt;Node21 -->
<g id="edge28_Node000013_Node000021" class="edge">
<title>Node13&#45;&gt;Node21</title>
<g id="a_edge28_Node000013_Node000021"><a xlink:title=" ">
<path fill="none" stroke="#63b8ff" d="M538.17,-115.68C565.91,-105.78 610.53,-89.86 641.83,-78.69"/>
<polygon fill="#63b8ff" stroke="#63b8ff" points="642.63,-82.12 650.88,-75.46 640.28,-75.53 642.63,-82.12"/>
</a>
</g>
</g>
<!-- Node22 -->
<g id="Node000022" class="node">
<title>Node22</title>
<g id="a_Node000022"><a xlink:title=" ">
<polygon fill="#e0e0e0" stroke="#999999" points="788.38,-74.5 737.12,-74.5 737.12,-55.25 788.38,-55.25 788.38,-74.5"/>
<text xml:space="preserve" text-anchor="middle" x="762.75" y="-61" font-family="Helvetica,sans-Serif" font-size="10.00">sstream</text>
</a>
</g>
</g>
<!-- Node13&#45;&gt;Node22 -->
<g id="edge29_Node000013_Node000022" class="edge">
<title>Node13&#45;&gt;Node22</title>
<g id="a_edge29_Node000013_Node000022"><a xlink:title=" ">
<path fill="none" stroke="#63b8ff" d="M552.41,-115.63C593.3,-106.2 659.21,-90.9 725.66,-74.98"/>
<polygon fill="#63b8ff" stroke="#63b8ff" points="726.39,-78.41 735.29,-72.67 724.75,-71.6 726.39,-78.41"/>
</a>
</g>
</g>
<!-- Node14&#45;&gt;Node4 -->
<g id="edge16_Node000014_Node000004" class="edge">
<title>Node14&#45;&gt;Node4</title>
<g id="a_edge16_Node000014_Node000004"><a xlink:title=" ">
<path fill="none" stroke="#63b8ff" d="M806.2,-56.26C803.34,-55.91 800.51,-55.57 797.75,-55.25 615.33,-34.45 395.5,-18.35 315.13,-12.76"/>
<polygon fill="#63b8ff" stroke="#63b8ff" points="315.6,-9.28 305.38,-12.08 315.12,-16.27 315.6,-9.28"/>
</a>
</g>
</g>
<!-- Node15 -->
<g id="Node000015" class="node">
<title>Node15</title>
<g id="a_Node000015"><a xlink:title=" ">
<polygon fill="#e0e0e0" stroke="#999999" points="914,-19.25 869.5,-19.25 869.5,0 914,0 914,-19.25"/>
<text xml:space="preserve" text-anchor="middle" x="891.75" y="-5.75" font-family="Helvetica,sans-Serif" font-size="10.00">cstdlib</text>
</a>
</g>
</g>
<!-- Node14&#45;&gt;Node15 -->
<g id="edge15_Node000014_Node000015" class="edge">
<title>Node14&#45;&gt;Node15</title>
<g id="a_edge15_Node000014_Node000015"><a xlink:title=" ">
<path fill="none" stroke="#63b8ff" d="M864.2,-55.08C868.52,-48.11 874.71,-38.12 880.13,-29.37"/>
<polygon fill="#63b8ff" stroke="#63b8ff" points="883.09,-31.24 885.39,-20.9 877.14,-27.55 883.09,-31.24"/>
</a>
</g>
</g>
<!-- Node16 -->
<g id="Node000016" class="node">
<title>Node16</title>
<g id="a_Node000016"><a xlink:title=" ">
<polygon fill="#e0e0e0" stroke="#999999" points="851,-19.25 800.5,-19.25 800.5,0 851,0 851,-19.25"/>
<text xml:space="preserve" text-anchor="middle" x="825.75" y="-5.75" font-family="Helvetica,sans-Serif" font-size="10.00">unistd.h</text>
</a>
</g>
</g>
<!-- Node14&#45;&gt;Node16 -->
<g id="edge17_Node000014_Node000016" class="edge">
<title>Node14&#45;&gt;Node16</title>
<g id="a_edge17_Node000014_Node000016"><a xlink:title=" ">
<path fill="none" stroke="#63b8ff" d="M853.3,-55.08C848.98,-48.11 842.79,-38.12 837.37,-29.37"/>
<polygon fill="#63b8ff" stroke="#63b8ff" points="840.36,-27.55 832.11,-20.9 834.41,-31.24 840.36,-27.55"/>
</a>
</g>
</g>
<!-- Node25&#45;&gt;Node2 -->
<g id="edge36_Node000025_Node000002" class="edge">
<title>Node25&#45;&gt;Node2</title>
<g id="a_edge36_Node000025_Node000002"><a xlink:title=" ">
<path fill="none" stroke="#63b8ff" d="M847.28,-231.78C807.23,-222.78 745.77,-208.98 702.26,-199.2"/>
<polygon fill="#63b8ff" stroke="#63b8ff" points="703.06,-195.79 692.53,-197.01 701.52,-202.62 703.06,-195.79"/>
</a>
</g>
</g>
<!-- Node25&#45;&gt;Node9 -->
<g id="edge35_Node000025_Node000009" class="edge">
<title>Node25&#45;&gt;Node9</title>
<g id="a_edge35_Node000025_Node000009"><a xlink:title=" ">
<path fill="none" stroke="#63b8ff" d="M894.12,-231.96C913.68,-204.58 973.12,-121.36 999.68,-84.17"/>
<polygon fill="#63b8ff" stroke="#63b8ff" points="1002.4,-86.39 1005.36,-76.22 996.7,-82.32 1002.4,-86.39"/>
</a>
</g>
</g>
<!-- Node25&#45;&gt;Node17 -->
<g id="edge37_Node000025_Node000017" class="edge">
<title>Node25&#45;&gt;Node17</title>
<g id="a_edge37_Node000025_Node000017"><a xlink:title=" ">
<path fill="none" stroke="#63b8ff" d="M898.83,-231.78C909.63,-222.86 926.48,-208.8 940.75,-196.25 986.16,-156.32 1038.21,-107.8 1064.91,-82.72"/>
<polygon fill="#63b8ff" stroke="#63b8ff" points="1067.25,-85.31 1072.14,-75.91 1062.46,-80.22 1067.25,-85.31"/>
</a>
</g>
</g>
</g>
</svg>
