<?xml version="1.0" encoding="UTF-8" standalone="no"?>
<!DOCTYPE svg PUBLIC "-//W3C//DTD SVG 1.1//EN"
 "http://www.w3.org/Graphics/SVG/1.1/DTD/svg11.dtd">
<!-- Generated by graphviz version 13.0.1 (20250615.1724)
 -->
<!-- Title: src/config/include/fourdst/config/exceptions/exceptions.h Pages: 1 -->
<svg width="196pt" height="249pt"
 viewBox="0.00 0.00 196.00 249.00" xmlns="http://www.w3.org/2000/svg" xmlns:xlink="http://www.w3.org/1999/xlink">
<g id="graph0" class="graph" transform="scale(1 1) rotate(0) translate(4 245.25)">
<title>src/config/include/fourdst/config/exceptions/exceptions.h</title>
<!-- Node1 -->
<g id="Node000001" class="node">
<title>Node1</title>
<g id="a_Node000001"><a xlink:title="Exception classes for the configuration library.">
<polygon fill="#999999" stroke="#666666" points="187.88,-241.25 59.38,-241.25 59.38,-199.5 187.88,-199.5 187.88,-241.25"/>
<text xml:space="preserve" text-anchor="start" x="67.38" y="-227.75" font-family="Helvetica,sans-Serif" font-size="10.00">src/config/include</text>
<text xml:space="preserve" text-anchor="start" x="67.38" y="-216.5" font-family="Helvetica,sans-Serif" font-size="10.00">/fourdst/config/exceptions</text>
<text xml:space="preserve" text-anchor="middle" x="123.62" y="-205.25" font-family="Helvetica,sans-Serif" font-size="10.00">/exceptions.h</text>
</a>
</g>
</g>
<!-- Node2 -->
<g id="Node000002" class="node">
<title>Node2</title>
<g id="a_Node000002"><a xlink:href="base_8h.html" target="_top" xlink:title="Core configuration management classes and concepts.">
<polygon fill="white" stroke="#666666" points="137.88,-163.5 27.38,-163.5 27.38,-133 137.88,-133 137.88,-163.5"/>
<text xml:space="preserve" text-anchor="start" x="35.38" y="-150" font-family="Helvetica,sans-Serif" font-size="10.00">src/config/include</text>
<text xml:space="preserve" text-anchor="middle" x="82.62" y="-138.75" font-family="Helvetica,sans-Serif" font-size="10.00">/fourdst/config/base.h</text>
</a>
</g>
</g>
<!-- Node1&#45;&gt;Node2 -->
<g id="edge1_Node000001_Node000002" class="edge">
<title>Node1&#45;&gt;Node2</title>
<g id="a_edge1_Node000001_Node000002"><a xlink:title=" ">
<path fill="none" stroke="#63b8ff" d="M106.08,-189.36C100.88,-180.47 95.42,-171.13 91.07,-163.7"/>
<polygon fill="#63b8ff" stroke="#63b8ff" points="102.93,-190.92 111,-197.79 108.98,-187.39 102.93,-190.92"/>
</a>
</g>
</g>
<!-- Node4 -->
<g id="Node000004" class="node">
<title>Node4</title>
<g id="a_Node000004"><a xlink:href="config_8h.html" target="_top" xlink:title="Main entry point for the fourdst::config library.">
<polygon fill="white" stroke="#666666" points="185.5,-30.5 69.75,-30.5 69.75,0 185.5,0 185.5,-30.5"/>
<text xml:space="preserve" text-anchor="start" x="77.75" y="-17" font-family="Helvetica,sans-Serif" font-size="10.00">src/config/include</text>
<text xml:space="preserve" text-anchor="middle" x="127.62" y="-5.75" font-family="Helvetica,sans-Serif" font-size="10.00">/fourdst/config/config.h</text>
</a>
</g>
</g>
<!-- Node1&#45;&gt;Node4 -->
<g id="edge5_Node000001_Node000004" class="edge">
<title>Node1&#45;&gt;Node4</title>
<g id="a_edge5_Node000001_Node000004"><a xlink:title=" ">
<path fill="none" stroke="#63b8ff" d="M138.77,-188.67C142.01,-180.66 144.96,-171.92 146.62,-163.5 156.13,-115.46 141.06,-57.62 132.66,-30.99"/>
<polygon fill="#63b8ff" stroke="#63b8ff" points="135.65,-187.06 134.86,-197.63 142.06,-189.86 135.65,-187.06"/>
</a>
</g>
</g>
<!-- Node3 -->
<g id="Node000003" class="node">
<title>Node3</title>
<g id="a_Node000003"><a xlink:href="cli_8h.html" target="_top" xlink:title="Integration layer between libconfig and CLI applications.">
<polygon fill="white" stroke="#666666" points="99.25,-97 0,-97 0,-66.5 99.25,-66.5 99.25,-97"/>
<text xml:space="preserve" text-anchor="start" x="8" y="-83.5" font-family="Helvetica,sans-Serif" font-size="10.00">src/config/include</text>
<text xml:space="preserve" text-anchor="middle" x="49.62" y="-72.25" font-family="Helvetica,sans-Serif" font-size="10.00">/fourdst/config/cli.h</text>
</a>
</g>
</g>
<!-- Node2&#45;&gt;Node3 -->
<g id="edge2_Node000002_Node000003" class="edge">
<title>Node2&#45;&gt;Node3</title>
<g id="a_edge2_Node000002_Node000003"><a xlink:title=" ">
<path fill="none" stroke="#63b8ff" d="M69.93,-122.44C65.59,-113.96 60.88,-104.74 57.08,-97.33"/>
<polygon fill="#63b8ff" stroke="#63b8ff" points="66.78,-123.96 74.45,-131.27 73.01,-120.77 66.78,-123.96"/>
</a>
</g>
</g>
<!-- Node2&#45;&gt;Node4 -->
<g id="edge4_Node000002_Node000004" class="edge">
<title>Node2&#45;&gt;Node4</title>
<g id="a_edge4_Node000002_Node000004"><a xlink:title=" ">
<path fill="none" stroke="#63b8ff" d="M96.76,-122.9C101.01,-114.84 105.4,-105.71 108.62,-97 116.92,-74.58 122.45,-47.28 125.31,-30.86"/>
<polygon fill="#63b8ff" stroke="#63b8ff" points="93.83,-120.96 92.08,-131.41 99.96,-124.33 93.83,-120.96"/>
</a>
</g>
</g>
<!-- Node3&#45;&gt;Node4 -->
<g id="edge3_Node000003_Node000004" class="edge">
<title>Node3&#45;&gt;Node4</title>
<g id="a_edge3_Node000003_Node000004"><a xlink:title=" ">
<path fill="none" stroke="#63b8ff" d="M75.91,-59.02C87.13,-49.73 99.94,-39.15 110,-30.83"/>
<polygon fill="#63b8ff" stroke="#63b8ff" points="73.97,-56.08 68.49,-65.15 78.43,-61.47 73.97,-56.08"/>
</a>
</g>
</g>
</g>
</svg>
