<?xml version="1.0" encoding="UTF-8" standalone="no"?>
<!DOCTYPE svg PUBLIC "-//W3C//DTD SVG 1.1//EN"
 "http://www.w3.org/Graphics/SVG/1.1/DTD/svg11.dtd">
<!-- Generated by graphviz version 13.0.1 (20250615.1724)
 -->
<!-- Title: Graphical Class Hierarchy Pages: 1 -->
<svg width="249pt" height="98pt"
 viewBox="0.00 0.00 249.00 98.00" xmlns="http://www.w3.org/2000/svg" xmlns:xlink="http://www.w3.org/1999/xlink">
<g id="graph0" class="graph" transform="scale(1 1) rotate(0) translate(4 94.12)">
<title>Graphical Class Hierarchy</title>
<!-- Node0 -->
<g id="Node000000" class="node">
<title>Node0</title>
<g id="a_Node000000"><a xlink:title=" ">
<polygon fill="#e0e0e0" stroke="#999999" points="80.5,-32.88 0,-32.88 0,-13.62 80.5,-13.62 80.5,-32.88"/>
<text xml:space="preserve" text-anchor="middle" x="40.25" y="-19.38" font-family="Helvetica,sans-Serif" font-size="10.00">std::false_type</text>
</a>
</g>
</g>
<!-- Node1 -->
<g id="Node000001" class="node">
<title>Node1</title>
<g id="a_Node000001"><a xlink:href="structfourdst_1_1config_1_1is__config__wrapper_3_01_config_3_01_t_01_4_01_4.html" target="_top" xlink:title="Specialization of is_config_wrapper for Config&lt;T&gt;.">
<polygon fill="white" stroke="#666666" points="241.25,-90.12 116.5,-90.12 116.5,-48.38 241.25,-48.38 241.25,-90.12"/>
<text xml:space="preserve" text-anchor="start" x="124.5" y="-76.62" font-family="Helvetica,sans-Serif" font-size="10.00">fourdst::config::is</text>
<text xml:space="preserve" text-anchor="start" x="124.5" y="-65.38" font-family="Helvetica,sans-Serif" font-size="10.00">_config_wrapper&lt; Config</text>
<text xml:space="preserve" text-anchor="middle" x="178.88" y="-54.12" font-family="Helvetica,sans-Serif" font-size="10.00">&lt; T &gt; &gt;</text>
</a>
</g>
</g>
<!-- Node0&#45;&gt;Node1 -->
<g id="edge6_Node000000_Node000001" class="edge">
<title>Node0&#45;&gt;Node1</title>
<g id="a_edge6_Node000000_Node000001"><a xlink:title=" ">
<path fill="none" stroke="#63b8ff" d="M81.95,-36.95C92.66,-40.56 104.46,-44.53 116.01,-48.42"/>
<polygon fill="#63b8ff" stroke="#63b8ff" points="83.26,-33.7 72.67,-33.83 81.03,-40.34 83.26,-33.7"/>
</a>
</g>
</g>
<!-- Node3 -->
<g id="Node000003" class="node">
<title>Node3</title>
<g id="a_Node000003"><a xlink:href="structfourdst_1_1config_1_1is__config__wrapper.html" target="_top" xlink:title="Type trait to determine if a type is a Config wrapper.">
<polygon fill="white" stroke="#666666" points="234.5,-30.5 123.25,-30.5 123.25,0 234.5,0 234.5,-30.5"/>
<text xml:space="preserve" text-anchor="start" x="131.25" y="-17" font-family="Helvetica,sans-Serif" font-size="10.00">fourdst::config::is</text>
<text xml:space="preserve" text-anchor="middle" x="178.88" y="-5.75" font-family="Helvetica,sans-Serif" font-size="10.00">_config_wrapper&lt; T &gt;</text>
</a>
</g>
</g>
<!-- Node0&#45;&gt;Node3 -->
<g id="edge7_Node000000_Node000003" class="edge">
<title>Node0&#45;&gt;Node3</title>
<g id="a_edge7_Node000000_Node000003"><a xlink:title=" ">
<path fill="none" stroke="#63b8ff" d="M92.23,-20.26C102.25,-19.68 112.8,-19.06 122.95,-18.47"/>
<polygon fill="#63b8ff" stroke="#63b8ff" points="92.06,-16.77 82.28,-20.85 92.47,-23.76 92.06,-16.77"/>
</a>
</g>
</g>
<!-- Node2 -->
<g id="Node000002" class="node">
<title>Node2</title>
<g id="a_Node000002"><a xlink:title=" ">
<polygon fill="#e0e0e0" stroke="#999999" points="78.25,-78.88 2.25,-78.88 2.25,-59.62 78.25,-59.62 78.25,-78.88"/>
<text xml:space="preserve" text-anchor="middle" x="40.25" y="-65.38" font-family="Helvetica,sans-Serif" font-size="10.00">std::true_type</text>
</a>
</g>
</g>
<!-- Node2&#45;&gt;Node1 -->
<g id="edge8_Node000002_Node000001" class="edge">
<title>Node2&#45;&gt;Node1</title>
<g id="a_edge8_Node000002_Node000001"><a xlink:title=" ">
<path fill="none" stroke="#63b8ff" d="M89.86,-69.25C98.37,-69.25 107.33,-69.25 116.15,-69.25"/>
<polygon fill="#63b8ff" stroke="#63b8ff" points="90.1,-65.75 80.1,-69.25 90.1,-72.75 90.1,-65.75"/>
</a>
</g>
</g>
</g>
</svg>
