<?xml version="1.0" encoding="UTF-8" standalone="no"?>
<!DOCTYPE svg PUBLIC "-//W3C//DTD SVG 1.1//EN"
 "http://www.w3.org/Graphics/SVG/1.1/DTD/svg11.dtd">
<!-- Generated by graphviz version 14.1.2 (20260124.0452)
 -->
<!-- Title: Graphical Class Hierarchy Pages: 1 -->
<svg width="273pt" height="485pt"
 viewBox="0.00 0.00 273.00 485.00" xmlns="http://www.w3.org/2000/svg" xmlns:xlink="http://www.w3.org/1999/xlink">
<g id="graph0" class="graph" transform="scale(1 1) rotate(0) translate(4 481.12)">
<title>Graphical Class Hierarchy</title>
<!-- Node0 -->
<g id="Node000000" class="node">
<title>Node0</title>
<g id="a_Node000000"><a xlink:title=" ">
<polygon fill="#e0e0e0" stroke="#999999" points="80.5,-225.88 0,-225.88 0,-206.62 80.5,-206.62 80.5,-225.88"/>
<text xml:space="preserve" text-anchor="middle" x="40.25" y="-212.38" font-family="Helvetica,sans-Serif" font-size="10.00">std::false_type</text>
</a>
</g>
</g>
<!-- Node1 -->
<g id="Node000001" class="node">
<title>Node1</title>
<g id="a_Node000001"><a xlink:href="structfourdst_1_1config_1_1is__config__wrapper_3_01_config_3_01_t_01_4_01_4.html" target="_top" xlink:title="Specialization of is_config_wrapper for Config&lt;T&gt;.">
<polygon fill="white" stroke="#666666" points="252.88,-297.12 128.12,-297.12 128.12,-255.38 252.88,-255.38 252.88,-297.12"/>
<text xml:space="preserve" text-anchor="start" x="136.12" y="-283.62" font-family="Helvetica,sans-Serif" font-size="10.00">fourdst::config::is</text>
<text xml:space="preserve" text-anchor="start" x="136.12" y="-272.38" font-family="Helvetica,sans-Serif" font-size="10.00">_config_wrapper&lt; Config</text>
<text xml:space="preserve" text-anchor="middle" x="190.5" y="-261.12" font-family="Helvetica,sans-Serif" font-size="10.00">&lt; T &gt; &gt;</text>
</a>
</g>
</g>
<!-- Node0&#45;&gt;Node1 -->
<g id="edge6_Node000000_Node000001" class="edge">
<title>Node0&#45;&gt;Node1</title>
<g id="a_edge6_Node000000_Node000001"><a xlink:title=" ">
<path fill="none" stroke="#63b8ff" d="M76.67,-230.59C94.69,-237.88 116.94,-246.88 136.9,-254.96"/>
<polygon fill="#63b8ff" stroke="#63b8ff" points="78.05,-227.37 67.47,-226.86 75.42,-233.86 78.05,-227.37"/>
</a>
</g>
</g>
<!-- Node3 -->
<g id="Node000003" class="node">
<title>Node3</title>
<g id="a_Node000003"><a xlink:href="structfourdst_1_1config_1_1validate_1_1is__map__impl_3_01std_1_1map_3_01_k_00_01_v_00_01_c_00_01_a_01_4_01_4.html" target="_top" xlink:title=" ">
<polygon fill="white" stroke="#666666" points="252.5,-237.12 128.5,-237.12 128.5,-195.38 252.5,-195.38 252.5,-237.12"/>
<text xml:space="preserve" text-anchor="start" x="136.5" y="-223.62" font-family="Helvetica,sans-Serif" font-size="10.00">fourdst::config::validate</text>
<text xml:space="preserve" text-anchor="start" x="136.5" y="-212.38" font-family="Helvetica,sans-Serif" font-size="10.00">::is_map_impl&lt; std::map</text>
<text xml:space="preserve" text-anchor="middle" x="190.5" y="-201.12" font-family="Helvetica,sans-Serif" font-size="10.00">&lt; K, V, C, A &gt; &gt;</text>
</a>
</g>
</g>
<!-- Node0&#45;&gt;Node3 -->
<g id="edge7_Node000000_Node000003" class="edge">
<title>Node0&#45;&gt;Node3</title>
<g id="a_edge7_Node000000_Node000003"><a xlink:title=" ">
<path fill="none" stroke="#63b8ff" d="M92.22,-216.25C103.8,-216.25 116.21,-216.25 128.16,-216.25"/>
<polygon fill="#63b8ff" stroke="#63b8ff" points="92.49,-212.75 82.49,-216.25 92.49,-219.75 92.49,-212.75"/>
</a>
</g>
</g>
<!-- Node4 -->
<g id="Node000004" class="node">
<title>Node4</title>
<g id="a_Node000004"><a xlink:href="structfourdst_1_1config_1_1validate_1_1is__map__impl_3_01std_1_1unordered__map_3_01_k_00_01_v_00_01_h_00_01_e_00_01_a_01_4_01_4.html" target="_top" xlink:title=" ">
<polygon fill="white" stroke="#666666" points="264.5,-477.12 116.5,-477.12 116.5,-435.38 264.5,-435.38 264.5,-477.12"/>
<text xml:space="preserve" text-anchor="start" x="124.5" y="-463.62" font-family="Helvetica,sans-Serif" font-size="10.00">fourdst::config::validate</text>
<text xml:space="preserve" text-anchor="start" x="124.5" y="-452.38" font-family="Helvetica,sans-Serif" font-size="10.00">::is_map_impl&lt; std::unordered</text>
<text xml:space="preserve" text-anchor="middle" x="190.5" y="-441.12" font-family="Helvetica,sans-Serif" font-size="10.00">_map&lt; K, V, H, E, A &gt; &gt;</text>
</a>
</g>
</g>
<!-- Node0&#45;&gt;Node4 -->
<g id="edge8_Node000000_Node000004" class="edge">
<title>Node0&#45;&gt;Node4</title>
<g id="a_edge8_Node000000_Node000004"><a xlink:title=" ">
<path fill="none" stroke="#63b8ff" d="M49.56,-236.7C57.72,-257.03 70.4,-289.13 80.5,-317.25 97.75,-365.27 81.73,-388.92 116.5,-426.25 119.49,-429.46 122.87,-432.33 126.5,-434.91"/>
<polygon fill="#63b8ff" stroke="#63b8ff" points="52.88,-235.59 45.89,-227.62 46.39,-238.21 52.88,-235.59"/>
</a>
</g>
</g>
<!-- Node5 -->
<g id="Node000005" class="node">
<title>Node5</title>
<g id="a_Node000005"><a xlink:href="structfourdst_1_1config_1_1validate_1_1is__optional__impl_3_01std_1_1optional_3_01_t_01_4_01_4.html" target="_top" xlink:title=" ">
<polygon fill="white" stroke="#666666" points="249.5,-417.12 131.5,-417.12 131.5,-375.38 249.5,-375.38 249.5,-417.12"/>
<text xml:space="preserve" text-anchor="start" x="139.5" y="-403.62" font-family="Helvetica,sans-Serif" font-size="10.00">fourdst::config::validate</text>
<text xml:space="preserve" text-anchor="start" x="139.5" y="-392.38" font-family="Helvetica,sans-Serif" font-size="10.00">::is_optional_impl&lt; std</text>
<text xml:space="preserve" text-anchor="middle" x="190.5" y="-381.12" font-family="Helvetica,sans-Serif" font-size="10.00">::optional&lt; T &gt; &gt;</text>
</a>
</g>
</g>
<!-- Node0&#45;&gt;Node5 -->
<g id="edge9_Node000000_Node000005" class="edge">
<title>Node0&#45;&gt;Node5</title>
<g id="a_edge9_Node000000_Node000005"><a xlink:title=" ">
<path fill="none" stroke="#63b8ff" d="M49.33,-236.52C64.15,-272.91 96.07,-347.3 116.5,-366.25 120.92,-370.35 125.98,-373.93 131.32,-377.04"/>
<polygon fill="#63b8ff" stroke="#63b8ff" points="52.7,-235.53 45.71,-227.56 46.21,-238.15 52.7,-235.53"/>
</a>
</g>
</g>
<!-- Node6 -->
<g id="Node000006" class="node">
<title>Node6</title>
<g id="a_Node000006"><a xlink:href="structfourdst_1_1config_1_1validate_1_1is__vector__impl_3_01std_1_1vector_3_01_t_00_01_a_01_4_01_4.html" target="_top" xlink:title=" ">
<polygon fill="white" stroke="#666666" points="249.5,-357.12 131.5,-357.12 131.5,-315.38 249.5,-315.38 249.5,-357.12"/>
<text xml:space="preserve" text-anchor="start" x="139.5" y="-343.62" font-family="Helvetica,sans-Serif" font-size="10.00">fourdst::config::validate</text>
<text xml:space="preserve" text-anchor="start" x="139.5" y="-332.38" font-family="Helvetica,sans-Serif" font-size="10.00">::is_vector_impl&lt; std::</text>
<text xml:space="preserve" text-anchor="middle" x="190.5" y="-321.12" font-family="Helvetica,sans-Serif" font-size="10.00">vector&lt; T, A &gt; &gt;</text>
</a>
</g>
</g>
<!-- Node0&#45;&gt;Node6 -->
<g id="edge10_Node000000_Node000006" class="edge">
<title>Node0&#45;&gt;Node6</title>
<g id="a_edge10_Node000000_Node000006"><a xlink:title=" ">
<path fill="none" stroke="#63b8ff" d="M53.49,-235.89C66.85,-255.93 89.9,-286.77 116.5,-306.25 121.03,-309.57 125.99,-312.6 131.11,-315.34"/>
<polygon fill="#63b8ff" stroke="#63b8ff" points="56.46,-234.03 48.09,-227.54 50.58,-237.83 56.46,-234.03"/>
</a>
</g>
</g>
<!-- Node7 -->
<g id="Node000007" class="node">
<title>Node7</title>
<g id="a_Node000007"><a xlink:href="structfourdst_1_1config_1_1is__config__wrapper.html" target="_top" xlink:title="Type trait to determine if a type is a Config wrapper.">
<polygon fill="white" stroke="#666666" points="246.12,-30.5 134.88,-30.5 134.88,0 246.12,0 246.12,-30.5"/>
<text xml:space="preserve" text-anchor="start" x="142.88" y="-17" font-family="Helvetica,sans-Serif" font-size="10.00">fourdst::config::is</text>
<text xml:space="preserve" text-anchor="middle" x="190.5" y="-5.75" font-family="Helvetica,sans-Serif" font-size="10.00">_config_wrapper&lt; T &gt;</text>
</a>
</g>
</g>
<!-- Node0&#45;&gt;Node7 -->
<g id="edge11_Node000000_Node000007" class="edge">
<title>Node0&#45;&gt;Node7</title>
<g id="a_edge11_Node000000_Node000007"><a xlink:title=" ">
<path fill="none" stroke="#63b8ff" d="M44.58,-195.03C51.44,-158.35 70.54,-82.93 116.5,-40.25 121.7,-35.42 127.88,-31.52 134.41,-28.37"/>
<polygon fill="#63b8ff" stroke="#63b8ff" points="41.15,-194.33 42.9,-204.78 48.05,-195.52 41.15,-194.33"/>
</a>
</g>
</g>
<!-- Node8 -->
<g id="Node000008" class="node">
<title>Node8</title>
<g id="a_Node000008"><a xlink:href="structfourdst_1_1config_1_1validate_1_1is__map__impl.html" target="_top" xlink:title=" ">
<polygon fill="white" stroke="#666666" points="249.5,-177.5 131.5,-177.5 131.5,-147 249.5,-147 249.5,-177.5"/>
<text xml:space="preserve" text-anchor="start" x="139.5" y="-164" font-family="Helvetica,sans-Serif" font-size="10.00">fourdst::config::validate</text>
<text xml:space="preserve" text-anchor="middle" x="190.5" y="-152.75" font-family="Helvetica,sans-Serif" font-size="10.00">::is_map_impl&lt; T &gt;</text>
</a>
</g>
</g>
<!-- Node0&#45;&gt;Node8 -->
<g id="edge12_Node000000_Node000008" class="edge">
<title>Node0&#45;&gt;Node8</title>
<g id="a_edge12_Node000000_Node000008"><a xlink:title=" ">
<path fill="none" stroke="#63b8ff" d="M76.09,-201.84C88.75,-196.74 103.21,-191.08 116.5,-186.25 124.15,-183.47 132.3,-180.65 140.27,-177.97"/>
<polygon fill="#63b8ff" stroke="#63b8ff" points="74.86,-198.56 66.91,-205.57 77.49,-205.05 74.86,-198.56"/>
</a>
</g>
</g>
<!-- Node9 -->
<g id="Node000009" class="node">
<title>Node9</title>
<g id="a_Node000009"><a xlink:href="structfourdst_1_1config_1_1validate_1_1is__optional__impl.html" target="_top" xlink:title=" ">
<polygon fill="white" stroke="#666666" points="249.5,-128.5 131.5,-128.5 131.5,-98 249.5,-98 249.5,-128.5"/>
<text xml:space="preserve" text-anchor="start" x="139.5" y="-115" font-family="Helvetica,sans-Serif" font-size="10.00">fourdst::config::validate</text>
<text xml:space="preserve" text-anchor="middle" x="190.5" y="-103.75" font-family="Helvetica,sans-Serif" font-size="10.00">::is_optional_impl&lt; T &gt;</text>
</a>
</g>
</g>
<!-- Node0&#45;&gt;Node9 -->
<g id="edge13_Node000000_Node000009" class="edge">
<title>Node0&#45;&gt;Node9</title>
<g id="a_edge13_Node000000_Node000009"><a xlink:title=" ">
<path fill="none" stroke="#63b8ff" d="M55.14,-197.37C68.94,-179.83 91.59,-154.1 116.5,-138.25 122.04,-134.73 128.13,-131.64 134.36,-128.94"/>
<polygon fill="#63b8ff" stroke="#63b8ff" points="52.64,-194.88 49.35,-204.95 58.2,-199.13 52.64,-194.88"/>
</a>
</g>
</g>
<!-- Node10 -->
<g id="Node000010" class="node">
<title>Node10</title>
<g id="a_Node000010"><a xlink:href="structfourdst_1_1config_1_1validate_1_1is__vector__impl.html" target="_top" xlink:title=" ">
<polygon fill="white" stroke="#666666" points="249.5,-79.5 131.5,-79.5 131.5,-49 249.5,-49 249.5,-79.5"/>
<text xml:space="preserve" text-anchor="start" x="139.5" y="-66" font-family="Helvetica,sans-Serif" font-size="10.00">fourdst::config::validate</text>
<text xml:space="preserve" text-anchor="middle" x="190.5" y="-54.75" font-family="Helvetica,sans-Serif" font-size="10.00">::is_vector_impl&lt; T &gt;</text>
</a>
</g>
</g>
<!-- Node0&#45;&gt;Node10 -->
<g id="edge14_Node000000_Node000010" class="edge">
<title>Node0&#45;&gt;Node10</title>
<g id="a_edge14_Node000000_Node000010"><a xlink:title=" ">
<path fill="none" stroke="#63b8ff" d="M48.16,-195.91C58.65,-167.98 81.19,-117.98 116.5,-89.25 120.97,-85.61 126,-82.5 131.27,-79.82"/>
<polygon fill="#63b8ff" stroke="#63b8ff" points="44.99,-194.38 44.91,-204.97 51.58,-196.74 44.99,-194.38"/>
</a>
</g>
</g>
<!-- Node2 -->
<g id="Node000002" class="node">
<title>Node2</title>
<g id="a_Node000002"><a xlink:title=" ">
<polygon fill="#e0e0e0" stroke="#999999" points="78.25,-345.88 2.25,-345.88 2.25,-326.62 78.25,-326.62 78.25,-345.88"/>
<text xml:space="preserve" text-anchor="middle" x="40.25" y="-332.38" font-family="Helvetica,sans-Serif" font-size="10.00">std::true_type</text>
</a>
</g>
</g>
<!-- Node2&#45;&gt;Node1 -->
<g id="edge15_Node000002_Node000001" class="edge">
<title>Node2&#45;&gt;Node1</title>
<g id="a_edge15_Node000002_Node000001"><a xlink:title=" ">
<path fill="none" stroke="#63b8ff" d="M76.67,-321.91C94.69,-314.62 116.94,-305.62 136.9,-297.54"/>
<polygon fill="#63b8ff" stroke="#63b8ff" points="75.42,-318.64 67.47,-325.64 78.05,-325.13 75.42,-318.64"/>
</a>
</g>
</g>
<!-- Node2&#45;&gt;Node3 -->
<g id="edge16_Node000002_Node000003" class="edge">
<title>Node2&#45;&gt;Node3</title>
<g id="a_edge16_Node000002_Node000003"><a xlink:title=" ">
<path fill="none" stroke="#63b8ff" d="M53.49,-316.61C66.85,-296.57 89.9,-265.73 116.5,-246.25 120.81,-243.09 125.5,-240.2 130.36,-237.57"/>
<polygon fill="#63b8ff" stroke="#63b8ff" points="50.58,-314.67 48.09,-324.96 56.46,-318.47 50.58,-314.67"/>
</a>
</g>
</g>
<!-- Node2&#45;&gt;Node4 -->
<g id="edge17_Node000002_Node000004" class="edge">
<title>Node2&#45;&gt;Node4</title>
<g id="a_edge17_Node000002_Node000004"><a xlink:title=" ">
<path fill="none" stroke="#63b8ff" d="M53.49,-355.89C66.85,-375.93 89.9,-406.77 116.5,-426.25 120.81,-429.41 125.5,-432.3 130.36,-434.93"/>
<polygon fill="#63b8ff" stroke="#63b8ff" points="56.46,-354.03 48.09,-347.54 50.58,-357.83 56.46,-354.03"/>
</a>
</g>
</g>
<!-- Node2&#45;&gt;Node5 -->
<g id="edge18_Node000002_Node000005" class="edge">
<title>Node2&#45;&gt;Node5</title>
<g id="a_edge18_Node000002_Node000005"><a xlink:title=" ">
<path fill="none" stroke="#63b8ff" d="M76.67,-350.59C94.69,-357.88 116.94,-366.88 136.9,-374.96"/>
<polygon fill="#63b8ff" stroke="#63b8ff" points="78.05,-347.37 67.47,-346.86 75.42,-353.86 78.05,-347.37"/>
</a>
</g>
</g>
<!-- Node2&#45;&gt;Node6 -->
<g id="edge19_Node000002_Node000006" class="edge">
<title>Node2&#45;&gt;Node6</title>
<g id="a_edge19_Node000002_Node000006"><a xlink:title=" ">
<path fill="none" stroke="#63b8ff" d="M89.86,-336.25C103.02,-336.25 117.4,-336.25 131.03,-336.25"/>
<polygon fill="#63b8ff" stroke="#63b8ff" points="90.17,-332.75 80.17,-336.25 90.17,-339.75 90.17,-332.75"/>
</a>
</g>
</g>
</g>
</svg>
