<?xml version="1.0" encoding="UTF-8" standalone="no"?>
<!DOCTYPE svg PUBLIC "-//W3C//DTD SVG 1.1//EN"
 "http://www.w3.org/Graphics/SVG/1.1/DTD/svg11.dtd">
<!-- Generated by graphviz version 14.1.2 (20260124.0452)
 -->
<!-- Title: fourdst::config::validate::MissingFieldTree Pages: 1 -->
<svg width="230pt" height="195pt"
 viewBox="0.00 0.00 230.00 195.00" xmlns="http://www.w3.org/2000/svg" xmlns:xlink="http://www.w3.org/1999/xlink">
<g id="graph0" class="graph" transform="scale(1 1) rotate(0) translate(4 191)">
<title>fourdst::config::validate::MissingFieldTree</title>
<!-- Node1 -->
<g id="Node000001" class="node">
<title>Node1</title>
<g id="a_Node000001"><a xlink:title=" ">
<polygon fill="#999999" stroke="#666666" points="118,-119.5 0,-119.5 0,-89 118,-89 118,-119.5"/>
<text xml:space="preserve" text-anchor="start" x="8" y="-106" font-family="Helvetica,sans-Serif" font-size="10.00">fourdst::config::validate</text>
<text xml:space="preserve" text-anchor="middle" x="59" y="-94.75" font-family="Helvetica,sans-Serif" font-size="10.00">::MissingFieldTree</text>
</a>
</g>
</g>
<!-- Node2 -->
<g id="Node000002" class="node">
<title>Node2</title>
<g id="a_Node000002"><a xlink:title=" ">
<polygon fill="white" stroke="#666666" points="175.5,-41.75 54.5,-41.75 54.5,0 175.5,0 175.5,-41.75"/>
<text xml:space="preserve" text-anchor="start" x="62.5" y="-28.25" font-family="Helvetica,sans-Serif" font-size="10.00">std::map&lt; std::string,</text>
<text xml:space="preserve" text-anchor="start" x="62.5" y="-17" font-family="Helvetica,sans-Serif" font-size="10.00"> fourdst::config::validate</text>
<text xml:space="preserve" text-anchor="middle" x="115" y="-5.75" font-family="Helvetica,sans-Serif" font-size="10.00">::MissingFieldTree &gt;</text>
</a>
</g>
</g>
<!-- Node1&#45;&gt;Node2 -->
<g id="edge4_Node000002_Node000001" class="edge">
<title>Node1&#45;&gt;Node2</title>
<g id="a_edge4_Node000002_Node000001"><a xlink:title=" ">
<path fill="none" stroke="#9a32cd" stroke-dasharray="5,2" d="M44.95,-78.56C43.11,-72.17 42.86,-65.48 46.25,-59.75 50.41,-52.71 56.39,-46.89 63.12,-42.1"/>
<polygon fill="#9a32cd" stroke="#9a32cd" points="41.56,-79.52 48.62,-87.42 48.02,-76.84 41.56,-79.52"/>
</a>
</g>
<text xml:space="preserve" text-anchor="middle" x="67.62" y="-61.5" font-family="Helvetica,sans-Serif" font-size="10.00" fill="grey"> elements</text>
</g>
<!-- Node2&#45;&gt;Node1 -->
<g id="edge1_Node000001_Node000002" class="edge">
<title>Node2&#45;&gt;Node1</title>
<g id="a_edge1_Node000001_Node000002"><a xlink:title=" ">
<path fill="none" stroke="#9a32cd" stroke-dasharray="5,2" d="M103.55,-52.42C100.55,-58.82 97.01,-65.33 93,-71 88.48,-77.37 82.57,-83.5 76.95,-88.67"/>
<polygon fill="#9a32cd" stroke="#9a32cd" points="106.72,-53.9 107.48,-43.34 100.3,-51.13 106.72,-53.9"/>
</a>
</g>
<text xml:space="preserve" text-anchor="middle" x="117.57" y="-61.5" font-family="Helvetica,sans-Serif" font-size="10.00" fill="grey"> children</text>
</g>
<!-- Node3 -->
<g id="Node000003" class="node">
<title>Node3</title>
<g id="a_Node000003"><a xlink:title=" ">
<polygon fill="white" stroke="#666666" points="204.75,-113.88 145.25,-113.88 145.25,-94.62 204.75,-94.62 204.75,-113.88"/>
<text xml:space="preserve" text-anchor="middle" x="175" y="-100.38" font-family="Helvetica,sans-Serif" font-size="10.00">std::string</text>
</a>
</g>
</g>
<!-- Node3&#45;&gt;Node2 -->
<g id="edge2_Node000002_Node000003" class="edge">
<title>Node3&#45;&gt;Node2</title>
<g id="a_edge2_Node000002_Node000003"><a xlink:title=" ">
<path fill="none" stroke="#9a32cd" stroke-dasharray="5,2" d="M161.61,-85.09C152.21,-72.34 139.63,-55.28 129.91,-42.1"/>
<polygon fill="#9a32cd" stroke="#9a32cd" points="158.7,-87.04 167.45,-93.01 164.33,-82.89 158.7,-87.04"/>
</a>
</g>
<text xml:space="preserve" text-anchor="middle" x="162.37" y="-61.5" font-family="Helvetica,sans-Serif" font-size="10.00" fill="grey"> keys</text>
</g>
<!-- Node4 -->
<g id="Node000004" class="node">
<title>Node4</title>
<g id="a_Node000004"><a xlink:title=" ">
<polygon fill="white" stroke="#666666" points="222,-187 128,-187 128,-156.5 222,-156.5 222,-187"/>
<text xml:space="preserve" text-anchor="start" x="136" y="-173.5" font-family="Helvetica,sans-Serif" font-size="10.00">std::basic_string&lt;</text>
<text xml:space="preserve" text-anchor="middle" x="175" y="-162.25" font-family="Helvetica,sans-Serif" font-size="10.00"> Char &gt;</text>
</a>
</g>
</g>
<!-- Node4&#45;&gt;Node3 -->
<g id="edge3_Node000003_Node000004" class="edge">
<title>Node4&#45;&gt;Node3</title>
<g id="a_edge3_Node000003_Node000004"><a xlink:title=" ">
<path fill="none" stroke="#63b8ff" d="M175,-144.74C175,-133.96 175,-122.17 175,-114.3"/>
<polygon fill="#63b8ff" stroke="#63b8ff" points="171.5,-144.7 175,-154.7 178.5,-144.7 171.5,-144.7"/>
</a>
</g>
</g>
</g>
</svg>
