<?xml version="1.0" encoding="UTF-8" standalone="no"?>
<!DOCTYPE svg PUBLIC "-//W3C//DTD SVG 1.1//EN"
 "http://www.w3.org/Graphics/SVG/1.1/DTD/svg11.dtd">
<!-- Generated by graphviz version 14.1.2 (20260124.0452)
 -->
<!-- Title: src/config/include/fourdst/config/validate.h Pages: 1 -->
<!--zoomable 149 -->

<svg id="main" version="1.1" xmlns="http://www.w3.org/2000/svg" xmlns:xlink="http://www.w3.org/1999/xlink" xml:space="preserve" onload="init(evt)">

<style type="text/css"><![CDATA[
.node, .edge {opacity: 0.7;}
.node.selected, .edge.selected {opacity: 1;}
.edge:hover path { stroke: red; }
.edge:hover polygon { stroke: red; fill: red; }
]]></style>

<defs>
  <circle id="rim" cx="0" cy="0" r="7"/>
  <circle id="rim2" cx="0" cy="0" r="3.5"/>
  <g id="zoomPlus">
    <use xlink:href="#rim" fill="#404040"><set attributeName="fill" to="#808080" begin="zoomplus.mouseover" end="zoomplus.mouseout"/></use>
    <path d="M-4,0h8M0,-4v8" fill="none" stroke="white" stroke-width="1.5" pointer-events="none"/>
  </g>
  <g id="zoomMin">
    <use xlink:href="#rim" fill="#404040"><set attributeName="fill" to="#808080" begin="zoomminus.mouseover" end="zoomminus.mouseout"/></use>
    <path d="M-4,0h8" fill="none" stroke="white" stroke-width="1.5" pointer-events="none"/>
  </g>
  <g id="arrowUp" transform="translate(30 24)">
    <use xlink:href="#rim"/>
    <path pointer-events="none" fill="none" stroke="white" stroke-width="1.5" d="M0,-3.0v7 M-2.5,-0.5L0,-3.0L2.5,-0.5"/>
  </g>
  <g id="arrowRight" transform="rotate(90) translate(36 -43)">
    <use xlink:href="#rim"/>
    <path pointer-events="none" fill="none" stroke="white" stroke-width="1.5" d="M0,-3.0v7 M-2.5,-0.5L0,-3.0L2.5,-0.5"/>
  </g>
  <g id="arrowDown" transform="rotate(180) translate(-30 -48)">
    <use xlink:href="#rim"/>
    <path pointer-events="none" fill="none" stroke="white" stroke-width="1.5" d="M0,-3.0v7 M-2.5,-0.5L0,-3.0L2.5,-0.5"/>
  </g>
  <g id="arrowLeft" transform="rotate(270) translate(-36 17)">
    <use xlink:href="#rim"/>
    <path pointer-events="none" fill="none" stroke="white" stroke-width="1.5" d="M0,-3.0v7 M-2.5,-0.5L0,-3.0L2.5,-0.5"/>
  </g>
  <g id="resetDef">
    <use xlink:href="#rim2" fill="#404040"><set attributeName="fill" to="#808080" begin="reset.mouseover" end="reset.mouseout"/></use>
  </g>
</defs>
<script type="application/ecmascript">
var viewWidth = 986;
var viewHeight = 149;
var sectionId = 'dynsection-0';
</script>
<script type="application/ecmascript" xlink:href="svg.min.js"/>
<svg id="graph" class="graph">
<g id="viewport">
<title>src/config/include/fourdst/config/validate.h</title>
<!-- Node1 -->
<g id="Node000001" class="node">
<title>Node1</title>
<g id="a_Node000001"><a xlink:title=" ">
<polygon fill="#999999" stroke="#666666" points="579.88,-141 456.62,-141 456.62,-110.5 579.88,-110.5 579.88,-141"/>
<text xml:space="preserve" text-anchor="start" x="464.62" y="-127.5" font-family="Helvetica,sans-Serif" font-size="10.00">src/config/include</text>
<text xml:space="preserve" text-anchor="middle" x="518.25" y="-116.25" font-family="Helvetica,sans-Serif" font-size="10.00">/fourdst/config/validate.h</text>
</a>
</g>
</g>
<!-- Node2 -->
<g id="Node000002" class="node">
<title>Node2</title>
<g id="a_Node000002"><a xlink:href="ansi_8h.html" target="_top" xlink:title=" ">
<polygon fill="white" stroke="#666666" points="135.5,-74.5 31,-74.5 31,-55.25 135.5,-55.25 135.5,-74.5"/>
<text xml:space="preserve" text-anchor="middle" x="83.25" y="-61" font-family="Helvetica,sans-Serif" font-size="10.00">fourdst/config/ansi.h</text>
</a>
</g>
</g>
<!-- Node1&#45;&gt;Node2 -->
<g id="edge1_Node000001_Node000002" class="edge">
<title>Node1&#45;&gt;Node2</title>
<g id="a_edge1_Node000001_Node000002"><a xlink:title=" ">
<path fill="none" stroke="#63b8ff" d="M456.39,-116.38C374.28,-105.26 230.04,-85.74 147,-74.5"/>
<polygon fill="#63b8ff" stroke="#63b8ff" points="147.58,-71.05 137.2,-73.18 146.64,-77.99 147.58,-71.05"/>
</a>
</g>
</g>
<!-- Node4 -->
<g id="Node000004" class="node">
<title>Node4</title>
<g id="a_Node000004"><a xlink:title=" ">
<polygon fill="#e0e0e0" stroke="#999999" points="179.25,-19.25 139.25,-19.25 139.25,0 179.25,0 179.25,-19.25"/>
<text xml:space="preserve" text-anchor="middle" x="159.25" y="-5.75" font-family="Helvetica,sans-Serif" font-size="10.00">string</text>
</a>
</g>
</g>
<!-- Node1&#45;&gt;Node4 -->
<g id="edge7_Node000001_Node000004" class="edge">
<title>Node1&#45;&gt;Node4</title>
<g id="a_edge7_Node000001_Node000004"><a xlink:title=" ">
<path fill="none" stroke="#63b8ff" d="M456.31,-122.81C371.24,-118.95 224.12,-107.56 183.25,-74.5 170.14,-63.9 164.19,-45.34 161.49,-30.96"/>
<polygon fill="#63b8ff" stroke="#63b8ff" points="164.97,-30.58 160.07,-21.19 158.05,-31.58 164.97,-30.58"/>
</a>
</g>
</g>
<!-- Node6 -->
<g id="Node000006" class="node">
<title>Node6</title>
<g id="a_Node000006"><a xlink:title=" ">
<polygon fill="#e0e0e0" stroke="#999999" points="234.75,-74.5 191.75,-74.5 191.75,-55.25 234.75,-55.25 234.75,-74.5"/>
<text xml:space="preserve" text-anchor="middle" x="213.25" y="-61" font-family="Helvetica,sans-Serif" font-size="10.00">rfl.hpp</text>
</a>
</g>
</g>
<!-- Node1&#45;&gt;Node6 -->
<g id="edge5_Node000001_Node000006" class="edge">
<title>Node1&#45;&gt;Node6</title>
<g id="a_edge5_Node000001_Node000006"><a xlink:title=" ">
<path fill="none" stroke="#63b8ff" d="M456.17,-115C402.92,-106.27 323.96,-92.45 246.17,-74.77"/>
<polygon fill="#63b8ff" stroke="#63b8ff" points="247.21,-71.41 236.68,-72.58 245.64,-78.24 247.21,-71.41"/>
</a>
</g>
</g>
<!-- Node7 -->
<g id="Node000007" class="node">
<title>Node7</title>
<g id="a_Node000007"><a xlink:title=" ">
<polygon fill="#e0e0e0" stroke="#999999" points="329.62,-74.5 252.88,-74.5 252.88,-55.25 329.62,-55.25 329.62,-74.5"/>
<text xml:space="preserve" text-anchor="middle" x="291.25" y="-61" font-family="Helvetica,sans-Serif" font-size="10.00">toml++/toml.h</text>
</a>
</g>
</g>
<!-- Node1&#45;&gt;Node7 -->
<g id="edge6_Node000001_Node000007" class="edge">
<title>Node1&#45;&gt;Node7</title>
<g id="a_edge6_Node000001_Node000007"><a xlink:title=" ">
<path fill="none" stroke="#63b8ff" d="M461.55,-110.05C423.28,-100.12 373.39,-87.18 337.52,-77.88"/>
<polygon fill="#63b8ff" stroke="#63b8ff" points="338.42,-74.49 327.86,-75.37 336.66,-81.27 338.42,-74.49"/>
</a>
</g>
</g>
<!-- Node8 -->
<g id="Node000008" class="node">
<title>Node8</title>
<g id="a_Node000008"><a xlink:title=" ">
<polygon fill="#e0e0e0" stroke="#999999" points="413,-74.5 347.5,-74.5 347.5,-55.25 413,-55.25 413,-74.5"/>
<text xml:space="preserve" text-anchor="middle" x="380.25" y="-61" font-family="Helvetica,sans-Serif" font-size="10.00">string_view</text>
</a>
</g>
</g>
<!-- Node1&#45;&gt;Node8 -->
<g id="edge8_Node000001_Node000008" class="edge">
<title>Node1&#45;&gt;Node8</title>
<g id="a_edge8_Node000001_Node000008"><a xlink:title=" ">
<path fill="none" stroke="#63b8ff" d="M483.78,-110.05C461.76,-100.65 433.4,-88.55 411.94,-79.39"/>
<polygon fill="#63b8ff" stroke="#63b8ff" points="413.38,-76.2 402.81,-75.5 410.63,-82.64 413.38,-76.2"/>
</a>
</g>
</g>
<!-- Node9 -->
<g id="Node000009" class="node">
<title>Node9</title>
<g id="a_Node000009"><a xlink:title=" ">
<polygon fill="#e0e0e0" stroke="#999999" points="473.75,-74.5 430.75,-74.5 430.75,-55.25 473.75,-55.25 473.75,-74.5"/>
<text xml:space="preserve" text-anchor="middle" x="452.25" y="-61" font-family="Helvetica,sans-Serif" font-size="10.00">vector</text>
</a>
</g>
</g>
<!-- Node1&#45;&gt;Node9 -->
<g id="edge9_Node000001_Node000009" class="edge">
<title>Node1&#45;&gt;Node9</title>
<g id="a_edge9_Node000001_Node000009"><a xlink:title=" ">
<path fill="none" stroke="#63b8ff" d="M501.94,-110.2C492.56,-101.84 480.75,-91.3 471,-82.6"/>
<polygon fill="#63b8ff" stroke="#63b8ff" points="473.35,-80 463.55,-75.96 468.69,-85.23 473.35,-80"/>
</a>
</g>
</g>
<!-- Node10 -->
<g id="Node000010" class="node">
<title>Node10</title>
<g id="a_Node000010"><a xlink:title=" ">
<polygon fill="#e0e0e0" stroke="#999999" points="545,-74.5 491.5,-74.5 491.5,-55.25 545,-55.25 545,-74.5"/>
<text xml:space="preserve" text-anchor="middle" x="518.25" y="-61" font-family="Helvetica,sans-Serif" font-size="10.00">iostream</text>
</a>
</g>
</g>
<!-- Node1&#45;&gt;Node10 -->
<g id="edge10_Node000001_Node000010" class="edge">
<title>Node1&#45;&gt;Node10</title>
<g id="a_edge10_Node000001_Node000010"><a xlink:title=" ">
<path fill="none" stroke="#63b8ff" d="M518.25,-110.2C518.25,-102.96 518.25,-94.09 518.25,-86.19"/>
<polygon fill="#63b8ff" stroke="#63b8ff" points="521.75,-86.46 518.25,-76.46 514.75,-86.46 521.75,-86.46"/>
</a>
</g>
</g>
<!-- Node11 -->
<g id="Node000011" class="node">
<title>Node11</title>
<g id="a_Node000011"><a xlink:title=" ">
<polygon fill="#e0e0e0" stroke="#999999" points="607.12,-74.5 563.38,-74.5 563.38,-55.25 607.12,-55.25 607.12,-74.5"/>
<text xml:space="preserve" text-anchor="middle" x="585.25" y="-61" font-family="Helvetica,sans-Serif" font-size="10.00">format</text>
</a>
</g>
</g>
<!-- Node1&#45;&gt;Node11 -->
<g id="edge11_Node000001_Node000011" class="edge">
<title>Node1&#45;&gt;Node11</title>
<g id="a_edge11_Node000001_Node000011"><a xlink:title=" ">
<path fill="none" stroke="#63b8ff" d="M534.81,-110.2C544.42,-101.75 556.56,-91.08 566.52,-82.33"/>
<polygon fill="#63b8ff" stroke="#63b8ff" points="568.58,-85.18 573.78,-75.95 563.96,-79.92 568.58,-85.18"/>
</a>
</g>
</g>
<!-- Node12 -->
<g id="Node000012" class="node">
<title>Node12</title>
<g id="a_Node000012"><a xlink:title=" ">
<polygon fill="#e0e0e0" stroke="#999999" points="687.12,-74.5 625.38,-74.5 625.38,-55.25 687.12,-55.25 687.12,-74.5"/>
<text xml:space="preserve" text-anchor="middle" x="656.25" y="-61" font-family="Helvetica,sans-Serif" font-size="10.00">type_traits</text>
</a>
</g>
</g>
<!-- Node1&#45;&gt;Node12 -->
<g id="edge12_Node000001_Node000012" class="edge">
<title>Node1&#45;&gt;Node12</title>
<g id="a_edge12_Node000001_Node000012"><a xlink:title=" ">
<path fill="none" stroke="#63b8ff" d="M552.72,-110.05C574.74,-100.65 603.1,-88.55 624.56,-79.39"/>
<polygon fill="#63b8ff" stroke="#63b8ff" points="625.87,-82.64 633.69,-75.5 623.12,-76.2 625.87,-82.64"/>
</a>
</g>
</g>
<!-- Node13 -->
<g id="Node000013" class="node">
<title>Node13</title>
<g id="a_Node000013"><a xlink:title=" ">
<polygon fill="#e0e0e0" stroke="#999999" points="755.12,-74.5 705.38,-74.5 705.38,-55.25 755.12,-55.25 755.12,-74.5"/>
<text xml:space="preserve" text-anchor="middle" x="730.25" y="-61" font-family="Helvetica,sans-Serif" font-size="10.00">optional</text>
</a>
</g>
</g>
<!-- Node1&#45;&gt;Node13 -->
<g id="edge13_Node000001_Node000013" class="edge">
<title>Node1&#45;&gt;Node13</title>
<g id="a_edge13_Node000001_Node000013"><a xlink:title=" ">
<path fill="none" stroke="#63b8ff" d="M571.2,-110.05C609.54,-99.4 660.37,-85.28 694.13,-75.91"/>
<polygon fill="#63b8ff" stroke="#63b8ff" points="694.73,-79.37 703.43,-73.32 692.85,-72.63 694.73,-79.37"/>
</a>
</g>
</g>
<!-- Node14 -->
<g id="Node000014" class="node">
<title>Node14</title>
<g id="a_Node000014"><a xlink:title=" ">
<polygon fill="#e0e0e0" stroke="#999999" points="807.62,-74.5 772.88,-74.5 772.88,-55.25 807.62,-55.25 807.62,-74.5"/>
<text xml:space="preserve" text-anchor="middle" x="790.25" y="-61" font-family="Helvetica,sans-Serif" font-size="10.00">map</text>
</a>
</g>
</g>
<!-- Node1&#45;&gt;Node14 -->
<g id="edge14_Node000001_Node000014" class="edge">
<title>Node1&#45;&gt;Node14</title>
<g id="a_edge14_Node000001_Node000014"><a xlink:title=" ">
<path fill="none" stroke="#63b8ff" d="M580.14,-114.21C627.53,-105.67 694.7,-92.53 761.31,-75.05"/>
<polygon fill="#63b8ff" stroke="#63b8ff" points="762.21,-78.44 770.97,-72.48 760.41,-71.68 762.21,-78.44"/>
</a>
</g>
</g>
<!-- Node15 -->
<g id="Node000015" class="node">
<title>Node15</title>
<g id="a_Node000015"><a xlink:title=" ">
<polygon fill="#e0e0e0" stroke="#999999" points="908.62,-74.5 825.88,-74.5 825.88,-55.25 908.62,-55.25 908.62,-74.5"/>
<text xml:space="preserve" text-anchor="middle" x="867.25" y="-61" font-family="Helvetica,sans-Serif" font-size="10.00">unordered_map</text>
</a>
</g>
</g>
<!-- Node1&#45;&gt;Node15 -->
<g id="edge15_Node000001_Node000015" class="edge">
<title>Node1&#45;&gt;Node15</title>
<g id="a_edge15_Node000001_Node000015"><a xlink:title=" ">
<path fill="none" stroke="#63b8ff" d="M580.18,-114.32C637.98,-104.58 726.97,-89.57 814.31,-74.83"/>
<polygon fill="#63b8ff" stroke="#63b8ff" points="814.73,-78.31 824.01,-73.19 813.57,-71.4 814.73,-78.31"/>
</a>
</g>
</g>
<!-- Node16 -->
<g id="Node000016" class="node">
<title>Node16</title>
<g id="a_Node000016"><a xlink:title=" ">
<polygon fill="#e0e0e0" stroke="#999999" points="977.88,-74.5 926.62,-74.5 926.62,-55.25 977.88,-55.25 977.88,-74.5"/>
<text xml:space="preserve" text-anchor="middle" x="952.25" y="-61" font-family="Helvetica,sans-Serif" font-size="10.00">sstream</text>
</a>
</g>
</g>
<!-- Node1&#45;&gt;Node16 -->
<g id="edge16_Node000001_Node000016" class="edge">
<title>Node1&#45;&gt;Node16</title>
<g id="a_edge16_Node000001_Node000016"><a xlink:title=" ">
<path fill="none" stroke="#63b8ff" d="M580.11,-119.21C656.53,-111.87 790.68,-97.35 915.09,-74.69"/>
<polygon fill="#63b8ff" stroke="#63b8ff" points="915.64,-78.15 924.84,-72.89 914.37,-71.27 915.64,-78.15"/>
</a>
</g>
</g>
<!-- Node3 -->
<g id="Node000003" class="node">
<title>Node3</title>
<g id="a_Node000003"><a xlink:title=" ">
<polygon fill="#e0e0e0" stroke="#999999" points="44.5,-19.25 0,-19.25 0,0 44.5,0 44.5,-19.25"/>
<text xml:space="preserve" text-anchor="middle" x="22.25" y="-5.75" font-family="Helvetica,sans-Serif" font-size="10.00">cstdlib</text>
</a>
</g>
</g>
<!-- Node2&#45;&gt;Node3 -->
<g id="edge2_Node000002_Node000003" class="edge">
<title>Node2&#45;&gt;Node3</title>
<g id="a_edge2_Node000002_Node000003"><a xlink:title=" ">
<path fill="none" stroke="#63b8ff" d="M72.9,-54.84C64.17,-47.22 51.46,-36.12 40.95,-26.95"/>
<polygon fill="#63b8ff" stroke="#63b8ff" points="43.42,-24.46 33.59,-20.52 38.82,-29.73 43.42,-24.46"/>
</a>
</g>
</g>
<!-- Node2&#45;&gt;Node4 -->
<g id="edge3_Node000002_Node000004" class="edge">
<title>Node2&#45;&gt;Node4</title>
<g id="a_edge3_Node000002_Node000004"><a xlink:title=" ">
<path fill="none" stroke="#63b8ff" d="M96.14,-54.84C107.28,-47.04 123.62,-35.59 136.89,-26.29"/>
<polygon fill="#63b8ff" stroke="#63b8ff" points="138.87,-29.18 145.05,-20.57 134.86,-23.44 138.87,-29.18"/>
</a>
</g>
</g>
<!-- Node5 -->
<g id="Node000005" class="node">
<title>Node5</title>
<g id="a_Node000005"><a xlink:title=" ">
<polygon fill="#e0e0e0" stroke="#999999" points="113.5,-19.25 63,-19.25 63,0 113.5,0 113.5,-19.25"/>
<text xml:space="preserve" text-anchor="middle" x="88.25" y="-5.75" font-family="Helvetica,sans-Serif" font-size="10.00">unistd.h</text>
</a>
</g>
</g>
<!-- Node2&#45;&gt;Node5 -->
<g id="edge4_Node000002_Node000005" class="edge">
<title>Node2&#45;&gt;Node5</title>
<g id="a_edge4_Node000002_Node000005"><a xlink:title=" ">
<path fill="none" stroke="#63b8ff" d="M84.08,-55.08C84.69,-48.49 85.57,-39.21 86.35,-30.82"/>
<polygon fill="#63b8ff" stroke="#63b8ff" points="89.81,-31.4 87.26,-21.12 82.85,-30.75 89.81,-31.4"/>
</a>
</g>
</g>
</g>
</svg>

<g id="navigator" transform="translate(0 0)" fill="#404254">
  <rect fill="#f2f5e9" fill-opacity="0.5" stroke="#606060" stroke-width=".5" x="0" y="0" width="60" height="60"/>
  <use id="zoomplus" xlink:href="#zoomPlus" x="17" y="9" onmousedown="handleZoom(evt,'in')"/>
  <use id="zoomminus" xlink:href="#zoomMin" x="42" y="9" onmousedown="handleZoom(evt,'out')"/>
  <use id="reset" xlink:href="#resetDef" x="30" y="36" onmousedown="handleReset()"/>
   <use id="arrowup" xlink:href="#arrowUp" x="0" y="0" onmousedown="handlePan(0,-1)"/>
  <use id="arrowright" xlink:href="#arrowRight" x="0" y="0" onmousedown="handlePan(1,0)"/>
  <use id="arrowdown" xlink:href="#arrowDown" x="0" y="0" onmousedown="handlePan(0,1)"/>
  <use id="arrowleft" xlink:href="#arrowLeft" x="0" y="0" onmousedown="handlePan(-1,0)"/>
</g>
<svg viewBox="0 0 15 15" width="100%" height="30px" preserveAspectRatio="xMaxYMin meet">
 <g id="arrow_out" transform="scale(0.3 0.3)">
  <a xlink:href="validate_8h__incl_org.svg" target="_base">
   <rect id="button" ry="5" rx="5" y="6" x="6" height="38" width="38"
        fill="#f2f5e9" fill-opacity="0.5" stroke="#606060" stroke-width="1.0"/>
   <path id="arrow"
     d="M 11.500037,31.436501 C 11.940474,20.09759 22.043105,11.32322 32.158766,21.979434 L 37.068811,17.246167 C 37.068811,17.246167 37.088388,32 37.088388,32 L 22.160133,31.978069 C 22.160133,31.978069 26.997745,27.140456 26.997745,27.140456 C 18.528582,18.264221 13.291696,25.230495 11.500037,31.436501 z"
     style="fill:#404040;"/>
  </a>
 </g>
</svg>

<style type='text/css'>
<![CDATA[
[data-mouse-over-selected='false'] { opacity: 0.7; }
[data-mouse-over-selected='true']  { opacity: 1.0; }
]]>
</style>
<script type="application/ecmascript"><![CDATA[
document.addEventListener('DOMContentLoaded', (event) => {
  highlightEdges();
  highlightAdjacentNodes();
});
]]></script>
</svg>
